ISO-10303-21;
HEADER;
/* Generated by software containing ST-Developer
 * from STEP Tools, Inc. (www.steptools.com) 
 */

FILE_DESCRIPTION(
/* description */ (''),
/* implementation_level */ '2;1');

FILE_NAME(
/* name */ 'cabezal extrusora.stp',
/* time_stamp */ '2025-12-28T22:25:13-03:00',
/* author */ ('TUF GAMING F15'),
/* organization */ (''),
/* preprocessor_version */ 'ST-DEVELOPER v20.1',
/* originating_system */ 'Autodesk Inventor 2026',
/* authorisation */ '');

FILE_SCHEMA (('AUTOMOTIVE_DESIGN { 1 0 10303 214 3 1 1 }'));
ENDSEC;

DATA;
#10=MECHANICAL_DESIGN_GEOMETRIC_PRESENTATION_REPRESENTATION('',(#13),#696);
#11=SHAPE_REPRESENTATION_RELATIONSHIP('SRR','None',#703,#12);
#12=ADVANCED_BREP_SHAPE_REPRESENTATION('',(#14),#695);
#13=STYLED_ITEM('',(#712),#14);
#14=MANIFOLD_SOLID_BREP('S\X\F3lido1',#387);
#15=CONICAL_SURFACE('',#457,8.,0.540419500270584);
#16=FACE_BOUND('',#68,.T.);
#17=FACE_BOUND('',#78,.T.);
#18=FACE_BOUND('',#79,.T.);
#19=FACE_BOUND('',#80,.T.);
#20=FACE_BOUND('',#81,.T.);
#21=FACE_BOUND('',#82,.T.);
#22=FACE_BOUND('',#86,.T.);
#23=FACE_BOUND('',#87,.T.);
#24=FACE_BOUND('',#88,.T.);
#25=FACE_BOUND('',#89,.T.);
#26=FACE_BOUND('',#90,.T.);
#27=FACE_BOUND('',#92,.T.);
#28=FACE_BOUND('',#93,.T.);
#29=FACE_BOUND('',#94,.T.);
#30=FACE_BOUND('',#95,.T.);
#31=FACE_BOUND('',#96,.T.);
#32=FACE_BOUND('',#99,.T.);
#33=FACE_BOUND('',#100,.T.);
#34=FACE_BOUND('',#101,.T.);
#35=FACE_BOUND('',#102,.T.);
#36=FACE_BOUND('',#103,.T.);
#37=FACE_BOUND('',#109,.T.);
#38=PLANE('',#413);
#39=PLANE('',#439);
#40=PLANE('',#447);
#41=PLANE('',#448);
#42=PLANE('',#453);
#43=PLANE('',#463);
#44=FACE_OUTER_BOUND('',#66,.T.);
#45=FACE_OUTER_BOUND('',#67,.T.);
#46=FACE_OUTER_BOUND('',#69,.T.);
#47=FACE_OUTER_BOUND('',#70,.T.);
#48=FACE_OUTER_BOUND('',#71,.T.);
#49=FACE_OUTER_BOUND('',#72,.T.);
#50=FACE_OUTER_BOUND('',#73,.T.);
#51=FACE_OUTER_BOUND('',#74,.T.);
#52=FACE_OUTER_BOUND('',#75,.T.);
#53=FACE_OUTER_BOUND('',#76,.T.);
#54=FACE_OUTER_BOUND('',#77,.T.);
#55=FACE_OUTER_BOUND('',#83,.T.);
#56=FACE_OUTER_BOUND('',#84,.T.);
#57=FACE_OUTER_BOUND('',#85,.T.);
#58=FACE_OUTER_BOUND('',#91,.T.);
#59=FACE_OUTER_BOUND('',#97,.T.);
#60=FACE_OUTER_BOUND('',#98,.T.);
#61=FACE_OUTER_BOUND('',#104,.T.);
#62=FACE_OUTER_BOUND('',#105,.T.);
#63=FACE_OUTER_BOUND('',#106,.T.);
#64=FACE_OUTER_BOUND('',#107,.T.);
#65=FACE_OUTER_BOUND('',#108,.T.);
#66=EDGE_LOOP('',(#254,#255,#256,#257));
#67=EDGE_LOOP('',(#258));
#68=EDGE_LOOP('',(#259));
#69=EDGE_LOOP('',(#260,#261,#262,#263));
#70=EDGE_LOOP('',(#264,#265,#266,#267));
#71=EDGE_LOOP('',(#268,#269,#270,#271));
#72=EDGE_LOOP('',(#272,#273,#274,#275));
#73=EDGE_LOOP('',(#276,#277,#278,#279));
#74=EDGE_LOOP('',(#280,#281,#282,#283));
#75=EDGE_LOOP('',(#284,#285,#286,#287));
#76=EDGE_LOOP('',(#288,#289,#290,#291));
#77=EDGE_LOOP('',(#292));
#78=EDGE_LOOP('',(#293));
#79=EDGE_LOOP('',(#294));
#80=EDGE_LOOP('',(#295));
#81=EDGE_LOOP('',(#296));
#82=EDGE_LOOP('',(#297));
#83=EDGE_LOOP('',(#298,#299,#300,#301));
#84=EDGE_LOOP('',(#302,#303,#304,#305));
#85=EDGE_LOOP('',(#306));
#86=EDGE_LOOP('',(#307));
#87=EDGE_LOOP('',(#308));
#88=EDGE_LOOP('',(#309));
#89=EDGE_LOOP('',(#310));
#90=EDGE_LOOP('',(#311));
#91=EDGE_LOOP('',(#312));
#92=EDGE_LOOP('',(#313));
#93=EDGE_LOOP('',(#314));
#94=EDGE_LOOP('',(#315));
#95=EDGE_LOOP('',(#316));
#96=EDGE_LOOP('',(#317));
#97=EDGE_LOOP('',(#318,#319,#320,#321));
#98=EDGE_LOOP('',(#322));
#99=EDGE_LOOP('',(#323));
#100=EDGE_LOOP('',(#324));
#101=EDGE_LOOP('',(#325));
#102=EDGE_LOOP('',(#326));
#103=EDGE_LOOP('',(#327));
#104=EDGE_LOOP('',(#328,#329,#330,#331,#332));
#105=EDGE_LOOP('',(#333,#334,#335,#336,#337,#338));
#106=EDGE_LOOP('',(#339,#340,#341,#342,#343));
#107=EDGE_LOOP('',(#344,#345,#346,#347));
#108=EDGE_LOOP('',(#348));
#109=EDGE_LOOP('',(#349));
#110=LINE('',#595,#126);
#111=LINE('',#604,#127);
#112=LINE('',#610,#128);
#113=LINE('',#616,#129);
#114=LINE('',#622,#130);
#115=LINE('',#628,#131);
#116=LINE('',#634,#132);
#117=LINE('',#640,#133);
#118=LINE('',#646,#134);
#119=LINE('',#657,#135);
#120=LINE('',#662,#136);
#121=LINE('',#671,#137);
#122=LINE('',#678,#138);
#123=LINE('',#682,#139);
#124=LINE('',#689,#140);
#125=LINE('',#691,#141);
#126=VECTOR('',#470,11.5);
#127=VECTOR('',#481,2.75);
#128=VECTOR('',#488,2.75);
#129=VECTOR('',#495,2.75);
#130=VECTOR('',#502,2.75);
#131=VECTOR('',#509,2.75);
#132=VECTOR('',#516,2.75);
#133=VECTOR('',#523,2.75);
#134=VECTOR('',#530,2.75);
#135=VECTOR('',#543,17.05);
#136=VECTOR('',#550,27.5);
#137=VECTOR('',#561,27.5);
#138=VECTOR('',#570,5.);
#139=VECTOR('',#575,8.);
#140=VECTOR('',#584,11.);
#141=VECTOR('',#587,20.);
#142=CIRCLE('',#411,11.5);
#143=CIRCLE('',#412,11.5);
#144=CIRCLE('',#414,5.);
#145=CIRCLE('',#416,2.75);
#146=CIRCLE('',#417,2.75);
#147=CIRCLE('',#419,2.75);
#148=CIRCLE('',#420,2.75);
#149=CIRCLE('',#422,2.75);
#150=CIRCLE('',#423,2.75);
#151=CIRCLE('',#425,2.75);
#152=CIRCLE('',#426,2.75);
#153=CIRCLE('',#428,2.75);
#154=CIRCLE('',#429,2.75);
#155=CIRCLE('',#431,2.75);
#156=CIRCLE('',#432,2.75);
#157=CIRCLE('',#434,2.75);
#158=CIRCLE('',#435,2.75);
#159=CIRCLE('',#437,2.75);
#160=CIRCLE('',#438,2.75);
#161=CIRCLE('',#440,27.5);
#162=CIRCLE('',#441,20.);
#163=CIRCLE('',#443,17.05);
#164=CIRCLE('',#444,17.05);
#165=CIRCLE('',#446,27.5);
#166=CIRCLE('',#449,27.5);
#167=CIRCLE('',#450,20.);
#168=CIRCLE('',#452,27.5);
#169=CIRCLE('',#455,5.);
#170=CIRCLE('',#456,5.);
#171=CIRCLE('',#458,11.);
#172=CIRCLE('',#459,11.);
#173=CIRCLE('',#461,11.);
#174=VERTEX_POINT('',#592);
#175=VERTEX_POINT('',#594);
#176=VERTEX_POINT('',#598);
#177=VERTEX_POINT('',#601);
#178=VERTEX_POINT('',#603);
#179=VERTEX_POINT('',#607);
#180=VERTEX_POINT('',#609);
#181=VERTEX_POINT('',#613);
#182=VERTEX_POINT('',#615);
#183=VERTEX_POINT('',#619);
#184=VERTEX_POINT('',#621);
#185=VERTEX_POINT('',#625);
#186=VERTEX_POINT('',#627);
#187=VERTEX_POINT('',#631);
#188=VERTEX_POINT('',#633);
#189=VERTEX_POINT('',#637);
#190=VERTEX_POINT('',#639);
#191=VERTEX_POINT('',#643);
#192=VERTEX_POINT('',#645);
#193=VERTEX_POINT('',#649);
#194=VERTEX_POINT('',#651);
#195=VERTEX_POINT('',#654);
#196=VERTEX_POINT('',#656);
#197=VERTEX_POINT('',#660);
#198=VERTEX_POINT('',#665);
#199=VERTEX_POINT('',#667);
#200=VERTEX_POINT('',#670);
#201=VERTEX_POINT('',#675);
#202=VERTEX_POINT('',#676);
#203=VERTEX_POINT('',#681);
#204=VERTEX_POINT('',#683);
#205=VERTEX_POINT('',#687);
#206=EDGE_CURVE('',#174,#174,#142,.T.);
#207=EDGE_CURVE('',#174,#175,#110,.T.);
#208=EDGE_CURVE('',#175,#175,#143,.T.);
#209=EDGE_CURVE('',#176,#176,#144,.T.);
#210=EDGE_CURVE('',#177,#177,#145,.T.);
#211=EDGE_CURVE('',#177,#178,#111,.T.);
#212=EDGE_CURVE('',#178,#178,#146,.T.);
#213=EDGE_CURVE('',#179,#179,#147,.T.);
#214=EDGE_CURVE('',#179,#180,#112,.T.);
#215=EDGE_CURVE('',#180,#180,#148,.T.);
#216=EDGE_CURVE('',#181,#181,#149,.T.);
#217=EDGE_CURVE('',#181,#182,#113,.T.);
#218=EDGE_CURVE('',#182,#182,#150,.T.);
#219=EDGE_CURVE('',#183,#183,#151,.T.);
#220=EDGE_CURVE('',#183,#184,#114,.T.);
#221=EDGE_CURVE('',#184,#184,#152,.T.);
#222=EDGE_CURVE('',#185,#185,#153,.T.);
#223=EDGE_CURVE('',#185,#186,#115,.T.);
#224=EDGE_CURVE('',#186,#186,#154,.T.);
#225=EDGE_CURVE('',#187,#187,#155,.T.);
#226=EDGE_CURVE('',#187,#188,#116,.T.);
#227=EDGE_CURVE('',#188,#188,#156,.T.);
#228=EDGE_CURVE('',#189,#189,#157,.T.);
#229=EDGE_CURVE('',#189,#190,#117,.T.);
#230=EDGE_CURVE('',#190,#190,#158,.T.);
#231=EDGE_CURVE('',#191,#191,#159,.T.);
#232=EDGE_CURVE('',#191,#192,#118,.T.);
#233=EDGE_CURVE('',#192,#192,#160,.T.);
#234=EDGE_CURVE('',#193,#193,#161,.T.);
#235=EDGE_CURVE('',#194,#194,#162,.T.);
#236=EDGE_CURVE('',#195,#195,#163,.T.);
#237=EDGE_CURVE('',#195,#196,#119,.T.);
#238=EDGE_CURVE('',#196,#196,#164,.T.);
#239=EDGE_CURVE('',#197,#197,#165,.T.);
#240=EDGE_CURVE('',#197,#193,#120,.T.);
#241=EDGE_CURVE('',#198,#198,#166,.T.);
#242=EDGE_CURVE('',#199,#199,#167,.T.);
#243=EDGE_CURVE('',#198,#200,#121,.T.);
#244=EDGE_CURVE('',#200,#200,#168,.T.);
#245=EDGE_CURVE('',#201,#202,#169,.T.);
#246=EDGE_CURVE('',#202,#176,#122,.T.);
#247=EDGE_CURVE('',#202,#201,#170,.T.);
#248=EDGE_CURVE('',#201,#203,#123,.T.);
#249=EDGE_CURVE('',#204,#203,#171,.T.);
#250=EDGE_CURVE('',#203,#204,#172,.T.);
#251=EDGE_CURVE('',#205,#205,#173,.T.);
#252=EDGE_CURVE('',#205,#204,#124,.T.);
#253=EDGE_CURVE('',#199,#194,#125,.T.);
#254=ORIENTED_EDGE('',*,*,#206,.F.);
#255=ORIENTED_EDGE('',*,*,#207,.T.);
#256=ORIENTED_EDGE('',*,*,#208,.T.);
#257=ORIENTED_EDGE('',*,*,#207,.F.);
#258=ORIENTED_EDGE('',*,*,#208,.F.);
#259=ORIENTED_EDGE('',*,*,#209,.F.);
#260=ORIENTED_EDGE('',*,*,#210,.F.);
#261=ORIENTED_EDGE('',*,*,#211,.T.);
#262=ORIENTED_EDGE('',*,*,#212,.F.);
#263=ORIENTED_EDGE('',*,*,#211,.F.);
#264=ORIENTED_EDGE('',*,*,#213,.F.);
#265=ORIENTED_EDGE('',*,*,#214,.T.);
#266=ORIENTED_EDGE('',*,*,#215,.F.);
#267=ORIENTED_EDGE('',*,*,#214,.F.);
#268=ORIENTED_EDGE('',*,*,#216,.F.);
#269=ORIENTED_EDGE('',*,*,#217,.T.);
#270=ORIENTED_EDGE('',*,*,#218,.F.);
#271=ORIENTED_EDGE('',*,*,#217,.F.);
#272=ORIENTED_EDGE('',*,*,#219,.F.);
#273=ORIENTED_EDGE('',*,*,#220,.T.);
#274=ORIENTED_EDGE('',*,*,#221,.F.);
#275=ORIENTED_EDGE('',*,*,#220,.F.);
#276=ORIENTED_EDGE('',*,*,#222,.F.);
#277=ORIENTED_EDGE('',*,*,#223,.T.);
#278=ORIENTED_EDGE('',*,*,#224,.F.);
#279=ORIENTED_EDGE('',*,*,#223,.F.);
#280=ORIENTED_EDGE('',*,*,#225,.F.);
#281=ORIENTED_EDGE('',*,*,#226,.T.);
#282=ORIENTED_EDGE('',*,*,#227,.F.);
#283=ORIENTED_EDGE('',*,*,#226,.F.);
#284=ORIENTED_EDGE('',*,*,#228,.F.);
#285=ORIENTED_EDGE('',*,*,#229,.T.);
#286=ORIENTED_EDGE('',*,*,#230,.F.);
#287=ORIENTED_EDGE('',*,*,#229,.F.);
#288=ORIENTED_EDGE('',*,*,#231,.F.);
#289=ORIENTED_EDGE('',*,*,#232,.T.);
#290=ORIENTED_EDGE('',*,*,#233,.F.);
#291=ORIENTED_EDGE('',*,*,#232,.F.);
#292=ORIENTED_EDGE('',*,*,#234,.F.);
#293=ORIENTED_EDGE('',*,*,#213,.T.);
#294=ORIENTED_EDGE('',*,*,#219,.T.);
#295=ORIENTED_EDGE('',*,*,#225,.T.);
#296=ORIENTED_EDGE('',*,*,#231,.T.);
#297=ORIENTED_EDGE('',*,*,#235,.F.);
#298=ORIENTED_EDGE('',*,*,#236,.F.);
#299=ORIENTED_EDGE('',*,*,#237,.T.);
#300=ORIENTED_EDGE('',*,*,#238,.F.);
#301=ORIENTED_EDGE('',*,*,#237,.F.);
#302=ORIENTED_EDGE('',*,*,#239,.F.);
#303=ORIENTED_EDGE('',*,*,#240,.T.);
#304=ORIENTED_EDGE('',*,*,#234,.T.);
#305=ORIENTED_EDGE('',*,*,#240,.F.);
#306=ORIENTED_EDGE('',*,*,#239,.T.);
#307=ORIENTED_EDGE('',*,*,#215,.T.);
#308=ORIENTED_EDGE('',*,*,#221,.T.);
#309=ORIENTED_EDGE('',*,*,#227,.T.);
#310=ORIENTED_EDGE('',*,*,#233,.T.);
#311=ORIENTED_EDGE('',*,*,#236,.T.);
#312=ORIENTED_EDGE('',*,*,#241,.T.);
#313=ORIENTED_EDGE('',*,*,#212,.T.);
#314=ORIENTED_EDGE('',*,*,#218,.T.);
#315=ORIENTED_EDGE('',*,*,#224,.T.);
#316=ORIENTED_EDGE('',*,*,#230,.T.);
#317=ORIENTED_EDGE('',*,*,#242,.F.);
#318=ORIENTED_EDGE('',*,*,#241,.F.);
#319=ORIENTED_EDGE('',*,*,#243,.T.);
#320=ORIENTED_EDGE('',*,*,#244,.F.);
#321=ORIENTED_EDGE('',*,*,#243,.F.);
#322=ORIENTED_EDGE('',*,*,#244,.T.);
#323=ORIENTED_EDGE('',*,*,#206,.T.);
#324=ORIENTED_EDGE('',*,*,#210,.T.);
#325=ORIENTED_EDGE('',*,*,#216,.T.);
#326=ORIENTED_EDGE('',*,*,#222,.T.);
#327=ORIENTED_EDGE('',*,*,#228,.T.);
#328=ORIENTED_EDGE('',*,*,#245,.T.);
#329=ORIENTED_EDGE('',*,*,#246,.T.);
#330=ORIENTED_EDGE('',*,*,#209,.T.);
#331=ORIENTED_EDGE('',*,*,#246,.F.);
#332=ORIENTED_EDGE('',*,*,#247,.T.);
#333=ORIENTED_EDGE('',*,*,#245,.F.);
#334=ORIENTED_EDGE('',*,*,#248,.T.);
#335=ORIENTED_EDGE('',*,*,#249,.F.);
#336=ORIENTED_EDGE('',*,*,#250,.F.);
#337=ORIENTED_EDGE('',*,*,#248,.F.);
#338=ORIENTED_EDGE('',*,*,#247,.F.);
#339=ORIENTED_EDGE('',*,*,#251,.F.);
#340=ORIENTED_EDGE('',*,*,#252,.T.);
#341=ORIENTED_EDGE('',*,*,#249,.T.);
#342=ORIENTED_EDGE('',*,*,#250,.T.);
#343=ORIENTED_EDGE('',*,*,#252,.F.);
#344=ORIENTED_EDGE('',*,*,#242,.T.);
#345=ORIENTED_EDGE('',*,*,#253,.T.);
#346=ORIENTED_EDGE('',*,*,#235,.T.);
#347=ORIENTED_EDGE('',*,*,#253,.F.);
#348=ORIENTED_EDGE('',*,*,#238,.T.);
#349=ORIENTED_EDGE('',*,*,#251,.T.);
#350=CYLINDRICAL_SURFACE('',#410,11.5);
#351=CYLINDRICAL_SURFACE('',#415,2.75);
#352=CYLINDRICAL_SURFACE('',#418,2.75);
#353=CYLINDRICAL_SURFACE('',#421,2.75);
#354=CYLINDRICAL_SURFACE('',#424,2.75);
#355=CYLINDRICAL_SURFACE('',#427,2.75);
#356=CYLINDRICAL_SURFACE('',#430,2.75);
#357=CYLINDRICAL_SURFACE('',#433,2.75);
#358=CYLINDRICAL_SURFACE('',#436,2.75);
#359=CYLINDRICAL_SURFACE('',#442,17.05);
#360=CYLINDRICAL_SURFACE('',#445,27.5);
#361=CYLINDRICAL_SURFACE('',#451,27.5);
#362=CYLINDRICAL_SURFACE('',#454,5.);
#363=CYLINDRICAL_SURFACE('',#460,11.);
#364=CYLINDRICAL_SURFACE('',#462,20.);
#365=ADVANCED_FACE('',(#44),#350,.F.);
#366=ADVANCED_FACE('',(#45,#16),#38,.T.);
#367=ADVANCED_FACE('',(#46),#351,.F.);
#368=ADVANCED_FACE('',(#47),#352,.F.);
#369=ADVANCED_FACE('',(#48),#353,.F.);
#370=ADVANCED_FACE('',(#49),#354,.F.);
#371=ADVANCED_FACE('',(#50),#355,.F.);
#372=ADVANCED_FACE('',(#51),#356,.F.);
#373=ADVANCED_FACE('',(#52),#357,.F.);
#374=ADVANCED_FACE('',(#53),#358,.F.);
#375=ADVANCED_FACE('',(#54,#17,#18,#19,#20,#21),#39,.F.);
#376=ADVANCED_FACE('',(#55),#359,.F.);
#377=ADVANCED_FACE('',(#56),#360,.T.);
#378=ADVANCED_FACE('',(#57,#22,#23,#24,#25,#26),#40,.T.);
#379=ADVANCED_FACE('',(#58,#27,#28,#29,#30,#31),#41,.F.);
#380=ADVANCED_FACE('',(#59),#361,.T.);
#381=ADVANCED_FACE('',(#60,#32,#33,#34,#35,#36),#42,.T.);
#382=ADVANCED_FACE('',(#61),#362,.F.);
#383=ADVANCED_FACE('',(#62),#15,.F.);
#384=ADVANCED_FACE('',(#63),#363,.F.);
#385=ADVANCED_FACE('',(#64),#364,.T.);
#386=ADVANCED_FACE('',(#65,#37),#43,.F.);
#387=CLOSED_SHELL('',(#365,#366,#367,#368,#369,#370,#371,#372,#373,#374,
#375,#376,#377,#378,#379,#380,#381,#382,#383,#384,#385,#386));
#388=DERIVED_UNIT_ELEMENT(#391,1.);
#389=DERIVED_UNIT_ELEMENT(#698,-3.);
#390=DIMENSIONAL_EXPONENTS(0.,1.,0.,0.,0.,0.,0.);
#391=(
CONVERSION_BASED_UNIT('gram',#393)
MASS_UNIT()
NAMED_UNIT(#390)
);
#392=(
MASS_UNIT()
NAMED_UNIT(*)
SI_UNIT(.KILO.,.GRAM.)
);
#393=MASS_MEASURE_WITH_UNIT(MASS_MEASURE(0.001),#392);
#394=DERIVED_UNIT((#388,#389));
#395=MEASURE_REPRESENTATION_ITEM('density measure',
POSITIVE_RATIO_MEASURE(1.),#394);
#396=PROPERTY_DEFINITION_REPRESENTATION(#401,#398);
#397=PROPERTY_DEFINITION_REPRESENTATION(#402,#399);
#398=REPRESENTATION('material name',(#400),#695);
#399=REPRESENTATION('density',(#395),#695);
#400=DESCRIPTIVE_REPRESENTATION_ITEM('Gen\X\E9rico','Gen\X\E9rico');
#401=PROPERTY_DEFINITION('material property','material name',#705);
#402=PROPERTY_DEFINITION('material property','density of part',#705);
#403=DATE_TIME_ROLE('creation_date');
#404=APPLIED_DATE_AND_TIME_ASSIGNMENT(#405,#403,(#705));
#405=DATE_AND_TIME(#406,#407);
#406=CALENDAR_DATE(2025,4,12);
#407=LOCAL_TIME(0,0,0.,#408);
#408=COORDINATED_UNIVERSAL_TIME_OFFSET(0,0,.BEHIND.);
#409=AXIS2_PLACEMENT_3D('',#590,#464,#465);
#410=AXIS2_PLACEMENT_3D('',#591,#466,#467);
#411=AXIS2_PLACEMENT_3D('',#593,#468,#469);
#412=AXIS2_PLACEMENT_3D('',#596,#471,#472);
#413=AXIS2_PLACEMENT_3D('',#597,#473,#474);
#414=AXIS2_PLACEMENT_3D('',#599,#475,#476);
#415=AXIS2_PLACEMENT_3D('',#600,#477,#478);
#416=AXIS2_PLACEMENT_3D('',#602,#479,#480);
#417=AXIS2_PLACEMENT_3D('',#605,#482,#483);
#418=AXIS2_PLACEMENT_3D('',#606,#484,#485);
#419=AXIS2_PLACEMENT_3D('',#608,#486,#487);
#420=AXIS2_PLACEMENT_3D('',#611,#489,#490);
#421=AXIS2_PLACEMENT_3D('',#612,#491,#492);
#422=AXIS2_PLACEMENT_3D('',#614,#493,#494);
#423=AXIS2_PLACEMENT_3D('',#617,#496,#497);
#424=AXIS2_PLACEMENT_3D('',#618,#498,#499);
#425=AXIS2_PLACEMENT_3D('',#620,#500,#501);
#426=AXIS2_PLACEMENT_3D('',#623,#503,#504);
#427=AXIS2_PLACEMENT_3D('',#624,#505,#506);
#428=AXIS2_PLACEMENT_3D('',#626,#507,#508);
#429=AXIS2_PLACEMENT_3D('',#629,#510,#511);
#430=AXIS2_PLACEMENT_3D('',#630,#512,#513);
#431=AXIS2_PLACEMENT_3D('',#632,#514,#515);
#432=AXIS2_PLACEMENT_3D('',#635,#517,#518);
#433=AXIS2_PLACEMENT_3D('',#636,#519,#520);
#434=AXIS2_PLACEMENT_3D('',#638,#521,#522);
#435=AXIS2_PLACEMENT_3D('',#641,#524,#525);
#436=AXIS2_PLACEMENT_3D('',#642,#526,#527);
#437=AXIS2_PLACEMENT_3D('',#644,#528,#529);
#438=AXIS2_PLACEMENT_3D('',#647,#531,#532);
#439=AXIS2_PLACEMENT_3D('',#648,#533,#534);
#440=AXIS2_PLACEMENT_3D('',#650,#535,#536);
#441=AXIS2_PLACEMENT_3D('',#652,#537,#538);
#442=AXIS2_PLACEMENT_3D('',#653,#539,#540);
#443=AXIS2_PLACEMENT_3D('',#655,#541,#542);
#444=AXIS2_PLACEMENT_3D('',#658,#544,#545);
#445=AXIS2_PLACEMENT_3D('',#659,#546,#547);
#446=AXIS2_PLACEMENT_3D('',#661,#548,#549);
#447=AXIS2_PLACEMENT_3D('',#663,#551,#552);
#448=AXIS2_PLACEMENT_3D('',#664,#553,#554);
#449=AXIS2_PLACEMENT_3D('',#666,#555,#556);
#450=AXIS2_PLACEMENT_3D('',#668,#557,#558);
#451=AXIS2_PLACEMENT_3D('',#669,#559,#560);
#452=AXIS2_PLACEMENT_3D('',#672,#562,#563);
#453=AXIS2_PLACEMENT_3D('',#673,#564,#565);
#454=AXIS2_PLACEMENT_3D('',#674,#566,#567);
#455=AXIS2_PLACEMENT_3D('',#677,#568,#569);
#456=AXIS2_PLACEMENT_3D('',#679,#571,#572);
#457=AXIS2_PLACEMENT_3D('',#680,#573,#574);
#458=AXIS2_PLACEMENT_3D('',#684,#576,#577);
#459=AXIS2_PLACEMENT_3D('',#685,#578,#579);
#460=AXIS2_PLACEMENT_3D('',#686,#580,#581);
#461=AXIS2_PLACEMENT_3D('',#688,#582,#583);
#462=AXIS2_PLACEMENT_3D('',#690,#585,#586);
#463=AXIS2_PLACEMENT_3D('',#692,#588,#589);
#464=DIRECTION('axis',(0.,0.,1.));
#465=DIRECTION('refdir',(1.,0.,0.));
#466=DIRECTION('center_axis',(0.,-1.,0.));
#467=DIRECTION('ref_axis',(1.,0.,0.));
#468=DIRECTION('center_axis',(0.,-1.,0.));
#469=DIRECTION('ref_axis',(1.,0.,0.));
#470=DIRECTION('',(0.,-1.,0.));
#471=DIRECTION('center_axis',(0.,-1.,0.));
#472=DIRECTION('ref_axis',(1.,0.,0.));
#473=DIRECTION('center_axis',(0.,1.,0.));
#474=DIRECTION('ref_axis',(0.,0.,1.));
#475=DIRECTION('center_axis',(0.,1.,0.));
#476=DIRECTION('ref_axis',(1.,0.,0.));
#477=DIRECTION('center_axis',(0.,-1.,0.));
#478=DIRECTION('ref_axis',(1.,0.,0.));
#479=DIRECTION('center_axis',(0.,-1.,0.));
#480=DIRECTION('ref_axis',(1.,0.,0.));
#481=DIRECTION('',(0.,-1.,0.));
#482=DIRECTION('center_axis',(0.,1.,0.));
#483=DIRECTION('ref_axis',(1.,0.,0.));
#484=DIRECTION('center_axis',(0.,-1.,0.));
#485=DIRECTION('ref_axis',(1.,0.,0.));
#486=DIRECTION('center_axis',(0.,-1.,0.));
#487=DIRECTION('ref_axis',(1.,0.,0.));
#488=DIRECTION('',(0.,-1.,0.));
#489=DIRECTION('center_axis',(0.,1.,0.));
#490=DIRECTION('ref_axis',(1.,0.,0.));
#491=DIRECTION('center_axis',(0.,-1.,0.));
#492=DIRECTION('ref_axis',(1.,0.,0.));
#493=DIRECTION('center_axis',(0.,-1.,0.));
#494=DIRECTION('ref_axis',(1.,0.,0.));
#495=DIRECTION('',(0.,-1.,0.));
#496=DIRECTION('center_axis',(0.,1.,0.));
#497=DIRECTION('ref_axis',(1.,0.,0.));
#498=DIRECTION('center_axis',(0.,-1.,0.));
#499=DIRECTION('ref_axis',(1.,0.,0.));
#500=DIRECTION('center_axis',(0.,-1.,0.));
#501=DIRECTION('ref_axis',(1.,0.,0.));
#502=DIRECTION('',(0.,-1.,0.));
#503=DIRECTION('center_axis',(0.,1.,0.));
#504=DIRECTION('ref_axis',(1.,0.,0.));
#505=DIRECTION('center_axis',(0.,-1.,0.));
#506=DIRECTION('ref_axis',(1.,0.,0.));
#507=DIRECTION('center_axis',(0.,-1.,0.));
#508=DIRECTION('ref_axis',(1.,0.,0.));
#509=DIRECTION('',(0.,-1.,0.));
#510=DIRECTION('center_axis',(0.,1.,0.));
#511=DIRECTION('ref_axis',(1.,0.,0.));
#512=DIRECTION('center_axis',(0.,-1.,0.));
#513=DIRECTION('ref_axis',(1.,0.,0.));
#514=DIRECTION('center_axis',(0.,-1.,0.));
#515=DIRECTION('ref_axis',(1.,0.,0.));
#516=DIRECTION('',(0.,-1.,0.));
#517=DIRECTION('center_axis',(0.,1.,0.));
#518=DIRECTION('ref_axis',(1.,0.,0.));
#519=DIRECTION('center_axis',(0.,-1.,0.));
#520=DIRECTION('ref_axis',(1.,0.,0.));
#521=DIRECTION('center_axis',(0.,-1.,0.));
#522=DIRECTION('ref_axis',(1.,0.,0.));
#523=DIRECTION('',(0.,-1.,0.));
#524=DIRECTION('center_axis',(0.,1.,0.));
#525=DIRECTION('ref_axis',(1.,0.,0.));
#526=DIRECTION('center_axis',(0.,-1.,0.));
#527=DIRECTION('ref_axis',(1.,0.,0.));
#528=DIRECTION('center_axis',(0.,-1.,0.));
#529=DIRECTION('ref_axis',(1.,0.,0.));
#530=DIRECTION('',(0.,-1.,0.));
#531=DIRECTION('center_axis',(0.,1.,0.));
#532=DIRECTION('ref_axis',(1.,0.,0.));
#533=DIRECTION('center_axis',(0.,-1.,0.));
#534=DIRECTION('ref_axis',(0.,0.,-1.));
#535=DIRECTION('center_axis',(0.,-1.,0.));
#536=DIRECTION('ref_axis',(1.,0.,0.));
#537=DIRECTION('center_axis',(0.,1.,0.));
#538=DIRECTION('ref_axis',(-1.,0.,0.));
#539=DIRECTION('center_axis',(0.,-1.,0.));
#540=DIRECTION('ref_axis',(-1.,0.,0.));
#541=DIRECTION('center_axis',(0.,1.,0.));
#542=DIRECTION('ref_axis',(-1.,0.,0.));
#543=DIRECTION('',(0.,1.,0.));
#544=DIRECTION('center_axis',(0.,-1.,0.));
#545=DIRECTION('ref_axis',(-1.,0.,0.));
#546=DIRECTION('center_axis',(0.,-1.,0.));
#547=DIRECTION('ref_axis',(1.,0.,0.));
#548=DIRECTION('center_axis',(0.,-1.,0.));
#549=DIRECTION('ref_axis',(1.,0.,0.));
#550=DIRECTION('',(0.,1.,0.));
#551=DIRECTION('center_axis',(0.,-1.,0.));
#552=DIRECTION('ref_axis',(0.,0.,-1.));
#553=DIRECTION('center_axis',(0.,1.,0.));
#554=DIRECTION('ref_axis',(0.,0.,1.));
#555=DIRECTION('center_axis',(0.,-1.,0.));
#556=DIRECTION('ref_axis',(1.,0.,0.));
#557=DIRECTION('center_axis',(0.,-1.,0.));
#558=DIRECTION('ref_axis',(-1.,0.,0.));
#559=DIRECTION('center_axis',(0.,-1.,0.));
#560=DIRECTION('ref_axis',(1.,0.,0.));
#561=DIRECTION('',(0.,1.,0.));
#562=DIRECTION('center_axis',(0.,1.,0.));
#563=DIRECTION('ref_axis',(1.,0.,0.));
#564=DIRECTION('center_axis',(0.,1.,0.));
#565=DIRECTION('ref_axis',(0.,0.,1.));
#566=DIRECTION('center_axis',(0.,1.,0.));
#567=DIRECTION('ref_axis',(1.,0.,0.));
#568=DIRECTION('center_axis',(0.,-1.,0.));
#569=DIRECTION('ref_axis',(1.,0.,0.));
#570=DIRECTION('',(0.,1.,0.));
#571=DIRECTION('center_axis',(0.,-1.,0.));
#572=DIRECTION('ref_axis',(1.,0.,0.));
#573=DIRECTION('center_axis',(0.,-1.,0.));
#574=DIRECTION('ref_axis',(0.,0.,1.));
#575=DIRECTION('',(6.3007558005922E-17,-0.857492925712544,-0.514495755427527));
#576=DIRECTION('center_axis',(0.,1.,0.));
#577=DIRECTION('ref_axis',(1.,0.,0.));
#578=DIRECTION('center_axis',(0.,1.,0.));
#579=DIRECTION('ref_axis',(1.,0.,0.));
#580=DIRECTION('center_axis',(0.,1.,0.));
#581=DIRECTION('ref_axis',(1.,0.,0.));
#582=DIRECTION('center_axis',(0.,1.,0.));
#583=DIRECTION('ref_axis',(1.,0.,0.));
#584=DIRECTION('',(0.,1.,0.));
#585=DIRECTION('center_axis',(0.,1.,0.));
#586=DIRECTION('ref_axis',(-1.,0.,0.));
#587=DIRECTION('',(0.,-1.,0.));
#588=DIRECTION('center_axis',(0.,1.,0.));
#589=DIRECTION('ref_axis',(0.,0.,1.));
#590=CARTESIAN_POINT('',(0.,0.,0.));
#591=CARTESIAN_POINT('Origin',(0.,60.,0.));
#592=CARTESIAN_POINT('',(-11.5,60.,-1.40834381901946E-15));
#593=CARTESIAN_POINT('Origin',(0.,60.,0.));
#594=CARTESIAN_POINT('',(-11.5,53.,-1.40834381901946E-15));
#595=CARTESIAN_POINT('',(-11.5,60.,-1.40834381901946E-15));
#596=CARTESIAN_POINT('Origin',(0.,53.,0.));
#597=CARTESIAN_POINT('Origin',(0.,53.,0.));
#598=CARTESIAN_POINT('',(-5.,53.,6.12323399573677E-16));
#599=CARTESIAN_POINT('Origin',(0.,53.,0.));
#600=CARTESIAN_POINT('Origin',(0.,60.,-23.75));
#601=CARTESIAN_POINT('',(-2.75,60.,-23.75));
#602=CARTESIAN_POINT('Origin',(0.,60.,-23.75));
#603=CARTESIAN_POINT('',(-2.75,57.,-23.75));
#604=CARTESIAN_POINT('',(-2.75,60.,-23.75));
#605=CARTESIAN_POINT('Origin',(0.,57.,-23.75));
#606=CARTESIAN_POINT('Origin',(0.,60.,-23.75));
#607=CARTESIAN_POINT('',(-2.75,0.,-23.75));
#608=CARTESIAN_POINT('Origin',(0.,0.,-23.75));
#609=CARTESIAN_POINT('',(-2.75,-3.,-23.75));
#610=CARTESIAN_POINT('',(-2.75,60.,-23.75));
#611=CARTESIAN_POINT('Origin',(0.,-3.,-23.75));
#612=CARTESIAN_POINT('Origin',(23.75,60.,0.));
#613=CARTESIAN_POINT('',(21.,60.,-3.36777869765522E-16));
#614=CARTESIAN_POINT('Origin',(23.75,60.,0.));
#615=CARTESIAN_POINT('',(21.,57.,3.36777869765522E-16));
#616=CARTESIAN_POINT('',(21.,60.,-3.36777869765522E-16));
#617=CARTESIAN_POINT('Origin',(23.75,57.,0.));
#618=CARTESIAN_POINT('Origin',(23.75,60.,0.));
#619=CARTESIAN_POINT('',(21.,0.,-3.36777869765522E-16));
#620=CARTESIAN_POINT('Origin',(23.75,0.,0.));
#621=CARTESIAN_POINT('',(21.,-3.,3.36777869765522E-16));
#622=CARTESIAN_POINT('',(21.,60.,-3.36777869765522E-16));
#623=CARTESIAN_POINT('Origin',(23.75,-3.,0.));
#624=CARTESIAN_POINT('Origin',(-23.75,60.,1.20933871415801E-15));
#625=CARTESIAN_POINT('',(-26.5,60.,8.72560844392489E-16));
#626=CARTESIAN_POINT('Origin',(-23.75,60.,1.20933871415801E-15));
#627=CARTESIAN_POINT('',(-26.5,57.,1.54611658392353E-15));
#628=CARTESIAN_POINT('',(-26.5,60.,8.72560844392489E-16));
#629=CARTESIAN_POINT('Origin',(-23.75,57.,1.20933871415801E-15));
#630=CARTESIAN_POINT('Origin',(-23.75,60.,1.20933871415801E-15));
#631=CARTESIAN_POINT('',(-26.5,0.,8.72560844392489E-16));
#632=CARTESIAN_POINT('Origin',(-23.75,0.,1.20933871415801E-15));
#633=CARTESIAN_POINT('',(-26.5,-3.,1.54611658392353E-15));
#634=CARTESIAN_POINT('',(-26.5,60.,8.72560844392489E-16));
#635=CARTESIAN_POINT('Origin',(-23.75,-3.,1.20933871415801E-15));
#636=CARTESIAN_POINT('Origin',(0.,60.,23.75));
#637=CARTESIAN_POINT('',(-2.75,60.,23.75));
#638=CARTESIAN_POINT('Origin',(0.,60.,23.75));
#639=CARTESIAN_POINT('',(-2.75,57.,23.75));
#640=CARTESIAN_POINT('',(-2.75,60.,23.75));
#641=CARTESIAN_POINT('Origin',(0.,57.,23.75));
#642=CARTESIAN_POINT('Origin',(0.,60.,23.75));
#643=CARTESIAN_POINT('',(-2.75,0.,23.75));
#644=CARTESIAN_POINT('Origin',(0.,0.,23.75));
#645=CARTESIAN_POINT('',(-2.75,-3.,23.75));
#646=CARTESIAN_POINT('',(-2.75,60.,23.75));
#647=CARTESIAN_POINT('Origin',(0.,-3.,23.75));
#648=CARTESIAN_POINT('Origin',(0.,0.,0.));
#649=CARTESIAN_POINT('',(-27.5,0.,-3.36777869765522E-15));
#650=CARTESIAN_POINT('Origin',(0.,0.,0.));
#651=CARTESIAN_POINT('',(20.,0.,-2.44929359829471E-15));
#652=CARTESIAN_POINT('Origin',(0.,0.,0.));
#653=CARTESIAN_POINT('Origin',(0.,0.,0.));
#654=CARTESIAN_POINT('',(17.05,-3.,2.08802279254624E-15));
#655=CARTESIAN_POINT('Origin',(0.,-3.,0.));
#656=CARTESIAN_POINT('',(17.05,0.,2.08802279254624E-15));
#657=CARTESIAN_POINT('',(17.05,0.,2.08802279254624E-15));
#658=CARTESIAN_POINT('Origin',(0.,0.,0.));
#659=CARTESIAN_POINT('Origin',(0.,0.,0.));
#660=CARTESIAN_POINT('',(-27.5,-3.,-3.36777869765522E-15));
#661=CARTESIAN_POINT('Origin',(0.,-3.,0.));
#662=CARTESIAN_POINT('',(-27.5,0.,-3.36777869765522E-15));
#663=CARTESIAN_POINT('Origin',(0.,-3.,0.));
#664=CARTESIAN_POINT('Origin',(0.,57.,0.));
#665=CARTESIAN_POINT('',(-27.5,57.,-3.36777869765522E-15));
#666=CARTESIAN_POINT('Origin',(0.,57.,0.));
#667=CARTESIAN_POINT('',(20.,57.,2.44929359829471E-15));
#668=CARTESIAN_POINT('Origin',(0.,57.,0.));
#669=CARTESIAN_POINT('Origin',(0.,60.,0.));
#670=CARTESIAN_POINT('',(-27.5,60.,-3.36777869765522E-15));
#671=CARTESIAN_POINT('',(-27.5,60.,-3.36777869765522E-15));
#672=CARTESIAN_POINT('Origin',(0.,60.,0.));
#673=CARTESIAN_POINT('Origin',(0.,60.,0.));
#674=CARTESIAN_POINT('Origin',(0.,45.,0.));
#675=CARTESIAN_POINT('',(6.12323399573677E-16,45.,-5.));
#676=CARTESIAN_POINT('',(-5.,45.,6.12323399573677E-16));
#677=CARTESIAN_POINT('Origin',(0.,45.,0.));
#678=CARTESIAN_POINT('',(-5.,45.,6.12323399573677E-16));
#679=CARTESIAN_POINT('Origin',(0.,45.,0.));
#680=CARTESIAN_POINT('Origin',(0.,40.,0.));
#681=CARTESIAN_POINT('',(1.34711147906209E-15,35.,-11.));
#682=CARTESIAN_POINT('',(9.79717439317883E-16,40.,-8.));
#683=CARTESIAN_POINT('',(-11.,35.,1.34711147906209E-15));
#684=CARTESIAN_POINT('Origin',(0.,35.,0.));
#685=CARTESIAN_POINT('Origin',(0.,35.,0.));
#686=CARTESIAN_POINT('Origin',(0.,0.,0.));
#687=CARTESIAN_POINT('',(-11.,0.,1.34711147906209E-15));
#688=CARTESIAN_POINT('Origin',(0.,0.,0.));
#689=CARTESIAN_POINT('',(-11.,0.,1.34711147906209E-15));
#690=CARTESIAN_POINT('Origin',(0.,0.,0.));
#691=CARTESIAN_POINT('',(20.,0.,-2.44929359829471E-15));
#692=CARTESIAN_POINT('Origin',(0.,0.,0.));
#693=UNCERTAINTY_MEASURE_WITH_UNIT(LENGTH_MEASURE(0.01),#697,
'DISTANCE_ACCURACY_VALUE',
'Maximum model space distance between geometric entities at asserted c
onnectivities');
#694=UNCERTAINTY_MEASURE_WITH_UNIT(LENGTH_MEASURE(0.01),#697,
'DISTANCE_ACCURACY_VALUE',
'Maximum model space distance between geometric entities at asserted c
onnectivities');
#695=(
GEOMETRIC_REPRESENTATION_CONTEXT(3)
GLOBAL_UNCERTAINTY_ASSIGNED_CONTEXT((#693))
GLOBAL_UNIT_ASSIGNED_CONTEXT((#697,#699,#700))
REPRESENTATION_CONTEXT('','3D')
);
#696=(
GEOMETRIC_REPRESENTATION_CONTEXT(3)
GLOBAL_UNCERTAINTY_ASSIGNED_CONTEXT((#694))
GLOBAL_UNIT_ASSIGNED_CONTEXT((#697,#699,#700))
REPRESENTATION_CONTEXT('','3D')
);
#697=(
LENGTH_UNIT()
NAMED_UNIT(*)
SI_UNIT(.MILLI.,.METRE.)
);
#698=(
LENGTH_UNIT()
NAMED_UNIT(*)
SI_UNIT(.CENTI.,.METRE.)
);
#699=(
NAMED_UNIT(*)
PLANE_ANGLE_UNIT()
SI_UNIT($,.RADIAN.)
);
#700=(
NAMED_UNIT(*)
SI_UNIT($,.STERADIAN.)
SOLID_ANGLE_UNIT()
);
#701=SHAPE_DEFINITION_REPRESENTATION(#702,#703);
#702=PRODUCT_DEFINITION_SHAPE('',$,#705);
#703=SHAPE_REPRESENTATION('',(#409),#695);
#704=PRODUCT_DEFINITION_CONTEXT('part definition',#709,'design');
#705=PRODUCT_DEFINITION('cabezal extrusora','cabezal extrusora',#706,#704);
#706=PRODUCT_DEFINITION_FORMATION('',$,#711);
#707=PRODUCT_RELATED_PRODUCT_CATEGORY('cabezal extrusora',
'cabezal extrusora',(#711));
#708=APPLICATION_PROTOCOL_DEFINITION('international standard',
'automotive_design',2009,#709);
#709=APPLICATION_CONTEXT(
'Core Data for Automotive Mechanical Design Process');
#710=PRODUCT_CONTEXT('part definition',#709,'mechanical');
#711=PRODUCT('cabezal extrusora','cabezal extrusora',$,(#710));
#712=PRESENTATION_STYLE_ASSIGNMENT((#713));
#713=SURFACE_STYLE_USAGE(.BOTH.,#716);
#714=SURFACE_STYLE_RENDERING_WITH_PROPERTIES($,#720,(#715));
#715=SURFACE_STYLE_TRANSPARENT(0.);
#716=SURFACE_SIDE_STYLE('',(#717,#714));
#717=SURFACE_STYLE_FILL_AREA(#718);
#718=FILL_AREA_STYLE('',(#719));
#719=FILL_AREA_STYLE_COLOUR('',#720);
#720=COLOUR_RGB('',0.749019607843137,0.749019607843137,0.749019607843137);
ENDSEC;
END-ISO-10303-21;
