ISO-10303-21;
HEADER;
/* Generated by software containing ST-Developer
 * from STEP Tools, Inc. (www.steptools.com) 
 */

FILE_DESCRIPTION(
/* description */ (''),
/* implementation_level */ '2;1');

FILE_NAME(
/* name */ 'dosificacion tornillo.stp',
/* time_stamp */ '2025-12-28T22:24:11-03:00',
/* author */ ('TUF GAMING F15'),
/* organization */ (''),
/* preprocessor_version */ 'ST-DEVELOPER v20.1',
/* originating_system */ 'Autodesk Inventor 2026',
/* authorisation */ '');

FILE_SCHEMA (('AUTOMOTIVE_DESIGN { 1 0 10303 214 3 1 1 }'));
ENDSEC;

DATA;
#10=MECHANICAL_DESIGN_GEOMETRIC_PRESENTATION_REPRESENTATION('',(#13),#1019);
#11=SHAPE_REPRESENTATION_RELATIONSHIP('SRR','None',#1026,#12);
#12=ADVANCED_BREP_SHAPE_REPRESENTATION('',(#14),#1018);
#13=STYLED_ITEM('',(#1035),#14);
#14=MANIFOLD_SOLID_BREP('S\X\F3lido1',#189);
#15=PLANE('',#219);
#16=PLANE('',#220);
#17=PLANE('',#223);
#18=PLANE('',#224);
#19=B_SPLINE_SURFACE_WITH_KNOTS('',3,3,((#428,#429,#430,#431),(#432,#433,
#434,#435),(#436,#437,#438,#439),(#440,#441,#442,#443)),.UNSPECIFIED.,.F.,
 .F.,.F.,(4,4),(4,4),(-13.56,-13.26),(-0.376991118430781,0.),
 .UNSPECIFIED.);
#20=B_SPLINE_SURFACE_WITH_KNOTS('',3,3,((#452,#453,#454,#455,#456,#457,
#458,#459,#460,#461,#462,#463,#464,#465,#466,#467,#468,#469,#470,#471,#472,
#473,#474,#475,#476,#477,#478,#479,#480,#481,#482,#483,#484,#485,#486,#487,
#488,#489),(#490,#491,#492,#493,#494,#495,#496,#497,#498,#499,#500,#501,
#502,#503,#504,#505,#506,#507,#508,#509,#510,#511,#512,#513,#514,#515,#516,
#517,#518,#519,#520,#521,#522,#523,#524,#525,#526,#527),(#528,#529,#530,
#531,#532,#533,#534,#535,#536,#537,#538,#539,#540,#541,#542,#543,#544,#545,
#546,#547,#548,#549,#550,#551,#552,#553,#554,#555,#556,#557,#558,#559,#560,
#561,#562,#563,#564,#565),(#566,#567,#568,#569,#570,#571,#572,#573,#574,
#575,#576,#577,#578,#579,#580,#581,#582,#583,#584,#585,#586,#587,#588,#589,
#590,#591,#592,#593,#594,#595,#596,#597,#598,#599,#600,#601,#602,#603)),
 .UNSPECIFIED.,.F.,.F.,.F.,(4,4),(4,1,1,1,1,1,1,1,1,1,1,1,1,1,1,1,1,1,1,
1,1,1,1,1,1,1,1,1,1,1,1,1,1,1,1,4),(-0.29,0.),(-17.039998553071,-16.4314271761756,
-15.8228557992803,-15.2142844223849,-14.6057130454895,-14.1999987942259,
-13.7942845429623,-13.3885702916987,-12.9828560404351,-12.4419037054169,
-12.1714275379079,-11.7657132866443,-11.3599990353807,-10.9542847841171,
-10.3457134072217,-9.73714203032631,-9.12857065343091,-8.51999927653552,
-7.91142789964013,-7.30285652274473,-6.89714227148114,-6.49142802021754,
-6.08571376895394,-5.67999951769035,-5.27428526642675,-4.86857101516315,
-4.46285676389956,-4.05714251263596,-3.65142826137237,-3.24571401010877,
-2.97523784259971,-2.43428550758158,-1.82571413068618,-1.21714275379079,
-0.608571376895394,0.),.UNSPECIFIED.);
#21=B_SPLINE_SURFACE_WITH_KNOTS('',3,3,((#646,#647,#648,#649,#650,#651,
#652,#653,#654,#655,#656,#657,#658,#659,#660,#661,#662,#663,#664,#665,#666,
#667,#668,#669,#670,#671,#672,#673,#674,#675,#676,#677,#678,#679,#680,#681,
#682,#683),(#684,#685,#686,#687,#688,#689,#690,#691,#692,#693,#694,#695,
#696,#697,#698,#699,#700,#701,#702,#703,#704,#705,#706,#707,#708,#709,#710,
#711,#712,#713,#714,#715,#716,#717,#718,#719,#720,#721),(#722,#723,#724,
#725,#726,#727,#728,#729,#730,#731,#732,#733,#734,#735,#736,#737,#738,#739,
#740,#741,#742,#743,#744,#745,#746,#747,#748,#749,#750,#751,#752,#753,#754,
#755,#756,#757,#758,#759),(#760,#761,#762,#763,#764,#765,#766,#767,#768,
#769,#770,#771,#772,#773,#774,#775,#776,#777,#778,#779,#780,#781,#782,#783,
#784,#785,#786,#787,#788,#789,#790,#791,#792,#793,#794,#795,#796,#797)),
 .UNSPECIFIED.,.F.,.F.,.F.,(4,4),(4,1,1,1,1,1,1,1,1,1,1,1,1,1,1,1,1,1,1,
1,1,1,1,1,1,1,1,1,1,1,1,1,1,1,1,4),(-0.3,0.),(-17.039998553071,-16.4314271761756,
-15.8228557992803,-15.2142844223849,-14.6057130454895,-14.1999987942259,
-13.7942845429623,-13.3885702916987,-12.9828560404351,-12.4419037054169,
-12.1714275379079,-11.7657132866443,-11.3599990353807,-10.9542847841171,
-10.3457134072217,-9.73714203032631,-9.12857065343091,-8.51999927653552,
-7.91142789964013,-7.30285652274473,-6.89714227148114,-6.49142802021754,
-6.08571376895394,-5.67999951769035,-5.27428526642675,-4.86857101516315,
-4.46285676389956,-4.05714251263596,-3.65142826137237,-3.24571401010877,
-2.97523784259971,-2.43428550758158,-1.82571413068618,-1.21714275379079,
-0.608571376895394,0.),.UNSPECIFIED.);
#22=B_SPLINE_SURFACE_WITH_KNOTS('',3,3,((#840,#841,#842,#843,#844,#845,
#846,#847,#848,#849,#850,#851,#852,#853,#854,#855,#856,#857,#858,#859,#860,
#861,#862,#863,#864,#865,#866,#867,#868,#869,#870,#871,#872,#873,#874,#875,
#876,#877),(#878,#879,#880,#881,#882,#883,#884,#885,#886,#887,#888,#889,
#890,#891,#892,#893,#894,#895,#896,#897,#898,#899,#900,#901,#902,#903,#904,
#905,#906,#907,#908,#909,#910,#911,#912,#913,#914,#915),(#916,#917,#918,
#919,#920,#921,#922,#923,#924,#925,#926,#927,#928,#929,#930,#931,#932,#933,
#934,#935,#936,#937,#938,#939,#940,#941,#942,#943,#944,#945,#946,#947,#948,
#949,#950,#951,#952,#953),(#954,#955,#956,#957,#958,#959,#960,#961,#962,
#963,#964,#965,#966,#967,#968,#969,#970,#971,#972,#973,#974,#975,#976,#977,
#978,#979,#980,#981,#982,#983,#984,#985,#986,#987,#988,#989,#990,#991)),
 .UNSPECIFIED.,.F.,.F.,.F.,(4,4),(4,1,1,1,1,1,1,1,1,1,1,1,1,1,1,1,1,1,1,
1,1,1,1,1,1,1,1,1,1,1,1,1,1,1,1,4),(-0.29,0.),(-17.039998553071,-16.4314271761756,
-15.8228557992803,-15.2142844223849,-14.6057130454895,-14.1999987942259,
-13.7942845429623,-13.3885702916987,-12.9828560404351,-12.4419037054169,
-12.1714275379079,-11.7657132866443,-11.3599990353807,-10.9542847841171,
-10.3457134072217,-9.73714203032631,-9.12857065343091,-8.51999927653552,
-7.91142789964013,-7.30285652274473,-6.89714227148114,-6.49142802021754,
-6.08571376895394,-5.67999951769035,-5.27428526642675,-4.86857101516315,
-4.46285676389956,-4.05714251263596,-3.65142826137237,-3.24571401010877,
-2.97523784259971,-2.43428550758158,-1.82571413068618,-1.21714275379079,
-0.608571376895394,0.),.UNSPECIFIED.);
#23=FACE_OUTER_BOUND('',#35,.T.);
#24=FACE_OUTER_BOUND('',#36,.T.);
#25=FACE_OUTER_BOUND('',#37,.T.);
#26=FACE_OUTER_BOUND('',#38,.T.);
#27=FACE_OUTER_BOUND('',#39,.T.);
#28=FACE_OUTER_BOUND('',#40,.T.);
#29=FACE_OUTER_BOUND('',#41,.T.);
#30=FACE_OUTER_BOUND('',#42,.T.);
#31=FACE_OUTER_BOUND('',#43,.T.);
#32=FACE_OUTER_BOUND('',#44,.T.);
#33=FACE_OUTER_BOUND('',#45,.T.);
#34=FACE_OUTER_BOUND('',#46,.T.);
#35=EDGE_LOOP('',(#123,#124,#125));
#36=EDGE_LOOP('',(#126,#127,#128,#129,#130,#131));
#37=EDGE_LOOP('',(#132,#133,#134,#135,#136));
#38=EDGE_LOOP('',(#137,#138,#139));
#39=EDGE_LOOP('',(#140,#141,#142,#143,#144,#145));
#40=EDGE_LOOP('',(#146,#147,#148,#149));
#41=EDGE_LOOP('',(#150,#151,#152,#153,#154,#155,#156));
#42=EDGE_LOOP('',(#157,#158,#159,#160));
#43=EDGE_LOOP('',(#161,#162,#163,#164));
#44=EDGE_LOOP('',(#165,#166,#167));
#45=EDGE_LOOP('',(#168,#169,#170));
#46=EDGE_LOOP('',(#171,#172));
#47=CIRCLE('',#213,15.5);
#48=CIRCLE('',#215,15.5);
#49=CIRCLE('',#217,15.5);
#50=CIRCLE('',#218,15.5);
#51=CIRCLE('',#222,15.5);
#52=B_SPLINE_CURVE_WITH_KNOTS('',3,(#270,#271,#272,#273,#274,#275,#276,
#277,#278,#279,#280,#281,#282,#283,#284,#285,#286,#287,#288,#289,#290,#291,
#292,#293,#294,#295,#296,#297,#298,#299,#300),.UNSPECIFIED.,.F.,.F.,(4,
3,3,3,3,3,3,3,3,3,4),(12.3276095726864,12.441903705417,12.9828560404351,
13.3885702916987,13.7942845429623,14.1999987942259,14.6057130454895,15.2142844223849,
15.8228557992803,16.4314271761756,17.039998553071),.UNSPECIFIED.);
#53=B_SPLINE_CURVE_WITH_KNOTS('',3,(#306,#307,#308,#309,#310,#311,#312,
#313,#314,#315,#316,#317,#318,#319,#320,#321,#322,#323,#324,#325,#326,#327,
#328,#329,#330,#331,#332,#333,#334,#335,#336,#337,#338,#339,#340,#341,#342,
#343,#344,#345,#346,#347,#348),.UNSPECIFIED.,.F.,.F.,(4,3,3,3,3,3,3,3,3,
3,3,3,3,3,4),(6.04442426550677,6.08571376895395,6.49142802021754,6.89714227148114,
7.30285652274473,7.91142789964013,8.51999927653552,9.12857065343092,9.73714203032631,
10.3457134072217,10.9542847841171,11.3599990353807,11.7657132866443,12.1714275379079,
12.3276095726864),.UNSPECIFIED.);
#54=B_SPLINE_CURVE_WITH_KNOTS('',3,(#352,#353,#354,#355,#356,#357,#358,
#359,#360,#361,#362,#363,#364),.UNSPECIFIED.,.F.,.F.,(4,1,1,1,1,1,1,1,1,
1,4),(-17.039998553071,-16.4314271761756,-15.8228557992803,-15.2142844223849,
-14.6057130454895,-14.1999987942259,-13.7942845429623,-13.3885702916987,
-12.9828560404351,-12.4419037054169,-12.3276095726864),.UNSPECIFIED.);
#55=B_SPLINE_CURVE_WITH_KNOTS('',3,(#371,#372,#373,#374,#375,#376,#377,
#378,#379,#380,#381,#382,#383,#384,#385,#386,#387,#388,#389,#390,#391,#392,
#393,#394,#395,#396,#397,#398,#399,#400,#401,#402,#403,#404,#405,#406,#407,
#408,#409,#410),.UNSPECIFIED.,.F.,.F.,(4,3,3,3,3,3,3,3,3,3,3,3,3,4),(3.5527136788005E-15,
0.608571376895398,1.21714275379079,1.82571413068619,2.43428550758158,2.97523784259971,
3.24571401010877,3.65142826137237,4.05714251263596,4.46285676389956,4.86857101516316,
5.27428526642675,5.67999951769035,6.04442426550677),.UNSPECIFIED.);
#56=B_SPLINE_CURVE_WITH_KNOTS('',3,(#411,#412,#413,#414,#415,#416,#417,
#418,#419,#420,#421,#422,#423,#424,#425,#426,#427),.UNSPECIFIED.,.F.,.F.,
(4,1,1,1,1,1,1,1,1,1,1,1,1,1,4),(-12.3276095726864,-12.1714275379079,-11.7657132866443,
-11.3599990353807,-10.9542847841171,-10.3457134072217,-9.73714203032631,
-9.12857065343091,-8.51999927653552,-7.91142789964013,-7.30285652274473,
-6.89714227148114,-6.49142802021754,-6.08571376895394,-6.04442426550677),
 .UNSPECIFIED.);
#57=B_SPLINE_CURVE_WITH_KNOTS('',3,(#447,#448,#449,#450),.UNSPECIFIED.,
 .F.,.F.,(4,4),(-0.376991118430781,0.),.UNSPECIFIED.);
#58=B_SPLINE_CURVE_WITH_KNOTS('',3,(#608,#609,#610,#611,#612,#613,#614,
#615,#616,#617,#618,#619,#620,#621,#622,#623,#624,#625,#626,#627,#628,#629,
#630,#631,#632,#633,#634,#635,#636,#637,#638,#639,#640,#641,#642,#643,#644,
#645),.UNSPECIFIED.,.F.,.F.,(4,1,1,1,1,1,1,1,1,1,1,1,1,1,1,1,1,1,1,1,1,
1,1,1,1,1,1,1,1,1,1,1,1,1,1,4),(-17.039998553071,-16.4314271761756,-15.8228557992803,
-15.2142844223849,-14.6057130454895,-14.1999987942259,-13.7942845429623,
-13.3885702916987,-12.9828560404351,-12.4419037054169,-12.1714275379079,
-11.7657132866443,-11.3599990353807,-10.9542847841171,-10.3457134072217,
-9.73714203032631,-9.12857065343091,-8.51999927653552,-7.91142789964013,
-7.30285652274473,-6.89714227148114,-6.49142802021754,-6.08571376895394,
-5.67999951769035,-5.27428526642675,-4.86857101516315,-4.46285676389956,
-4.05714251263596,-3.65142826137237,-3.24571401010877,-2.97523784259971,
-2.43428550758158,-1.82571413068618,-1.21714275379079,-0.608571376895394,
0.),.UNSPECIFIED.);
#59=B_SPLINE_CURVE_WITH_KNOTS('',3,(#802,#803,#804,#805,#806,#807,#808,
#809,#810,#811,#812,#813,#814,#815,#816,#817,#818,#819,#820,#821,#822,#823,
#824,#825,#826,#827,#828,#829,#830,#831,#832,#833,#834,#835,#836,#837,#838,
#839),.UNSPECIFIED.,.F.,.F.,(4,1,1,1,1,1,1,1,1,1,1,1,1,1,1,1,1,1,1,1,1,
1,1,1,1,1,1,1,1,1,1,1,1,1,1,4),(-17.039998553071,-16.4314271761756,-15.8228557992803,
-15.2142844223849,-14.6057130454895,-14.1999987942259,-13.7942845429623,
-13.3885702916987,-12.9828560404351,-12.4419037054169,-12.1714275379079,
-11.7657132866443,-11.3599990353807,-10.9542847841171,-10.3457134072217,
-9.73714203032631,-9.12857065343091,-8.51999927653552,-7.91142789964013,
-7.30285652274473,-6.89714227148114,-6.49142802021754,-6.08571376895394,
-5.67999951769035,-5.27428526642675,-4.86857101516315,-4.46285676389956,
-4.05714251263596,-3.65142826137237,-3.24571401010877,-2.97523784259971,
-2.43428550758158,-1.82571413068618,-1.21714275379079,-0.608571376895394,
0.),.UNSPECIFIED.);
#60=B_SPLINE_CURVE_WITH_KNOTS('',3,(#994,#995,#996,#997,#998,#999,#1000,
#1001,#1002,#1003,#1004,#1005,#1006,#1007,#1008,#1009),.UNSPECIFIED.,.F.,
 .F.,(4,1,1,1,1,1,1,1,1,1,1,1,1,4),(-6.04442426550677,-5.67999951769035,
-5.27428526642675,-4.86857101516315,-4.46285676389956,-4.05714251263596,
-3.65142826137237,-3.24571401010877,-2.97523784259971,-2.43428550758158,
-1.82571413068618,-1.21714275379079,-0.608571376895394,-0.376991118430781),
 .UNSPECIFIED.);
#61=LINE('',#268,#72);
#62=LINE('',#305,#73);
#63=LINE('',#351,#74);
#64=LINE('',#368,#75);
#65=LINE('',#451,#76);
#66=LINE('',#605,#77);
#67=LINE('',#607,#78);
#68=LINE('',#799,#79);
#69=LINE('',#801,#80);
#70=LINE('',#992,#81);
#71=LINE('',#993,#82);
#72=VECTOR('',#229,15.5);
#73=VECTOR('',#234,15.5);
#74=VECTOR('',#237,10.);
#75=VECTOR('',#240,15.5);
#76=VECTOR('',#245,10.);
#77=VECTOR('',#246,10.);
#78=VECTOR('',#247,10.);
#79=VECTOR('',#248,10.);
#80=VECTOR('',#249,10.);
#81=VECTOR('',#250,10.);
#82=VECTOR('',#251,10.);
#83=VERTEX_POINT('',#266);
#84=VERTEX_POINT('',#267);
#85=VERTEX_POINT('',#269);
#86=VERTEX_POINT('',#303);
#87=VERTEX_POINT('',#304);
#88=VERTEX_POINT('',#350);
#89=VERTEX_POINT('',#366);
#90=VERTEX_POINT('',#367);
#91=VERTEX_POINT('',#369);
#92=VERTEX_POINT('',#444);
#93=VERTEX_POINT('',#446);
#94=VERTEX_POINT('',#604);
#95=VERTEX_POINT('',#606);
#96=VERTEX_POINT('',#798);
#97=VERTEX_POINT('',#800);
#98=EDGE_CURVE('',#83,#84,#61,.T.);
#99=EDGE_CURVE('',#83,#85,#52,.T.);
#100=EDGE_CURVE('',#85,#84,#47,.T.);
#101=EDGE_CURVE('',#86,#87,#62,.T.);
#102=EDGE_CURVE('',#86,#83,#53,.T.);
#103=EDGE_CURVE('',#84,#85,#48,.T.);
#104=EDGE_CURVE('',#85,#88,#63,.T.);
#105=EDGE_CURVE('',#88,#87,#54,.T.);
#106=EDGE_CURVE('',#89,#90,#64,.T.);
#107=EDGE_CURVE('',#91,#89,#49,.T.);
#108=EDGE_CURVE('',#91,#86,#55,.T.);
#109=EDGE_CURVE('',#87,#90,#56,.T.);
#110=EDGE_CURVE('',#92,#91,#50,.T.);
#111=EDGE_CURVE('',#92,#93,#57,.T.);
#112=EDGE_CURVE('',#91,#93,#65,.T.);
#113=EDGE_CURVE('',#85,#94,#66,.T.);
#114=EDGE_CURVE('',#95,#91,#67,.T.);
#115=EDGE_CURVE('',#94,#95,#58,.T.);
#116=EDGE_CURVE('',#94,#96,#68,.T.);
#117=EDGE_CURVE('',#97,#95,#69,.T.);
#118=EDGE_CURVE('',#96,#97,#59,.T.);
#119=EDGE_CURVE('',#96,#88,#70,.T.);
#120=EDGE_CURVE('',#93,#97,#71,.T.);
#121=EDGE_CURVE('',#90,#92,#60,.T.);
#122=EDGE_CURVE('',#89,#92,#51,.T.);
#123=ORIENTED_EDGE('',*,*,#98,.F.);
#124=ORIENTED_EDGE('',*,*,#99,.T.);
#125=ORIENTED_EDGE('',*,*,#100,.T.);
#126=ORIENTED_EDGE('',*,*,#101,.F.);
#127=ORIENTED_EDGE('',*,*,#102,.T.);
#128=ORIENTED_EDGE('',*,*,#98,.T.);
#129=ORIENTED_EDGE('',*,*,#103,.T.);
#130=ORIENTED_EDGE('',*,*,#104,.T.);
#131=ORIENTED_EDGE('',*,*,#105,.T.);
#132=ORIENTED_EDGE('',*,*,#106,.F.);
#133=ORIENTED_EDGE('',*,*,#107,.F.);
#134=ORIENTED_EDGE('',*,*,#108,.T.);
#135=ORIENTED_EDGE('',*,*,#101,.T.);
#136=ORIENTED_EDGE('',*,*,#109,.T.);
#137=ORIENTED_EDGE('',*,*,#110,.F.);
#138=ORIENTED_EDGE('',*,*,#111,.T.);
#139=ORIENTED_EDGE('',*,*,#112,.F.);
#140=ORIENTED_EDGE('',*,*,#113,.F.);
#141=ORIENTED_EDGE('',*,*,#99,.F.);
#142=ORIENTED_EDGE('',*,*,#102,.F.);
#143=ORIENTED_EDGE('',*,*,#108,.F.);
#144=ORIENTED_EDGE('',*,*,#114,.F.);
#145=ORIENTED_EDGE('',*,*,#115,.F.);
#146=ORIENTED_EDGE('',*,*,#116,.F.);
#147=ORIENTED_EDGE('',*,*,#115,.T.);
#148=ORIENTED_EDGE('',*,*,#117,.F.);
#149=ORIENTED_EDGE('',*,*,#118,.F.);
#150=ORIENTED_EDGE('',*,*,#119,.F.);
#151=ORIENTED_EDGE('',*,*,#118,.T.);
#152=ORIENTED_EDGE('',*,*,#120,.F.);
#153=ORIENTED_EDGE('',*,*,#111,.F.);
#154=ORIENTED_EDGE('',*,*,#121,.F.);
#155=ORIENTED_EDGE('',*,*,#109,.F.);
#156=ORIENTED_EDGE('',*,*,#105,.F.);
#157=ORIENTED_EDGE('',*,*,#120,.T.);
#158=ORIENTED_EDGE('',*,*,#117,.T.);
#159=ORIENTED_EDGE('',*,*,#114,.T.);
#160=ORIENTED_EDGE('',*,*,#112,.T.);
#161=ORIENTED_EDGE('',*,*,#119,.T.);
#162=ORIENTED_EDGE('',*,*,#104,.F.);
#163=ORIENTED_EDGE('',*,*,#113,.T.);
#164=ORIENTED_EDGE('',*,*,#116,.T.);
#165=ORIENTED_EDGE('',*,*,#106,.T.);
#166=ORIENTED_EDGE('',*,*,#121,.T.);
#167=ORIENTED_EDGE('',*,*,#122,.F.);
#168=ORIENTED_EDGE('',*,*,#107,.T.);
#169=ORIENTED_EDGE('',*,*,#122,.T.);
#170=ORIENTED_EDGE('',*,*,#110,.T.);
#171=ORIENTED_EDGE('',*,*,#100,.F.);
#172=ORIENTED_EDGE('',*,*,#103,.F.);
#173=CYLINDRICAL_SURFACE('',#212,15.5);
#174=CYLINDRICAL_SURFACE('',#214,15.5);
#175=CYLINDRICAL_SURFACE('',#216,15.5);
#176=CYLINDRICAL_SURFACE('',#221,15.5);
#177=ADVANCED_FACE('',(#23),#173,.T.);
#178=ADVANCED_FACE('',(#24),#174,.T.);
#179=ADVANCED_FACE('',(#25),#175,.T.);
#180=ADVANCED_FACE('',(#26),#19,.T.);
#181=ADVANCED_FACE('',(#27),#20,.T.);
#182=ADVANCED_FACE('',(#28),#21,.T.);
#183=ADVANCED_FACE('',(#29),#22,.T.);
#184=ADVANCED_FACE('',(#30),#15,.F.);
#185=ADVANCED_FACE('',(#31),#16,.T.);
#186=ADVANCED_FACE('',(#32),#176,.T.);
#187=ADVANCED_FACE('',(#33),#17,.T.);
#188=ADVANCED_FACE('',(#34),#18,.F.);
#189=CLOSED_SHELL('',(#177,#178,#179,#180,#181,#182,#183,#184,#185,#186,
#187,#188));
#190=DERIVED_UNIT_ELEMENT(#193,1.);
#191=DERIVED_UNIT_ELEMENT(#1021,-3.);
#192=DIMENSIONAL_EXPONENTS(0.,1.,0.,0.,0.,0.,0.);
#193=(
CONVERSION_BASED_UNIT('gram',#195)
MASS_UNIT()
NAMED_UNIT(#192)
);
#194=(
MASS_UNIT()
NAMED_UNIT(*)
SI_UNIT(.KILO.,.GRAM.)
);
#195=MASS_MEASURE_WITH_UNIT(MASS_MEASURE(0.001),#194);
#196=DERIVED_UNIT((#190,#191));
#197=MEASURE_REPRESENTATION_ITEM('density measure',
POSITIVE_RATIO_MEASURE(1.),#196);
#198=PROPERTY_DEFINITION_REPRESENTATION(#203,#200);
#199=PROPERTY_DEFINITION_REPRESENTATION(#204,#201);
#200=REPRESENTATION('material name',(#202),#1018);
#201=REPRESENTATION('density',(#197),#1018);
#202=DESCRIPTIVE_REPRESENTATION_ITEM('Gen\X\E9rico','Gen\X\E9rico');
#203=PROPERTY_DEFINITION('material property','material name',#1028);
#204=PROPERTY_DEFINITION('material property','density of part',#1028);
#205=DATE_TIME_ROLE('creation_date');
#206=APPLIED_DATE_AND_TIME_ASSIGNMENT(#207,#205,(#1028));
#207=DATE_AND_TIME(#208,#209);
#208=CALENDAR_DATE(2025,3,12);
#209=LOCAL_TIME(0,0,0.,#210);
#210=COORDINATED_UNIVERSAL_TIME_OFFSET(0,0,.BEHIND.);
#211=AXIS2_PLACEMENT_3D('',#264,#225,#226);
#212=AXIS2_PLACEMENT_3D('',#265,#227,#228);
#213=AXIS2_PLACEMENT_3D('',#301,#230,#231);
#214=AXIS2_PLACEMENT_3D('',#302,#232,#233);
#215=AXIS2_PLACEMENT_3D('',#349,#235,#236);
#216=AXIS2_PLACEMENT_3D('',#365,#238,#239);
#217=AXIS2_PLACEMENT_3D('',#370,#241,#242);
#218=AXIS2_PLACEMENT_3D('',#445,#243,#244);
#219=AXIS2_PLACEMENT_3D('',#1010,#252,#253);
#220=AXIS2_PLACEMENT_3D('',#1011,#254,#255);
#221=AXIS2_PLACEMENT_3D('',#1012,#256,#257);
#222=AXIS2_PLACEMENT_3D('',#1013,#258,#259);
#223=AXIS2_PLACEMENT_3D('',#1014,#260,#261);
#224=AXIS2_PLACEMENT_3D('',#1015,#262,#263);
#225=DIRECTION('axis',(0.,0.,1.));
#226=DIRECTION('refdir',(1.,0.,0.));
#227=DIRECTION('center_axis',(0.,1.,0.));
#228=DIRECTION('ref_axis',(-1.,0.,0.));
#229=DIRECTION('',(0.,-1.,0.));
#230=DIRECTION('center_axis',(0.,1.,0.));
#231=DIRECTION('ref_axis',(-1.,0.,0.));
#232=DIRECTION('center_axis',(0.,1.,0.));
#233=DIRECTION('ref_axis',(-1.,0.,0.));
#234=DIRECTION('',(0.,-1.,0.));
#235=DIRECTION('center_axis',(0.,1.,0.));
#236=DIRECTION('ref_axis',(-1.,0.,0.));
#237=DIRECTION('',(0.,1.,0.));
#238=DIRECTION('center_axis',(0.,1.,0.));
#239=DIRECTION('ref_axis',(-1.,0.,0.));
#240=DIRECTION('',(0.,-1.,0.));
#241=DIRECTION('center_axis',(0.,1.,0.));
#242=DIRECTION('ref_axis',(-1.,0.,0.));
#243=DIRECTION('center_axis',(0.,1.,0.));
#244=DIRECTION('ref_axis',(-1.,0.,0.));
#245=DIRECTION('',(1.38777878078145E-17,1.,-5.55111512312578E-17));
#246=DIRECTION('',(0.,0.,-1.));
#247=DIRECTION('',(-0.971631732914674,2.77555756156289E-17,-0.236498997023723));
#248=DIRECTION('',(0.,1.,0.));
#249=DIRECTION('',(-1.38777878078145E-17,-1.,5.55111512312578E-17));
#250=DIRECTION('',(0.,0.,1.));
#251=DIRECTION('',(0.971631732914674,-2.77555756156289E-17,0.236498997023723));
#252=DIRECTION('center_axis',(-0.236498997023723,-5.55111512312578E-17,
0.971631732914674));
#253=DIRECTION('ref_axis',(0.971631732914674,-2.77555756156289E-17,0.236498997023723));
#254=DIRECTION('center_axis',(1.,0.,0.));
#255=DIRECTION('ref_axis',(0.,0.,-1.));
#256=DIRECTION('center_axis',(0.,1.,0.));
#257=DIRECTION('ref_axis',(-1.,0.,0.));
#258=DIRECTION('center_axis',(0.,1.,0.));
#259=DIRECTION('ref_axis',(-1.,0.,0.));
#260=DIRECTION('center_axis',(0.,1.,0.));
#261=DIRECTION('ref_axis',(0.,0.,1.));
#262=DIRECTION('center_axis',(0.,1.,0.));
#263=DIRECTION('ref_axis',(0.,0.,1.));
#264=CARTESIAN_POINT('',(0.,0.,0.));
#265=CARTESIAN_POINT('Origin',(0.,0.,0.));
#266=CARTESIAN_POINT('',(15.5017091306128,37.5,0.000575867768787352));
#267=CARTESIAN_POINT('',(15.5,0.,-1.8982025386784E-15));
#268=CARTESIAN_POINT('',(15.5,0.,-1.8982025386784E-15));
#269=CARTESIAN_POINT('',(0.,0.,-15.5));
#270=CARTESIAN_POINT('Ctrl Pts',(15.5017091306128,37.5,0.000575867768787352));
#271=CARTESIAN_POINT('Ctrl Pts',(15.5020913966253,37.1968253968254,0.591212756726706));
#272=CARTESIAN_POINT('Ctrl Pts',(15.468582527987,36.8936507936508,1.1817729629779));
#273=CARTESIAN_POINT('Ctrl Pts',(15.4008512210957,36.5904761904762,1.76829509414501));
#274=CARTESIAN_POINT('Ctrl Pts',(15.0802800094216,35.1555555555556,4.5442951285695));
#275=CARTESIAN_POINT('Ctrl Pts',(13.9930871563632,33.7206349206349,7.22983767641412));
#276=CARTESIAN_POINT('Ctrl Pts',(12.2917694010007,32.2857142857143,9.44595318198509));
#277=CARTESIAN_POINT('Ctrl Pts',(11.0157810844788,31.2095238095238,11.1080398111633));
#278=CARTESIAN_POINT('Ctrl Pts',(9.39434751041092,30.1333333333333,12.5060737290626));
#279=CARTESIAN_POINT('Ctrl Pts',(7.56417590846455,29.0571428571429,13.5288586333325));
#280=CARTESIAN_POINT('Ctrl Pts',(5.73400430651818,27.9809523809524,14.5516435376023));
#281=CARTESIAN_POINT('Ctrl Pts',(3.69509467669334,26.9047619047619,15.1991794282426));
#282=CARTESIAN_POINT('Ctrl Pts',(1.61114793479297,25.8285714285714,15.4168943600593));
#283=CARTESIAN_POINT('Ctrl Pts',(-0.472798807107385,24.752380952381,15.634609291876));
#284=CARTESIAN_POINT('Ctrl Pts',(-2.6017826610833,23.6761904761905,15.4225032648689));
#285=CARTESIAN_POINT('Ctrl Pts',(-4.60395182483983,22.6,14.8004508640211));
#286=CARTESIAN_POINT('Ctrl Pts',(-6.60612098859637,21.5238095238095,14.1783984631732));
#287=CARTESIAN_POINT('Ctrl Pts',(-8.48147546213355,20.447619047619,13.1463996884845));
#288=CARTESIAN_POINT('Ctrl Pts',(-10.0730562175475,19.3714285714286,11.7834201124836));
#289=CARTESIAN_POINT('Ctrl Pts',(-12.4604273506685,17.7571428571429,9.73895074848241));
#290=CARTESIAN_POINT('Ctrl Pts',(-14.2093076180123,16.1428571428571,6.94977458152891));
#291=CARTESIAN_POINT('Ctrl Pts',(-15.0022736685375,14.5285714285714,3.90981008914517));
#292=CARTESIAN_POINT('Ctrl Pts',(-15.7952397190628,12.9142857142857,0.869845596761434));
#293=CARTESIAN_POINT('Ctrl Pts',(-15.6322915527694,11.3,-2.42090722105254));
#294=CARTESIAN_POINT('Ctrl Pts',(-14.5436262397009,9.68571428571428,-5.36930256961119));
#295=CARTESIAN_POINT('Ctrl Pts',(-13.4549609266324,8.07142857142857,-8.31769791816984));
#296=CARTESIAN_POINT('Ctrl Pts',(-11.4405784667888,6.45714285714285,-10.9237357974732));
#297=CARTESIAN_POINT('Ctrl Pts',(-8.8629095969539,4.84285714285714,-12.7193113179307));
#298=CARTESIAN_POINT('Ctrl Pts',(-6.28524072711901,3.22857142857143,-14.5148868383882));
#299=CARTESIAN_POINT('Ctrl Pts',(-3.14428544729287,1.61428571428572,-15.5));
#300=CARTESIAN_POINT('Ctrl Pts',(0.,-5.55111512312578E-16,-15.5));
#301=CARTESIAN_POINT('Origin',(0.,0.,0.));
#302=CARTESIAN_POINT('Origin',(0.,0.,0.));
#303=CARTESIAN_POINT('',(15.5002604362526,87.5,-0.000115935813239802));
#304=CARTESIAN_POINT('',(15.501710521551,40.5,0.000575747149550165));
#305=CARTESIAN_POINT('',(15.5,0.,-1.8982025386784E-15));
#306=CARTESIAN_POINT('Ctrl Pts',(15.5002604362526,87.5,-0.000115935813239802));
#307=CARTESIAN_POINT('Ctrl Pts',(15.500333909911,87.3904761904762,0.213208221277907));
#308=CARTESIAN_POINT('Ctrl Pts',(15.4959784520281,87.2809523809524,0.426534514633024));
#309=CARTESIAN_POINT('Ctrl Pts',(15.4871653931071,87.1714285714286,0.639683221308619));
#310=CARTESIAN_POINT('Ctrl Pts',(15.4005675097963,86.0952380952381,2.73410094777331));
#311=CARTESIAN_POINT('Ctrl Pts',(14.883579398459,85.0190476190476,4.81137232784246));
#312=CARTESIAN_POINT('Ctrl Pts',(13.977541742583,83.9428571428571,6.7009253820274));
#313=CARTESIAN_POINT('Ctrl Pts',(13.0715040867069,82.8666666666666,8.59047843621235));
#314=CARTESIAN_POINT('Ctrl Pts',(11.776416886292,81.7904761904762,10.2923131645131));
#315=CARTESIAN_POINT('Ctrl Pts',(10.1982161811944,80.7142857142857,11.6723565550145));
#316=CARTESIAN_POINT('Ctrl Pts',(8.6200154760968,79.6380952380952,13.052399945516));
#317=CARTESIAN_POINT('Ctrl Pts',(6.75870126631642,78.5619047619048,14.1106519982181));
#318=CARTESIAN_POINT('Ctrl Pts',(4.76412108746455,77.4857142857143,14.7530505425638));
#319=CARTESIAN_POINT('Ctrl Pts',(1.77225081918675,75.8714285714286,15.7166483590824));
#320=CARTESIAN_POINT('Ctrl Pts',(-1.51946787950191,74.2571428571429,15.7445757817992));
#321=CARTESIAN_POINT('Ctrl Pts',(-4.52460257547733,72.6428571428571,14.827716674539));
#322=CARTESIAN_POINT('Ctrl Pts',(-7.52973727145275,71.0285714285714,13.9108575672789));
#323=CARTESIAN_POINT('Ctrl Pts',(-10.2482879647149,69.4142857142857,12.0492119300419));
#324=CARTESIAN_POINT('Ctrl Pts',(-12.1900992708005,67.8,9.57823527840695));
#325=CARTESIAN_POINT('Ctrl Pts',(-14.1319105768861,66.1857142857143,7.10725862677205));
#326=CARTESIAN_POINT('Ctrl Pts',(-15.2969824957951,64.5714285714286,4.02695096073928));
#327=CARTESIAN_POINT('Ctrl Pts',(-15.4773406151604,62.9571428571429,0.89006841502494));
#328=CARTESIAN_POINT('Ctrl Pts',(-15.6576987345257,61.3428571428571,-2.2468141306894));
#329=CARTESIAN_POINT('Ctrl Pts',(-14.8533430543473,59.7285714285714,-5.44027155608531));
#330=CARTESIAN_POINT('Ctrl Pts',(-13.2077771053732,58.1142857142857,-8.11784708660116));
#331=CARTESIAN_POINT('Ctrl Pts',(-11.5622111563991,56.5,-10.795422617117));
#332=CARTESIAN_POINT('Ctrl Pts',(-9.07543493862922,54.8857142857143,-12.9571162527528));
#333=CARTESIAN_POINT('Ctrl Pts',(-6.19508881139977,53.2714285714286,-14.2119111726977));
#334=CARTESIAN_POINT('Ctrl Pts',(-3.31474268417032,51.6571428571429,-15.4667060926426));
#335=CARTESIAN_POINT('Ctrl Pts',(-0.0408266474812535,50.0428571428572,-15.8146022968965));
#336=CARTESIAN_POINT('Ctrl Pts',(3.04159945793889,48.4285714285715,-15.2005901614805));
#337=CARTESIAN_POINT('Ctrl Pts',(5.09655019488565,47.352380952381,-14.7912487378698));
#338=CARTESIAN_POINT('Ctrl Pts',(7.06639429571289,46.2761904761905,-13.954392496628));
#339=CARTESIAN_POINT('Ctrl Pts',(8.79270774039274,45.2,-12.7646812702329));
#340=CARTESIAN_POINT('Ctrl Pts',(10.5190211850726,44.1238095238095,-11.5749700438379));
#341=CARTESIAN_POINT('Ctrl Pts',(12.001803973605,43.0476190476191,-10.0324038322896));
#342=CARTESIAN_POINT('Ctrl Pts',(13.1178439091567,41.9714285714286,-8.25919634047842));
#343=CARTESIAN_POINT('Ctrl Pts',(14.2338838447084,40.8952380952381,-6.4859888486672));
#344=CARTESIAN_POINT('Ctrl Pts',(14.9831809272794,39.8190476190476,-4.48214007659305));
#345=CARTESIAN_POINT('Ctrl Pts',(15.3111325843659,38.7428571428572,-2.41104761779189));
#346=CARTESIAN_POINT('Ctrl Pts',(15.437379461209,38.3285714285714,-1.61376866241267));
#347=CARTESIAN_POINT('Ctrl Pts',(15.5011867671089,37.9142857142857,-0.806524802482646));
#348=CARTESIAN_POINT('Ctrl Pts',(15.5017091306128,37.5,0.000575867768787352));
#349=CARTESIAN_POINT('Origin',(0.,0.,0.));
#350=CARTESIAN_POINT('',(0.,3.,-15.5));
#351=CARTESIAN_POINT('',(0.,0.,-15.5));
#352=CARTESIAN_POINT('Ctrl Pts',(0.,3.,-15.5));
#353=CARTESIAN_POINT('Ctrl Pts',(-3.14428544729287,4.61428571428571,-15.5));
#354=CARTESIAN_POINT('Ctrl Pts',(-9.42619646281866,7.84285714285714,-13.5297596070676));
#355=CARTESIAN_POINT('Ctrl Pts',(-15.4693446018345,12.6857142857143,-5.71166352804295));
#356=CARTESIAN_POINT('Ctrl Pts',(-15.9581873350077,17.5285714285714,4.16060031817271));
#357=CARTESIAN_POINT('Ctrl Pts',(-11.2945050211015,21.8333333333333,11.5983974774368));
#358=CARTESIAN_POINT('Ctrl Pts',(-4.73076958496948,25.6,15.2104028193662));
#359=CARTESIAN_POINT('Ctrl Pts',(1.65618628757467,28.8285714285714,15.8467117655055));
#360=CARTESIAN_POINT('Ctrl Pts',(7.77291418837287,32.0571428571429,13.9041071435232));
#361=CARTESIAN_POINT('Ctrl Pts',(13.1776909275686,35.6444444444444,9.24399536471935));
#362=CARTESIAN_POINT('Ctrl Pts',(15.3099840091177,38.4587301587302,3.97688590342585));
#363=CARTESIAN_POINT('Ctrl Pts',(15.5020923812198,40.1968253968254,0.591212768694731));
#364=CARTESIAN_POINT('Ctrl Pts',(15.501710521551,40.5,0.000575747149550235));
#365=CARTESIAN_POINT('Origin',(0.,0.,0.));
#366=CARTESIAN_POINT('',(15.5,135.6,-1.8982025386784E-15));
#367=CARTESIAN_POINT('',(15.5002596292977,90.5,-0.000115082172900821));
#368=CARTESIAN_POINT('',(15.5,0.,-1.8982025386784E-15));
#369=CARTESIAN_POINT('',(15.0602918601775,135.6,3.66573445386771));
#370=CARTESIAN_POINT('Origin',(0.,135.6,0.));
#371=CARTESIAN_POINT('Ctrl Pts',(15.0602918601775,135.6,3.66573445386771));
#372=CARTESIAN_POINT('Ctrl Pts',(14.3166715055364,133.985714285714,6.72082197179927));
#373=CARTESIAN_POINT('Ctrl Pts',(12.6171487800391,132.371428571429,9.53970554776761));
#374=CARTESIAN_POINT('Ctrl Pts',(10.2626776224944,130.757142857143,11.6195942204998));
#375=CARTESIAN_POINT('Ctrl Pts',(7.9082064649497,129.142857142857,13.6994828932319));
#376=CARTESIAN_POINT('Ctrl Pts',(4.8987868753575,127.528571428571,15.0403766627279));
#377=CARTESIAN_POINT('Ctrl Pts',(1.7770022430864,125.914285714286,15.4008755393522));
#378=CARTESIAN_POINT('Ctrl Pts',(-1.3447823891847,124.3,15.7613744159765));
#379=CARTESIAN_POINT('Ctrl Pts',(-4.5789320641347,122.685714285714,15.1414783997292));
#380=CARTESIAN_POINT('Ctrl Pts',(-7.34619745500656,121.071428571429,13.6520710409336));
#381=CARTESIAN_POINT('Ctrl Pts',(-10.1134628458784,119.457142857143,12.162663682138));
#382=CARTESIAN_POINT('Ctrl Pts',(-12.4138439526721,117.842857142857,9.80374498079417));
#383=CARTESIAN_POINT('Ctrl Pts',(-13.8331663457103,116.228571428571,7.00057680492435));
#384=CARTESIAN_POINT('Ctrl Pts',(-15.0947862506332,114.793650793651,4.50887175970674));
#385=CARTESIAN_POINT('Ctrl Pts',(-15.6602609990084,113.35873015873,1.66615478399949));
#386=CARTESIAN_POINT('Ctrl Pts',(-15.4601625982203,111.92380952381,-1.12155806167074));
#387=CARTESIAN_POINT('Ctrl Pts',(-15.3601133978262,111.206349206349,-2.51541448450585));
#388=CARTESIAN_POINT('Ctrl Pts',(-15.0686709101413,110.488888888889,-3.89551987483171));
#389=CARTESIAN_POINT('Ctrl Pts',(-14.5979886242011,109.771428571429,-5.21133865517177));
#390=CARTESIAN_POINT('Ctrl Pts',(-13.8919651952908,108.695238095238,-7.18506682568186));
#391=CARTESIAN_POINT('Ctrl Pts',(-12.7826522203061,107.619047619048,-9.0141501237239));
#392=CARTESIAN_POINT('Ctrl Pts',(-11.3564827840506,106.542857142857,-10.5497548689526));
#393=CARTESIAN_POINT('Ctrl Pts',(-9.93031334779513,105.466666666667,-12.0853596141813));
#394=CARTESIAN_POINT('Ctrl Pts',(-8.18728745026885,104.390476190476,-13.3274858065967));
#395=CARTESIAN_POINT('Ctrl Pts',(-6.27039864112796,103.314285714286,-14.1754212165579));
#396=CARTESIAN_POINT('Ctrl Pts',(-4.35350983198706,102.238095238095,-15.0233566265191));
#397=CARTESIAN_POINT('Ctrl Pts',(-2.26275811123154,101.161904761905,-15.4771012540261));
#398=CARTESIAN_POINT('Ctrl Pts',(-0.167029574872812,100.085714285714,-15.4996877015998));
#399=CARTESIAN_POINT('Ctrl Pts',(1.92869896148591,99.0095238095238,-15.5222741491735));
#400=CARTESIAN_POINT('Ctrl Pts',(4.02940431344785,97.9333333333333,-15.1137024168139));
#401=CARTESIAN_POINT('Ctrl Pts',(5.96401496953656,96.8571428571429,-14.3072920366587));
#402=CARTESIAN_POINT('Ctrl Pts',(7.89862562562527,95.7809523809524,-13.5008816565034));
#403=CARTESIAN_POINT('Ctrl Pts',(9.66714158584075,94.7047619047619,-12.2966326285524));
#404=CARTESIAN_POINT('Ctrl Pts',(11.1264864061036,93.6285714285714,-10.7920879562895));
#405=CARTESIAN_POINT('Ctrl Pts',(12.5858312263664,92.552380952381,-9.2875432840265));
#406=CARTESIAN_POINT('Ctrl Pts',(13.7360049066767,91.4761904761905,-7.48270296745152));
#407=CARTESIAN_POINT('Ctrl Pts',(14.4829879191895,90.4,-5.52450077273392));
#408=CARTESIAN_POINT('Ctrl Pts',(15.1539505366237,89.4333333333334,-3.76558464208048));
#409=CARTESIAN_POINT('Ctrl Pts',(15.4996119513548,88.4666666666667,-1.88293349622656));
#410=CARTESIAN_POINT('Ctrl Pts',(15.5002604362526,87.5,-0.000115935813239802));
#411=CARTESIAN_POINT('Ctrl Pts',(15.501710521551,40.5,0.000575747149550235));
#412=CARTESIAN_POINT('Ctrl Pts',(15.5011887133124,40.9142857142857,-0.806525104281358));
#413=CARTESIAN_POINT('Ctrl Pts',(15.271630829609,42.4047619047619,-3.71074793292468));
#414=CARTESIAN_POINT('Ctrl Pts',(13.4845851637407,44.9714285714286,-8.48983866554477));
#415=CARTESIAN_POINT('Ctrl Pts',(9.03623867179823,48.2,-13.1175385566825));
#416=CARTESIAN_POINT('Ctrl Pts',(2.14178496506547,51.9666666666667,-16.0465281971854));
#417=CARTESIAN_POINT('Ctrl Pts',(-6.58865958462861,56.2714285714285,-15.1188086809012));
#418=CARTESIAN_POINT('Ctrl Pts',(-14.04898676455,61.1142857142858,-8.63372994039994));
#419=CARTESIAN_POINT('Ctrl Pts',(-16.4620569996736,65.9571428571428,0.94664295371187));
#420=CARTESIAN_POINT('Ctrl Pts',(-12.9668361245122,70.8,10.187563964583));
#421=CARTESIAN_POINT('Ctrl Pts',(-4.81118940704801,75.6428571428572,15.7724835774798));
#422=CARTESIAN_POINT('Ctrl Pts',(3.96673047088581,79.9476190476191,15.698041815617));
#423=CARTESIAN_POINT('Ctrl Pts',(10.4813312914049,83.7142857142857,11.9941555636945));
#424=CARTESIAN_POINT('Ctrl Pts',(14.366588529577,86.9428571428572,6.88864460222744));
#425=CARTESIAN_POINT('Ctrl Pts',(15.4531791948465,89.2047619047619,2.52269849414523));
#426=CARTESIAN_POINT('Ctrl Pts',(15.500332984356,90.3904761904762,0.21320911364793));
#427=CARTESIAN_POINT('Ctrl Pts',(15.5002596292977,90.4999999999999,-0.000115082172900786));
#428=CARTESIAN_POINT('Ctrl Pts',(12.6532583861163,132.6,8.9523769030452));
#429=CARTESIAN_POINT('Ctrl Pts',(13.7782472465473,133.6,7.36232155945332));
#430=CARTESIAN_POINT('Ctrl Pts',(14.5996420829662,134.6,5.5582665446218));
#431=CARTESIAN_POINT('Ctrl Pts',(15.0602918601775,135.6,3.66573445386771));
#432=CARTESIAN_POINT('Ctrl Pts',(12.6532583861163,133.6,8.9523769030452));
#433=CARTESIAN_POINT('Ctrl Pts',(13.7782472465473,134.6,7.36232155945332));
#434=CARTESIAN_POINT('Ctrl Pts',(14.5996420829662,135.6,5.5582665446218));
#435=CARTESIAN_POINT('Ctrl Pts',(15.0602918601775,136.6,3.66573445386771));
#436=CARTESIAN_POINT('Ctrl Pts',(12.6532583861163,134.6,8.9523769030452));
#437=CARTESIAN_POINT('Ctrl Pts',(13.7782472465473,135.6,7.36232155945332));
#438=CARTESIAN_POINT('Ctrl Pts',(14.5996420829662,136.6,5.5582665446218));
#439=CARTESIAN_POINT('Ctrl Pts',(15.0602918601775,137.6,3.66573445386771));
#440=CARTESIAN_POINT('Ctrl Pts',(12.6532583861163,135.6,8.9523769030452));
#441=CARTESIAN_POINT('Ctrl Pts',(13.7782472465473,136.6,7.36232155945332));
#442=CARTESIAN_POINT('Ctrl Pts',(14.5996420829662,137.6,5.5582665446218));
#443=CARTESIAN_POINT('Ctrl Pts',(15.0602918601775,138.6,3.66573445386771));
#444=CARTESIAN_POINT('',(12.6532583861163,135.6,8.9523769030452));
#445=CARTESIAN_POINT('Origin',(0.,135.6,0.));
#446=CARTESIAN_POINT('',(15.0602918601775,138.6,3.66573445386771));
#447=CARTESIAN_POINT('Ctrl Pts',(12.6532583861163,135.6,8.9523769030452));
#448=CARTESIAN_POINT('Ctrl Pts',(13.7782472465473,136.6,7.36232155945332));
#449=CARTESIAN_POINT('Ctrl Pts',(14.5996420829662,137.6,5.5582665446218));
#450=CARTESIAN_POINT('Ctrl Pts',(15.0602918601775,138.6,3.66573445386771));
#451=CARTESIAN_POINT('',(15.0602918601775,271.2,3.6657344538677));
#452=CARTESIAN_POINT('Ctrl Pts',(0.,-1.11022302462516E-15,-18.4));
#453=CARTESIAN_POINT('Ctrl Pts',(-3.73257111162509,1.61428571428571,-18.4));
#454=CARTESIAN_POINT('Ctrl Pts',(-11.1898068727607,4.84285714285714,-16.0611506872701));
#455=CARTESIAN_POINT('Ctrl Pts',(-18.3636076329781,9.68571428571428,-6.78029320742865));
#456=CARTESIAN_POINT('Ctrl Pts',(-18.9439133606808,14.5285714285714,4.93903295665727));
#457=CARTESIAN_POINT('Ctrl Pts',(-13.4076730305086,18.8333333333333,13.768425037852));
#458=CARTESIAN_POINT('Ctrl Pts',(-5.61587766948961,22.6,18.0562134952683));
#459=CARTESIAN_POINT('Ctrl Pts',(1.96605192660519,25.8285714285714,18.8115846366095));
#460=CARTESIAN_POINT('Ctrl Pts',(9.22720105991687,29.0571428571429,16.5055213357483));
#461=CARTESIAN_POINT('Ctrl Pts',(15.6431962777339,32.6444444444445,10.9735161552436));
#462=CARTESIAN_POINT('Ctrl Pts',(18.5470533175159,35.8730158730159,3.80051864035536));
#463=CARTESIAN_POINT('Ctrl Pts',(18.3794778456867,39.1015873015873,-3.73489241753993));
#464=CARTESIAN_POINT('Ctrl Pts',(16.0075094466665,41.9714285714286,-10.0782588530091));
#465=CARTESIAN_POINT('Ctrl Pts',(10.7268894513767,45.2,-15.5717849741358));
#466=CARTESIAN_POINT('Ctrl Pts',(2.54250492922995,48.9666666666667,-19.0487876796825));
#467=CARTESIAN_POINT('Ctrl Pts',(-7.82137551379436,53.2714285714286,-17.9474904481516));
#468=CARTESIAN_POINT('Ctrl Pts',(-16.6775075925618,58.1142857142857,-10.2490718231777));
#469=CARTESIAN_POINT('Ctrl Pts',(-19.542051692294,62.9571428571429,1.12375720145805));
#470=CARTESIAN_POINT('Ctrl Pts',(-15.3928923423728,67.8,12.0936270830715));
#471=CARTESIAN_POINT('Ctrl Pts',(-5.71134406701333,72.6428571428571,18.7234876750383));
#472=CARTESIAN_POINT('Ctrl Pts',(4.70889232969573,76.9476190476191,18.635080865922));
#473=CARTESIAN_POINT('Ctrl Pts',(12.4423526593639,80.7142857142857,14.2382142727597));
#474=CARTESIAN_POINT('Ctrl Pts',(17.0545341730994,83.9428571428571,8.17748672423056));
#475=CARTESIAN_POINT('Ctrl Pts',(18.895678930894,87.1714285714286,0.779720261016529));
#476=CARTESIAN_POINT('Ctrl Pts',(17.6713345806812,90.4,-6.74017243716958));
#477=CARTESIAN_POINT('Ctrl Pts',(13.5752321837055,93.6285714285714,-13.1677327903914));
#478=CARTESIAN_POINT('Ctrl Pts',(7.27703340926064,96.8571428571428,-17.4564131996103));
#479=CARTESIAN_POINT('Ctrl Pts',(-0.204188231274779,100.085714285714,-18.9114557561424));
#480=CARTESIAN_POINT('Ctrl Pts',(-7.6499621013202,103.314285714286,-17.2955394052789));
#481=CARTESIAN_POINT('Ctrl Pts',(-13.857383362188,106.542857142857,-12.871967416806));
#482=CARTESIAN_POINT('Ctrl Pts',(-17.3690149733224,109.412698412698,-7.081837062574));
#483=CARTESIAN_POINT('Ctrl Pts',(-18.925881939794,112.64126984127,0.290596893489282));
#484=CARTESIAN_POINT('Ctrl Pts',(-17.1637896593731,116.407936507937,9.1488697919835));
#485=CARTESIAN_POINT('Ctrl Pts',(-9.27488412897797,121.071428571429,17.2385236036172));
#486=CARTESIAN_POINT('Ctrl Pts',(2.2428618101988,125.914285714286,19.4461532872851));
#487=CARTESIAN_POINT('Ctrl Pts',(12.9602786711981,130.757142857143,14.6708412823704));
#488=CARTESIAN_POINT('Ctrl Pts',(16.995274561411,133.985714285714,7.97826608265204));
#489=CARTESIAN_POINT('Ctrl Pts',(17.87802388563,135.6,4.3515815452365));
#490=CARTESIAN_POINT('Ctrl Pts',(-5.36607795235492E-17,-1.11022302462516E-15,
-17.4333333333333));
#491=CARTESIAN_POINT('Ctrl Pts',(-3.53647589018101,1.61428571428571,-17.4333333333333));
#492=CARTESIAN_POINT('Ctrl Pts',(-10.6019365841555,4.84285714285714,-15.2173583504389));
#493=CARTESIAN_POINT('Ctrl Pts',(-17.3988528841441,9.68571428571429,-6.42408215124127));
#494=CARTESIAN_POINT('Ctrl Pts',(-17.9486715355726,14.5285714285714,4.67955477596331));
#495=CARTESIAN_POINT('Ctrl Pts',(-12.7032844111522,18.8333333333333,13.0450838673851));
#496=CARTESIAN_POINT('Ctrl Pts',(-5.32084061801279,22.6,17.1076080761328));
#497=CARTESIAN_POINT('Ctrl Pts',(1.86276296669295,25.8285714285714,17.823294864034));
#498=CARTESIAN_POINT('Ctrl Pts',(8.74243868539226,29.0571428571429,15.6383834394862));
#499=CARTESIAN_POINT('Ctrl Pts',(14.8213616906791,32.6444444444445,10.3970089659283));
#500=CARTESIAN_POINT('Ctrl Pts',(17.5726610236609,35.8730158730159,3.60085371178597));
#501=CARTESIAN_POINT('Ctrl Pts',(17.4138893356778,39.1015873015873,-3.53867524343004));
#502=CARTESIAN_POINT('Ctrl Pts',(15.1665352184901,41.9714285714286,-9.54878510891982));
#503=CARTESIAN_POINT('Ctrl Pts',(10.1633390997645,45.2,-14.7537020678859));
#504=CARTESIAN_POINT('Ctrl Pts',(2.40893130070156,48.9666666666667,-18.0480361530325));
#505=CARTESIAN_POINT('Ctrl Pts',(-7.41046991614937,53.2714285714286,-17.0045969282306));
#506=CARTESIAN_POINT('Ctrl Pts',(-15.8013341864308,58.1142857142857,-9.71062420927886));
#507=CARTESIAN_POINT('Ctrl Pts',(-18.5153859330974,62.9571428571429,1.06471923254086));
#508=CARTESIAN_POINT('Ctrl Pts',(-14.5842077809076,67.8,11.458273486316));
#509=CARTESIAN_POINT('Ctrl Pts',(-5.41129157073908,72.6428571428571,17.7398261848641));
#510=CARTESIAN_POINT('Ctrl Pts',(4.46150487034577,76.9476190476191,17.6560639363718));
#511=CARTESIAN_POINT('Ctrl Pts',(11.7886783348683,80.7142857142857,13.4901921461111));
#512=CARTESIAN_POINT('Ctrl Pts',(16.1585532111069,83.9428571428571,7.74787238545757));
#513=CARTESIAN_POINT('Ctrl Pts',(17.9029711609738,87.1714285714286,0.738756696579066));
#514=CARTESIAN_POINT('Ctrl Pts',(16.7429492494498,90.4,-6.3860691750719));
#515=CARTESIAN_POINT('Ctrl Pts',(12.8620406378224,93.6285714285714,-12.4759497271281));
#516=CARTESIAN_POINT('Ctrl Pts',(6.89472549464369,96.8571428571428,-16.5393190278917));
#517=CARTESIAN_POINT('Ctrl Pts',(-0.193460951008535,100.085714285714,-17.9179191312726));
#518=CARTESIAN_POINT('Ctrl Pts',(-7.24806191846098,103.314285714286,-16.3868969365233));
#519=CARTESIAN_POINT('Ctrl Pts',(-13.1293686565658,106.542857142857,-12.1957227517927));
#520=CARTESIAN_POINT('Ctrl Pts',(-16.4565123750862,109.412698412698,-6.70978402848949));
#521=CARTESIAN_POINT('Ctrl Pts',(-17.9315874175947,112.64126984127,0.275330027708138));
#522=CARTESIAN_POINT('Ctrl Pts',(-16.262068825819,116.407936507937,8.6682226471148));
#523=CARTESIAN_POINT('Ctrl Pts',(-8.78761666568021,121.071428571429,16.3328765302388));
#524=CARTESIAN_POINT('Ctrl Pts',(2.1250303020543,125.914285714286,18.4245256689314));
#525=CARTESIAN_POINT('Ctrl Pts',(12.279394465646,130.757142857143,13.9000905628256));
#526=CARTESIAN_POINT('Ctrl Pts',(16.1024068761194,133.985714285714,7.55911804570111));
#527=CARTESIAN_POINT('Ctrl Pts',(16.9387798771458,135.6,4.12296584811357));
#528=CARTESIAN_POINT('Ctrl Pts',(5.36607795235492E-17,-5.55111512312578E-16,
-16.4666666666667));
#529=CARTESIAN_POINT('Ctrl Pts',(-3.34038066873695,1.61428571428572,-16.4666666666667));
#530=CARTESIAN_POINT('Ctrl Pts',(-10.0140662955503,4.84285714285714,-14.3735660136077));
#531=CARTESIAN_POINT('Ctrl Pts',(-16.4340981353101,9.68571428571428,-6.0678710950539));
#532=CARTESIAN_POINT('Ctrl Pts',(-16.9534297104643,14.5285714285714,4.42007659526937));
#533=CARTESIAN_POINT('Ctrl Pts',(-11.9988957917958,18.8333333333333,12.3217426969183));
#534=CARTESIAN_POINT('Ctrl Pts',(-5.02580356653599,22.6,16.1590026569974));
#535=CARTESIAN_POINT('Ctrl Pts',(1.75947400678073,25.8285714285714,16.8350050914585));
#536=CARTESIAN_POINT('Ctrl Pts',(8.25767631086763,29.0571428571429,14.7712455432241));
#537=CARTESIAN_POINT('Ctrl Pts',(13.9995271036242,32.6444444444445,9.82050177661293));
#538=CARTESIAN_POINT('Ctrl Pts',(16.5982687298058,35.8730158730159,3.40118878321657));
#539=CARTESIAN_POINT('Ctrl Pts',(16.4483008256689,39.1015873015873,-3.34245806932016));
#540=CARTESIAN_POINT('Ctrl Pts',(14.3255609903138,41.9714285714286,-9.01931136483057));
#541=CARTESIAN_POINT('Ctrl Pts',(9.5997887481523,45.2,-13.9356191616361));
#542=CARTESIAN_POINT('Ctrl Pts',(2.27535767217317,48.9666666666667,-17.0472846263825));
#543=CARTESIAN_POINT('Ctrl Pts',(-6.99956431850437,53.2714285714286,-16.0617034083096));
#544=CARTESIAN_POINT('Ctrl Pts',(-14.9251607802999,58.1142857142857,-9.17217659538004));
#545=CARTESIAN_POINT('Ctrl Pts',(-17.4887201739008,62.9571428571429,1.00568126362369));
#546=CARTESIAN_POINT('Ctrl Pts',(-13.7755232194423,67.8,10.8229198895604));
#547=CARTESIAN_POINT('Ctrl Pts',(-5.11123907446482,72.6428571428571,16.75616469469));
#548=CARTESIAN_POINT('Ctrl Pts',(4.21411741099581,76.9476190476191,16.6770470068215));
#549=CARTESIAN_POINT('Ctrl Pts',(11.1350040103727,80.7142857142857,12.7421700194624));
#550=CARTESIAN_POINT('Ctrl Pts',(15.2625722491143,83.9428571428571,7.31825804668459));
#551=CARTESIAN_POINT('Ctrl Pts',(16.9102633910537,87.1714285714286,0.697793132141604));
#552=CARTESIAN_POINT('Ctrl Pts',(15.8145639182183,90.4,-6.03196591297423));
#553=CARTESIAN_POINT('Ctrl Pts',(12.1488490919393,93.6285714285714,-11.7841666638648));
#554=CARTESIAN_POINT('Ctrl Pts',(6.51241758002673,96.8571428571428,-15.622224856173));
#555=CARTESIAN_POINT('Ctrl Pts',(-0.182733670742283,100.085714285714,-16.9243825064028));
#556=CARTESIAN_POINT('Ctrl Pts',(-6.84616173560178,103.314285714286,-15.4782544677677));
#557=CARTESIAN_POINT('Ctrl Pts',(-12.4013539509436,106.542857142857,-11.5194780867793));
#558=CARTESIAN_POINT('Ctrl Pts',(-15.5440097768501,109.412698412698,-6.33773099440499));
#559=CARTESIAN_POINT('Ctrl Pts',(-16.9372928953954,112.64126984127,0.260063161927003));
#560=CARTESIAN_POINT('Ctrl Pts',(-15.360347992265,116.407936507937,8.1875755022461));
#561=CARTESIAN_POINT('Ctrl Pts',(-8.30034920238246,121.071428571429,15.4272294568604));
#562=CARTESIAN_POINT('Ctrl Pts',(2.00719879390979,125.914285714286,17.4028980505776));
#563=CARTESIAN_POINT('Ctrl Pts',(11.598510260094,130.757142857143,13.1293398432808));
#564=CARTESIAN_POINT('Ctrl Pts',(15.2095391908279,133.985714285714,7.1399700087502));
#565=CARTESIAN_POINT('Ctrl Pts',(15.9995358686616,135.6,3.89435015099064));
#566=CARTESIAN_POINT('Ctrl Pts',(0.,-5.55111512312578E-16,-15.5));
#567=CARTESIAN_POINT('Ctrl Pts',(-3.14428544729287,1.61428571428571,-15.5));
#568=CARTESIAN_POINT('Ctrl Pts',(-9.42619600694514,4.84285714285714,-13.5297736767765));
#569=CARTESIAN_POINT('Ctrl Pts',(-15.4693433864761,9.68571428571428,-5.71166003886653));
#570=CARTESIAN_POINT('Ctrl Pts',(-15.9581878853561,14.5285714285714,4.16059841457542));
#571=CARTESIAN_POINT('Ctrl Pts',(-11.2945071724393,18.8333333333333,11.5984015264514));
#572=CARTESIAN_POINT('Ctrl Pts',(-4.73076651505918,22.6,15.2103972378619));
#573=CARTESIAN_POINT('Ctrl Pts',(1.6561850468685,25.8285714285714,15.846715318883));
#574=CARTESIAN_POINT('Ctrl Pts',(7.77291393634302,29.0571428571429,13.9041076469619));
#575=CARTESIAN_POINT('Ctrl Pts',(13.1776925165693,32.6444444444445,9.24399458729759));
#576=CARTESIAN_POINT('Ctrl Pts',(15.6238764359509,35.8730158730159,3.20152385464718));
#577=CARTESIAN_POINT('Ctrl Pts',(15.48271231566,39.1015873015873,-3.14624089521027));
#578=CARTESIAN_POINT('Ctrl Pts',(13.4845867621375,41.9714285714286,-8.48983762074133));
#579=CARTESIAN_POINT('Ctrl Pts',(9.03623839654012,45.2,-13.1175362553862));
#580=CARTESIAN_POINT('Ctrl Pts',(2.14178404364479,48.9666666666667,-16.0465330997325));
#581=CARTESIAN_POINT('Ctrl Pts',(-6.58865872085938,53.2714285714286,-15.1188098883886));
#582=CARTESIAN_POINT('Ctrl Pts',(-14.0489873741689,58.1142857142857,-8.63372898148121));
#583=CARTESIAN_POINT('Ctrl Pts',(-16.4620544147042,62.9571428571429,0.946643294706508));
#584=CARTESIAN_POINT('Ctrl Pts',(-12.9668386579771,67.8,10.1875662928048));
#585=CARTESIAN_POINT('Ctrl Pts',(-4.81118657819057,72.6428571428571,15.7725032045159));
#586=CARTESIAN_POINT('Ctrl Pts',(3.96672995164585,76.9476190476191,15.6980300772713));
#587=CARTESIAN_POINT('Ctrl Pts',(10.4813296858772,80.7142857142857,11.9941478928138));
#588=CARTESIAN_POINT('Ctrl Pts',(14.3665912871218,83.9428571428571,6.88864370791161));
#589=CARTESIAN_POINT('Ctrl Pts',(15.9175556211335,87.1714285714286,0.656829567704145));
#590=CARTESIAN_POINT('Ctrl Pts',(14.8861785869869,90.4,-5.67786265087655));
#591=CARTESIAN_POINT('Ctrl Pts',(11.4356575460562,93.6285714285714,-11.0923836006015));
#592=CARTESIAN_POINT('Ctrl Pts',(6.13010966540978,96.8571428571428,-14.7051306844544));
#593=CARTESIAN_POINT('Ctrl Pts',(-0.172006390476036,100.085714285714,-15.930845881533));
#594=CARTESIAN_POINT('Ctrl Pts',(-6.44426155274256,103.314285714286,-14.5696119990121));
#595=CARTESIAN_POINT('Ctrl Pts',(-11.6733392453214,106.542857142857,-10.8432334217659));
#596=CARTESIAN_POINT('Ctrl Pts',(-14.6315071786139,109.412698412698,-5.96567796032049));
#597=CARTESIAN_POINT('Ctrl Pts',(-15.9429983731961,112.64126984127,0.244796296145863));
#598=CARTESIAN_POINT('Ctrl Pts',(-14.458627158711,116.407936507937,7.7069283573774));
#599=CARTESIAN_POINT('Ctrl Pts',(-7.8130817390847,121.071428571429,14.5215823834819));
#600=CARTESIAN_POINT('Ctrl Pts',(1.8893672857653,125.914285714286,16.3812704322239));
#601=CARTESIAN_POINT('Ctrl Pts',(10.9176260545419,130.757142857143,12.3585891237359));
#602=CARTESIAN_POINT('Ctrl Pts',(14.3166715055364,133.985714285714,6.72082197179927));
#603=CARTESIAN_POINT('Ctrl Pts',(15.0602918601775,135.6,3.66573445386771));
#604=CARTESIAN_POINT('',(0.,0.,-18.4));
#605=CARTESIAN_POINT('',(0.,0.,-15.5));
#606=CARTESIAN_POINT('',(17.87802388563,135.6,4.3515815452365));
#607=CARTESIAN_POINT('',(15.0602918601775,135.6,3.66573445386771));
#608=CARTESIAN_POINT('Ctrl Pts',(0.,-1.11022302462516E-15,-18.4));
#609=CARTESIAN_POINT('Ctrl Pts',(-3.73257111162509,1.61428571428571,-18.4));
#610=CARTESIAN_POINT('Ctrl Pts',(-11.1898068727607,4.84285714285714,-16.0611506872701));
#611=CARTESIAN_POINT('Ctrl Pts',(-18.3636076329781,9.68571428571428,-6.78029320742865));
#612=CARTESIAN_POINT('Ctrl Pts',(-18.9439133606808,14.5285714285714,4.93903295665727));
#613=CARTESIAN_POINT('Ctrl Pts',(-13.4076730305086,18.8333333333333,13.768425037852));
#614=CARTESIAN_POINT('Ctrl Pts',(-5.61587766948961,22.6,18.0562134952683));
#615=CARTESIAN_POINT('Ctrl Pts',(1.96605192660519,25.8285714285714,18.8115846366095));
#616=CARTESIAN_POINT('Ctrl Pts',(9.22720105991687,29.0571428571429,16.5055213357483));
#617=CARTESIAN_POINT('Ctrl Pts',(15.6431962777339,32.6444444444445,10.9735161552436));
#618=CARTESIAN_POINT('Ctrl Pts',(18.5470533175159,35.8730158730159,3.80051864035536));
#619=CARTESIAN_POINT('Ctrl Pts',(18.3794778456867,39.1015873015873,-3.73489241753993));
#620=CARTESIAN_POINT('Ctrl Pts',(16.0075094466665,41.9714285714286,-10.0782588530091));
#621=CARTESIAN_POINT('Ctrl Pts',(10.7268894513767,45.2,-15.5717849741358));
#622=CARTESIAN_POINT('Ctrl Pts',(2.54250492922995,48.9666666666667,-19.0487876796825));
#623=CARTESIAN_POINT('Ctrl Pts',(-7.82137551379436,53.2714285714286,-17.9474904481516));
#624=CARTESIAN_POINT('Ctrl Pts',(-16.6775075925618,58.1142857142857,-10.2490718231777));
#625=CARTESIAN_POINT('Ctrl Pts',(-19.542051692294,62.9571428571429,1.12375720145805));
#626=CARTESIAN_POINT('Ctrl Pts',(-15.3928923423728,67.8,12.0936270830715));
#627=CARTESIAN_POINT('Ctrl Pts',(-5.71134406701333,72.6428571428571,18.7234876750383));
#628=CARTESIAN_POINT('Ctrl Pts',(4.70889232969573,76.9476190476191,18.635080865922));
#629=CARTESIAN_POINT('Ctrl Pts',(12.4423526593639,80.7142857142857,14.2382142727597));
#630=CARTESIAN_POINT('Ctrl Pts',(17.0545341730994,83.9428571428571,8.17748672423056));
#631=CARTESIAN_POINT('Ctrl Pts',(18.895678930894,87.1714285714286,0.779720261016529));
#632=CARTESIAN_POINT('Ctrl Pts',(17.6713345806812,90.4,-6.74017243716958));
#633=CARTESIAN_POINT('Ctrl Pts',(13.5752321837055,93.6285714285714,-13.1677327903914));
#634=CARTESIAN_POINT('Ctrl Pts',(7.27703340926064,96.8571428571428,-17.4564131996103));
#635=CARTESIAN_POINT('Ctrl Pts',(-0.204188231274779,100.085714285714,-18.9114557561424));
#636=CARTESIAN_POINT('Ctrl Pts',(-7.6499621013202,103.314285714286,-17.2955394052789));
#637=CARTESIAN_POINT('Ctrl Pts',(-13.857383362188,106.542857142857,-12.871967416806));
#638=CARTESIAN_POINT('Ctrl Pts',(-17.3690149733224,109.412698412698,-7.081837062574));
#639=CARTESIAN_POINT('Ctrl Pts',(-18.925881939794,112.64126984127,0.290596893489282));
#640=CARTESIAN_POINT('Ctrl Pts',(-17.1637896593731,116.407936507937,9.1488697919835));
#641=CARTESIAN_POINT('Ctrl Pts',(-9.27488412897797,121.071428571429,17.2385236036172));
#642=CARTESIAN_POINT('Ctrl Pts',(2.2428618101988,125.914285714286,19.4461532872851));
#643=CARTESIAN_POINT('Ctrl Pts',(12.9602786711981,130.757142857143,14.6708412823704));
#644=CARTESIAN_POINT('Ctrl Pts',(16.995274561411,133.985714285714,7.97826608265204));
#645=CARTESIAN_POINT('Ctrl Pts',(17.87802388563,135.6,4.3515815452365));
#646=CARTESIAN_POINT('Ctrl Pts',(-5.55111512312578E-16,3.,-18.4));
#647=CARTESIAN_POINT('Ctrl Pts',(-3.73257111162509,4.61428571428571,-18.4));
#648=CARTESIAN_POINT('Ctrl Pts',(-11.1898074139267,7.84285714285714,-16.0611339851641));
#649=CARTESIAN_POINT('Ctrl Pts',(-18.3636090757261,12.6857142857143,-6.78029734941873));
#650=CARTESIAN_POINT('Ctrl Pts',(-18.943912707364,17.5285714285714,4.93903521641148));
#651=CARTESIAN_POINT('Ctrl Pts',(-13.4076704766624,21.8333333333333,13.7684202312798));
#652=CARTESIAN_POINT('Ctrl Pts',(-5.61588131377022,25.6,18.0562201210541));
#653=CARTESIAN_POINT('Ctrl Pts',(1.96605339944348,28.8285714285714,18.8115804184065));
#654=CARTESIAN_POINT('Ctrl Pts',(9.2272013591007,32.0571428571429,16.5055207381178));
#655=CARTESIAN_POINT('Ctrl Pts',(15.6431943914363,35.6444444444444,10.9735170781185));
#656=CARTESIAN_POINT('Ctrl Pts',(18.5470514572014,38.8730158730159,3.80051953960757));
#657=CARTESIAN_POINT('Ctrl Pts',(18.3794829547077,42.1015873015873,-3.73489355548914));
#658=CARTESIAN_POINT('Ctrl Pts',(16.0075075492148,44.9714285714286,-10.0782600932919));
#659=CARTESIAN_POINT('Ctrl Pts',(10.7268897781347,48.2,-15.5717877059973));
#660=CARTESIAN_POINT('Ctrl Pts',(2.54250602304546,51.9666666666667,-19.0487818598846));
#661=CARTESIAN_POINT('Ctrl Pts',(-7.82137653917202,56.2714285714286,-17.9474890147473));
#662=CARTESIAN_POINT('Ctrl Pts',(-16.6775068688852,61.1142857142857,-10.249072961507));
#663=CARTESIAN_POINT('Ctrl Pts',(-19.5420547609028,65.9571428571429,1.12375679666441));
#664=CARTESIAN_POINT('Ctrl Pts',(-15.3928893349048,70.8,12.0936243192469));
#665=CARTESIAN_POINT('Ctrl Pts',(-5.71134742514086,75.6428571428572,18.723464375847));
#666=CARTESIAN_POINT('Ctrl Pts',(4.7088929460838,79.9476190476191,18.6350948004744));
#667=CARTESIAN_POINT('Ctrl Pts',(12.4423545652807,83.7142857142857,14.2382233788373));
#668=CARTESIAN_POINT('Ctrl Pts',(17.054530899627,86.9428571428572,8.17748778586999));
#669=CARTESIAN_POINT('Ctrl Pts',(18.8956766880643,90.1714285714285,0.779721960736197));
#670=CARTESIAN_POINT('Ctrl Pts',(17.6713386779107,93.4,-6.74017347864349));
#671=CARTESIAN_POINT('Ctrl Pts',(13.5752333602954,96.6285714285715,-13.1677321942772));
#672=CARTESIAN_POINT('Ctrl Pts',(7.27703325532879,99.8571428571428,-17.4564137374818));
#673=CARTESIAN_POINT('Ctrl Pts',(-0.204185983782119,103.085714285714,-18.9114550646886));
#674=CARTESIAN_POINT('Ctrl Pts',(-7.64996156404818,106.314285714286,-17.29553865645));
#675=CARTESIAN_POINT('Ctrl Pts',(-13.8573736841854,109.542857142857,-12.8719638477867));
#676=CARTESIAN_POINT('Ctrl Pts',(-17.3690218975141,112.412698412698,-7.08184016530178));
#677=CARTESIAN_POINT('Ctrl Pts',(-18.9258771994961,115.64126984127,0.290597448376244));
#678=CARTESIAN_POINT('Ctrl Pts',(-17.1638034534175,119.407936507936,9.14886703805419));
#679=CARTESIAN_POINT('Ctrl Pts',(-9.27488421016877,124.071428571429,17.238524052519));
#680=CARTESIAN_POINT('Ctrl Pts',(2.24286498364831,128.914285714286,19.4461551734688));
#681=CARTESIAN_POINT('Ctrl Pts',(12.9602624431921,133.757142857143,14.6708381515221));
#682=CARTESIAN_POINT('Ctrl Pts',(16.995274561411,136.985714285714,7.97826608265204));
#683=CARTESIAN_POINT('Ctrl Pts',(17.87802388563,138.6,4.3515815452365));
#684=CARTESIAN_POINT('Ctrl Pts',(-5.55111512312578E-16,2.,-18.4));
#685=CARTESIAN_POINT('Ctrl Pts',(-3.73257111162509,3.61428571428571,-18.4));
#686=CARTESIAN_POINT('Ctrl Pts',(-11.1898074139267,6.84285714285714,-16.0611339851641));
#687=CARTESIAN_POINT('Ctrl Pts',(-18.3636090757261,11.6857142857143,-6.78029734941873));
#688=CARTESIAN_POINT('Ctrl Pts',(-18.943912707364,16.5285714285714,4.93903521641148));
#689=CARTESIAN_POINT('Ctrl Pts',(-13.4076704766624,20.8333333333333,13.7684202312798));
#690=CARTESIAN_POINT('Ctrl Pts',(-5.61588131377022,24.6,18.0562201210541));
#691=CARTESIAN_POINT('Ctrl Pts',(1.96605339944347,27.8285714285714,18.8115804184065));
#692=CARTESIAN_POINT('Ctrl Pts',(9.2272013591007,31.0571428571429,16.5055207381178));
#693=CARTESIAN_POINT('Ctrl Pts',(15.6431943914363,34.6444444444444,10.9735170781185));
#694=CARTESIAN_POINT('Ctrl Pts',(18.5470514572014,37.8730158730159,3.80051953960757));
#695=CARTESIAN_POINT('Ctrl Pts',(18.3794829547077,41.1015873015873,-3.73489355548914));
#696=CARTESIAN_POINT('Ctrl Pts',(16.0075075492148,43.9714285714286,-10.0782600932919));
#697=CARTESIAN_POINT('Ctrl Pts',(10.7268897781347,47.2,-15.5717877059973));
#698=CARTESIAN_POINT('Ctrl Pts',(2.54250602304546,50.9666666666667,-19.0487818598846));
#699=CARTESIAN_POINT('Ctrl Pts',(-7.82137653917201,55.2714285714286,-17.9474890147473));
#700=CARTESIAN_POINT('Ctrl Pts',(-16.6775068688852,60.1142857142857,-10.249072961507));
#701=CARTESIAN_POINT('Ctrl Pts',(-19.5420547609028,64.9571428571428,1.12375679666441));
#702=CARTESIAN_POINT('Ctrl Pts',(-15.3928893349048,69.8000000000001,12.0936243192469));
#703=CARTESIAN_POINT('Ctrl Pts',(-5.71134742514085,74.6428571428571,18.723464375847));
#704=CARTESIAN_POINT('Ctrl Pts',(4.70889294608379,78.9476190476191,18.6350948004744));
#705=CARTESIAN_POINT('Ctrl Pts',(12.4423545652807,82.7142857142858,14.2382233788373));
#706=CARTESIAN_POINT('Ctrl Pts',(17.0545308996269,85.9428571428571,8.17748778586999));
#707=CARTESIAN_POINT('Ctrl Pts',(18.8956766880643,89.1714285714286,0.779721960736205));
#708=CARTESIAN_POINT('Ctrl Pts',(17.6713386779107,92.4,-6.7401734786435));
#709=CARTESIAN_POINT('Ctrl Pts',(13.5752333602954,95.6285714285715,-13.1677321942772));
#710=CARTESIAN_POINT('Ctrl Pts',(7.27703325532879,98.8571428571429,-17.4564137374819));
#711=CARTESIAN_POINT('Ctrl Pts',(-0.204185983782114,102.085714285714,-18.9114550646886));
#712=CARTESIAN_POINT('Ctrl Pts',(-7.64996156404819,105.314285714286,-17.29553865645));
#713=CARTESIAN_POINT('Ctrl Pts',(-13.8573736841854,108.542857142857,-12.8719638477867));
#714=CARTESIAN_POINT('Ctrl Pts',(-17.3690218975141,111.412698412698,-7.08184016530179));
#715=CARTESIAN_POINT('Ctrl Pts',(-18.925877199496,114.64126984127,0.290597448376246));
#716=CARTESIAN_POINT('Ctrl Pts',(-17.1638034534175,118.407936507936,9.14886703805419));
#717=CARTESIAN_POINT('Ctrl Pts',(-9.27488421016877,123.071428571429,17.238524052519));
#718=CARTESIAN_POINT('Ctrl Pts',(2.24286498364831,127.914285714286,19.4461551734688));
#719=CARTESIAN_POINT('Ctrl Pts',(12.9602624431921,132.757142857143,14.6708381515221));
#720=CARTESIAN_POINT('Ctrl Pts',(16.995274561411,135.985714285714,7.97826608265204));
#721=CARTESIAN_POINT('Ctrl Pts',(17.87802388563,137.6,4.3515815452365));
#722=CARTESIAN_POINT('Ctrl Pts',(0.,0.999999999999999,-18.4));
#723=CARTESIAN_POINT('Ctrl Pts',(-3.73257111162509,2.61428571428572,-18.4));
#724=CARTESIAN_POINT('Ctrl Pts',(-11.1898074139267,5.84285714285714,-16.0611339851641));
#725=CARTESIAN_POINT('Ctrl Pts',(-18.3636090757261,10.6857142857143,-6.78029734941873));
#726=CARTESIAN_POINT('Ctrl Pts',(-18.943912707364,15.5285714285714,4.93903521641147));
#727=CARTESIAN_POINT('Ctrl Pts',(-13.4076704766624,19.8333333333333,13.7684202312799));
#728=CARTESIAN_POINT('Ctrl Pts',(-5.61588131377022,23.6,18.0562201210541));
#729=CARTESIAN_POINT('Ctrl Pts',(1.96605339944348,26.8285714285714,18.8115804184065));
#730=CARTESIAN_POINT('Ctrl Pts',(9.2272013591007,30.0571428571429,16.5055207381178));
#731=CARTESIAN_POINT('Ctrl Pts',(15.6431943914363,33.6444444444445,10.9735170781185));
#732=CARTESIAN_POINT('Ctrl Pts',(18.5470514572014,36.8730158730159,3.80051953960757));
#733=CARTESIAN_POINT('Ctrl Pts',(18.3794829547077,40.1015873015873,-3.73489355548914));
#734=CARTESIAN_POINT('Ctrl Pts',(16.0075075492148,42.9714285714286,-10.0782600932919));
#735=CARTESIAN_POINT('Ctrl Pts',(10.7268897781347,46.2,-15.5717877059973));
#736=CARTESIAN_POINT('Ctrl Pts',(2.54250602304546,49.9666666666667,-19.0487818598846));
#737=CARTESIAN_POINT('Ctrl Pts',(-7.82137653917202,54.2714285714286,-17.9474890147473));
#738=CARTESIAN_POINT('Ctrl Pts',(-16.6775068688852,59.1142857142857,-10.249072961507));
#739=CARTESIAN_POINT('Ctrl Pts',(-19.5420547609028,63.9571428571429,1.12375679666442));
#740=CARTESIAN_POINT('Ctrl Pts',(-15.3928893349048,68.8,12.0936243192469));
#741=CARTESIAN_POINT('Ctrl Pts',(-5.71134742514086,73.6428571428572,18.723464375847));
#742=CARTESIAN_POINT('Ctrl Pts',(4.7088929460838,77.947619047619,18.6350948004744));
#743=CARTESIAN_POINT('Ctrl Pts',(12.4423545652807,81.7142857142858,14.2382233788373));
#744=CARTESIAN_POINT('Ctrl Pts',(17.054530899627,84.9428571428571,8.17748778587));
#745=CARTESIAN_POINT('Ctrl Pts',(18.8956766880643,88.1714285714286,0.779721960736193));
#746=CARTESIAN_POINT('Ctrl Pts',(17.6713386779107,91.4,-6.74017347864349));
#747=CARTESIAN_POINT('Ctrl Pts',(13.5752333602954,94.6285714285715,-13.1677321942772));
#748=CARTESIAN_POINT('Ctrl Pts',(7.27703325532879,97.8571428571428,-17.4564137374819));
#749=CARTESIAN_POINT('Ctrl Pts',(-0.204185983782118,101.085714285714,-18.9114550646886));
#750=CARTESIAN_POINT('Ctrl Pts',(-7.64996156404818,104.314285714286,-17.29553865645));
#751=CARTESIAN_POINT('Ctrl Pts',(-13.8573736841854,107.542857142857,-12.8719638477867));
#752=CARTESIAN_POINT('Ctrl Pts',(-17.3690218975141,110.412698412698,-7.08184016530178));
#753=CARTESIAN_POINT('Ctrl Pts',(-18.9258771994961,113.64126984127,0.290597448376244));
#754=CARTESIAN_POINT('Ctrl Pts',(-17.1638034534175,117.407936507936,9.14886703805419));
#755=CARTESIAN_POINT('Ctrl Pts',(-9.27488421016877,122.071428571429,17.238524052519));
#756=CARTESIAN_POINT('Ctrl Pts',(2.24286498364831,126.914285714286,19.4461551734688));
#757=CARTESIAN_POINT('Ctrl Pts',(12.9602624431921,131.757142857143,14.6708381515221));
#758=CARTESIAN_POINT('Ctrl Pts',(16.995274561411,134.985714285714,7.97826608265204));
#759=CARTESIAN_POINT('Ctrl Pts',(17.87802388563,136.6,4.3515815452365));
#760=CARTESIAN_POINT('Ctrl Pts',(0.,-1.11022302462516E-15,-18.4));
#761=CARTESIAN_POINT('Ctrl Pts',(-3.73257111162509,1.61428571428571,-18.4));
#762=CARTESIAN_POINT('Ctrl Pts',(-11.1898074139267,4.84285714285714,-16.0611339851641));
#763=CARTESIAN_POINT('Ctrl Pts',(-18.3636090757261,9.68571428571428,-6.78029734941873));
#764=CARTESIAN_POINT('Ctrl Pts',(-18.943912707364,14.5285714285714,4.93903521641147));
#765=CARTESIAN_POINT('Ctrl Pts',(-13.4076704766624,18.8333333333333,13.7684202312799));
#766=CARTESIAN_POINT('Ctrl Pts',(-5.61588131377022,22.6,18.0562201210541));
#767=CARTESIAN_POINT('Ctrl Pts',(1.96605339944347,25.8285714285714,18.8115804184065));
#768=CARTESIAN_POINT('Ctrl Pts',(9.2272013591007,29.0571428571429,16.5055207381178));
#769=CARTESIAN_POINT('Ctrl Pts',(15.6431943914363,32.6444444444445,10.9735170781185));
#770=CARTESIAN_POINT('Ctrl Pts',(18.5470514572014,35.8730158730159,3.80051953960757));
#771=CARTESIAN_POINT('Ctrl Pts',(18.3794829547077,39.1015873015873,-3.73489355548914));
#772=CARTESIAN_POINT('Ctrl Pts',(16.0075075492148,41.9714285714286,-10.0782600932919));
#773=CARTESIAN_POINT('Ctrl Pts',(10.7268897781347,45.2,-15.5717877059973));
#774=CARTESIAN_POINT('Ctrl Pts',(2.54250602304546,48.9666666666667,-19.0487818598846));
#775=CARTESIAN_POINT('Ctrl Pts',(-7.82137653917202,53.2714285714286,-17.9474890147473));
#776=CARTESIAN_POINT('Ctrl Pts',(-16.6775068688852,58.1142857142857,-10.249072961507));
#777=CARTESIAN_POINT('Ctrl Pts',(-19.5420547609028,62.9571428571429,1.12375679666442));
#778=CARTESIAN_POINT('Ctrl Pts',(-15.3928893349048,67.8,12.0936243192469));
#779=CARTESIAN_POINT('Ctrl Pts',(-5.71134742514086,72.6428571428572,18.723464375847));
#780=CARTESIAN_POINT('Ctrl Pts',(4.7088929460838,76.947619047619,18.6350948004744));
#781=CARTESIAN_POINT('Ctrl Pts',(12.4423545652807,80.7142857142857,14.2382233788373));
#782=CARTESIAN_POINT('Ctrl Pts',(17.054530899627,83.9428571428572,8.17748778586999));
#783=CARTESIAN_POINT('Ctrl Pts',(18.8956766880643,87.1714285714286,0.779721960736198));
#784=CARTESIAN_POINT('Ctrl Pts',(17.6713386779107,90.4,-6.74017347864349));
#785=CARTESIAN_POINT('Ctrl Pts',(13.5752333602954,93.6285714285715,-13.1677321942772));
#786=CARTESIAN_POINT('Ctrl Pts',(7.27703325532879,96.8571428571428,-17.4564137374818));
#787=CARTESIAN_POINT('Ctrl Pts',(-0.204185983782118,100.085714285714,-18.9114550646886));
#788=CARTESIAN_POINT('Ctrl Pts',(-7.64996156404818,103.314285714286,-17.29553865645));
#789=CARTESIAN_POINT('Ctrl Pts',(-13.8573736841854,106.542857142857,-12.8719638477867));
#790=CARTESIAN_POINT('Ctrl Pts',(-17.3690218975141,109.412698412698,-7.08184016530178));
#791=CARTESIAN_POINT('Ctrl Pts',(-18.9258771994961,112.64126984127,0.290597448376244));
#792=CARTESIAN_POINT('Ctrl Pts',(-17.1638034534175,116.407936507936,9.14886703805419));
#793=CARTESIAN_POINT('Ctrl Pts',(-9.27488421016877,121.071428571429,17.238524052519));
#794=CARTESIAN_POINT('Ctrl Pts',(2.24286498364831,125.914285714286,19.4461551734688));
#795=CARTESIAN_POINT('Ctrl Pts',(12.960262443192,130.757142857143,14.6708381515221));
#796=CARTESIAN_POINT('Ctrl Pts',(16.995274561411,133.985714285714,7.97826608265204));
#797=CARTESIAN_POINT('Ctrl Pts',(17.87802388563,135.6,4.3515815452365));
#798=CARTESIAN_POINT('',(0.,3.,-18.4));
#799=CARTESIAN_POINT('',(0.,0.,-18.4));
#800=CARTESIAN_POINT('',(17.87802388563,138.6,4.3515815452365));
#801=CARTESIAN_POINT('',(17.87802388563,135.6,4.35158154523651));
#802=CARTESIAN_POINT('Ctrl Pts',(-5.55111512312578E-16,3.,-18.4));
#803=CARTESIAN_POINT('Ctrl Pts',(-3.73257111162509,4.61428571428571,-18.4));
#804=CARTESIAN_POINT('Ctrl Pts',(-11.1898074139267,7.84285714285714,-16.0611339851641));
#805=CARTESIAN_POINT('Ctrl Pts',(-18.3636090757261,12.6857142857143,-6.78029734941873));
#806=CARTESIAN_POINT('Ctrl Pts',(-18.943912707364,17.5285714285714,4.93903521641148));
#807=CARTESIAN_POINT('Ctrl Pts',(-13.4076704766624,21.8333333333333,13.7684202312798));
#808=CARTESIAN_POINT('Ctrl Pts',(-5.61588131377022,25.6,18.0562201210541));
#809=CARTESIAN_POINT('Ctrl Pts',(1.96605339944348,28.8285714285714,18.8115804184065));
#810=CARTESIAN_POINT('Ctrl Pts',(9.2272013591007,32.0571428571429,16.5055207381178));
#811=CARTESIAN_POINT('Ctrl Pts',(15.6431943914363,35.6444444444444,10.9735170781185));
#812=CARTESIAN_POINT('Ctrl Pts',(18.5470514572014,38.8730158730159,3.80051953960757));
#813=CARTESIAN_POINT('Ctrl Pts',(18.3794829547077,42.1015873015873,-3.73489355548914));
#814=CARTESIAN_POINT('Ctrl Pts',(16.0075075492148,44.9714285714286,-10.0782600932919));
#815=CARTESIAN_POINT('Ctrl Pts',(10.7268897781347,48.2,-15.5717877059973));
#816=CARTESIAN_POINT('Ctrl Pts',(2.54250602304546,51.9666666666667,-19.0487818598846));
#817=CARTESIAN_POINT('Ctrl Pts',(-7.82137653917202,56.2714285714286,-17.9474890147473));
#818=CARTESIAN_POINT('Ctrl Pts',(-16.6775068688852,61.1142857142857,-10.249072961507));
#819=CARTESIAN_POINT('Ctrl Pts',(-19.5420547609028,65.9571428571429,1.12375679666441));
#820=CARTESIAN_POINT('Ctrl Pts',(-15.3928893349048,70.8,12.0936243192469));
#821=CARTESIAN_POINT('Ctrl Pts',(-5.71134742514086,75.6428571428572,18.723464375847));
#822=CARTESIAN_POINT('Ctrl Pts',(4.7088929460838,79.9476190476191,18.6350948004744));
#823=CARTESIAN_POINT('Ctrl Pts',(12.4423545652807,83.7142857142857,14.2382233788373));
#824=CARTESIAN_POINT('Ctrl Pts',(17.054530899627,86.9428571428572,8.17748778586999));
#825=CARTESIAN_POINT('Ctrl Pts',(18.8956766880643,90.1714285714285,0.779721960736197));
#826=CARTESIAN_POINT('Ctrl Pts',(17.6713386779107,93.4,-6.74017347864349));
#827=CARTESIAN_POINT('Ctrl Pts',(13.5752333602954,96.6285714285715,-13.1677321942772));
#828=CARTESIAN_POINT('Ctrl Pts',(7.27703325532879,99.8571428571428,-17.4564137374818));
#829=CARTESIAN_POINT('Ctrl Pts',(-0.204185983782119,103.085714285714,-18.9114550646886));
#830=CARTESIAN_POINT('Ctrl Pts',(-7.64996156404818,106.314285714286,-17.29553865645));
#831=CARTESIAN_POINT('Ctrl Pts',(-13.8573736841854,109.542857142857,-12.8719638477867));
#832=CARTESIAN_POINT('Ctrl Pts',(-17.3690218975141,112.412698412698,-7.08184016530178));
#833=CARTESIAN_POINT('Ctrl Pts',(-18.9258771994961,115.64126984127,0.290597448376244));
#834=CARTESIAN_POINT('Ctrl Pts',(-17.1638034534175,119.407936507936,9.14886703805419));
#835=CARTESIAN_POINT('Ctrl Pts',(-9.27488421016877,124.071428571429,17.238524052519));
#836=CARTESIAN_POINT('Ctrl Pts',(2.24286498364831,128.914285714286,19.4461551734688));
#837=CARTESIAN_POINT('Ctrl Pts',(12.9602624431921,133.757142857143,14.6708381515221));
#838=CARTESIAN_POINT('Ctrl Pts',(16.995274561411,136.985714285714,7.97826608265204));
#839=CARTESIAN_POINT('Ctrl Pts',(17.87802388563,138.6,4.3515815452365));
#840=CARTESIAN_POINT('Ctrl Pts',(0.,3.,-15.5));
#841=CARTESIAN_POINT('Ctrl Pts',(-3.14428544729287,4.61428571428571,-15.5));
#842=CARTESIAN_POINT('Ctrl Pts',(-9.42619646281866,7.84285714285714,-13.5297596070676));
#843=CARTESIAN_POINT('Ctrl Pts',(-15.4693446018345,12.6857142857143,-5.71166352804295));
#844=CARTESIAN_POINT('Ctrl Pts',(-15.9581873350077,17.5285714285714,4.16060031817271));
#845=CARTESIAN_POINT('Ctrl Pts',(-11.2945050211015,21.8333333333333,11.5983974774368));
#846=CARTESIAN_POINT('Ctrl Pts',(-4.73076958496948,25.6,15.2104028193662));
#847=CARTESIAN_POINT('Ctrl Pts',(1.65618628757467,28.8285714285714,15.8467117655055));
#848=CARTESIAN_POINT('Ctrl Pts',(7.77291418837287,32.0571428571429,13.9041071435232));
#849=CARTESIAN_POINT('Ctrl Pts',(13.1776909275686,35.6444444444444,9.24399536471935));
#850=CARTESIAN_POINT('Ctrl Pts',(15.6238748688382,38.8730158730159,3.20152461216942));
#851=CARTESIAN_POINT('Ctrl Pts',(15.4827166194549,42.1015873015873,-3.14624185380879));
#852=CARTESIAN_POINT('Ctrl Pts',(13.4845851637407,44.9714285714286,-8.48983866554477));
#853=CARTESIAN_POINT('Ctrl Pts',(9.03623867179823,48.2,-13.1175385566825));
#854=CARTESIAN_POINT('Ctrl Pts',(2.14178496506547,51.9666666666667,-16.0465281971854));
#855=CARTESIAN_POINT('Ctrl Pts',(-6.58865958462861,56.2714285714285,-15.1188086809012));
#856=CARTESIAN_POINT('Ctrl Pts',(-14.04898676455,61.1142857142858,-8.63372994039994));
#857=CARTESIAN_POINT('Ctrl Pts',(-16.4620569996736,65.9571428571428,0.94664295371187));
#858=CARTESIAN_POINT('Ctrl Pts',(-12.9668361245122,70.8,10.187563964583));
#859=CARTESIAN_POINT('Ctrl Pts',(-4.81118940704801,75.6428571428572,15.7724835774798));
#860=CARTESIAN_POINT('Ctrl Pts',(3.96673047088581,79.9476190476191,15.698041815617));
#861=CARTESIAN_POINT('Ctrl Pts',(10.4813312914049,83.7142857142857,11.9941555636945));
#862=CARTESIAN_POINT('Ctrl Pts',(14.366588529577,86.9428571428572,6.88864460222744));
#863=CARTESIAN_POINT('Ctrl Pts',(15.9175537317933,90.1714285714285,0.656830999533212));
#864=CARTESIAN_POINT('Ctrl Pts',(14.8861820384574,93.4,-5.67786352820512));
#865=CARTESIAN_POINT('Ctrl Pts',(11.4356585372054,96.6285714285715,-11.0923830984401));
#866=CARTESIAN_POINT('Ctrl Pts',(6.13010953573892,99.8571428571428,-14.7051311375526));
#867=CARTESIAN_POINT('Ctrl Pts',(-0.172004497207761,103.085714285714,-15.9308452990583));
#868=CARTESIAN_POINT('Ctrl Pts',(-6.44426110014928,106.314285714286,-14.5696113682052));
#869=CARTESIAN_POINT('Ctrl Pts',(-11.6733310926562,109.542857142857,-10.8432304152551));
#870=CARTESIAN_POINT('Ctrl Pts',(-14.6315130114928,112.412698412698,-5.9656805740314));
#871=CARTESIAN_POINT('Ctrl Pts',(-15.9429943800103,115.64126984127,0.244796763577815));
#872=CARTESIAN_POINT('Ctrl Pts',(-14.4586387786941,119.407936507936,7.7069260374913));
#873=CARTESIAN_POINT('Ctrl Pts',(-7.81308180747914,124.071428571429,14.5215827616329));
#874=CARTESIAN_POINT('Ctrl Pts',(1.88936995905157,128.914285714286,16.3812720211286));
#875=CARTESIAN_POINT('Ctrl Pts',(10.9176123842107,133.757142857143,12.3585864863365));
#876=CARTESIAN_POINT('Ctrl Pts',(14.3166715055364,136.985714285714,6.72082197179927));
#877=CARTESIAN_POINT('Ctrl Pts',(15.0602918601775,138.6,3.66573445386771));
#878=CARTESIAN_POINT('Ctrl Pts',(5.36607795235492E-17,3.,-16.4666666666667));
#879=CARTESIAN_POINT('Ctrl Pts',(-3.34038066873695,4.61428571428571,-16.4666666666667));
#880=CARTESIAN_POINT('Ctrl Pts',(-10.0140667798547,7.84285714285714,-14.3735510664331));
#881=CARTESIAN_POINT('Ctrl Pts',(-16.434099426465,12.6857142857143,-6.06787480183487));
#882=CARTESIAN_POINT('Ctrl Pts',(-16.9534291257931,17.5285714285714,4.42007861758563));
#883=CARTESIAN_POINT('Ctrl Pts',(-11.9988935062885,21.8333333333333,12.3217383953845));
#884=CARTESIAN_POINT('Ctrl Pts',(-5.02580682790306,25.6,16.1590085865955));
#885=CARTESIAN_POINT('Ctrl Pts',(1.75947532486427,28.8285714285714,16.8350013164725));
#886=CARTESIAN_POINT('Ctrl Pts',(8.25767657861548,32.0571428571429,14.7712450083881));
#887=CARTESIAN_POINT('Ctrl Pts',(13.9995254155245,35.6444444444444,9.82050260251905));
#888=CARTESIAN_POINT('Ctrl Pts',(16.5982670649592,38.8730158730159,3.40118958798214));
#889=CARTESIAN_POINT('Ctrl Pts',(16.4483053978725,42.1015873015873,-3.34245908770223));
#890=CARTESIAN_POINT('Ctrl Pts',(14.3255592922321,44.9714285714286,-9.01931247479381));
#891=CARTESIAN_POINT('Ctrl Pts',(9.59978904057706,48.2,-13.9356216064541));
#892=CARTESIAN_POINT('Ctrl Pts',(2.2753586510588,51.9666666666667,-17.0472794180852));
#893=CARTESIAN_POINT('Ctrl Pts',(-6.99956523614308,56.2714285714285,-16.0617021255166));
#894=CARTESIAN_POINT('Ctrl Pts',(-14.9251601326618,61.1142857142858,-9.1721776141023));
#895=CARTESIAN_POINT('Ctrl Pts',(-17.4887229200833,65.9571428571428,1.00568090136272));
#896=CARTESIAN_POINT('Ctrl Pts',(-13.7755205279764,70.8,10.8229174161376));
#897=CARTESIAN_POINT('Ctrl Pts',(-5.11124207974562,75.6428571428572,16.7561438436022));
#898=CARTESIAN_POINT('Ctrl Pts',(4.21411796261847,79.9476190476191,16.6770594772361));
#899=CARTESIAN_POINT('Ctrl Pts',(11.1350057160302,83.7142857142857,12.7421781687421));
#900=CARTESIAN_POINT('Ctrl Pts',(15.2625693195937,86.9428571428572,7.31825899677495));
#901=CARTESIAN_POINT('Ctrl Pts',(16.9102613838836,90.1714285714286,0.697794653267541));
#902=CARTESIAN_POINT('Ctrl Pts',(15.8145675849418,93.4,-6.03196684501791));
#903=CARTESIAN_POINT('Ctrl Pts',(12.148850144902,96.6285714285715,-11.7841661303858));
#904=CARTESIAN_POINT('Ctrl Pts',(6.51241744226888,99.8571428571428,-15.622225337529));
#905=CARTESIAN_POINT('Ctrl Pts',(-0.182731659399214,103.085714285714,-16.9243818876018));
#906=CARTESIAN_POINT('Ctrl Pts',(-6.84616125478224,106.314285714286,-15.4782537976201));
#907=CARTESIAN_POINT('Ctrl Pts',(-12.4013452898326,109.542857142857,-11.5194748927656));
#908=CARTESIAN_POINT('Ctrl Pts',(-15.5440159734999,112.412698412698,-6.33773377112152));
#909=CARTESIAN_POINT('Ctrl Pts',(-16.9372886531722,115.64126984127,0.26006365851062));
#910=CARTESIAN_POINT('Ctrl Pts',(-15.3603603369352,119.407936507936,8.18757303767893));
#911=CARTESIAN_POINT('Ctrl Pts',(-8.30034927504235,124.071428571429,15.4272298585949));
#912=CARTESIAN_POINT('Ctrl Pts',(2.00720163391716,128.914285714286,17.4028997385753));
#913=CARTESIAN_POINT('Ctrl Pts',(11.5984957372045,133.757142857143,13.1293370413984));
#914=CARTESIAN_POINT('Ctrl Pts',(15.2095391908279,136.985714285714,7.13997000875019));
#915=CARTESIAN_POINT('Ctrl Pts',(15.9995358686616,138.6,3.89435015099064));
#916=CARTESIAN_POINT('Ctrl Pts',(-6.08772291836128E-16,3.,-17.4333333333333));
#917=CARTESIAN_POINT('Ctrl Pts',(-3.53647589018101,4.61428571428572,-17.4333333333333));
#918=CARTESIAN_POINT('Ctrl Pts',(-10.6019370968907,7.84285714285715,-15.2173425257986));
#919=CARTESIAN_POINT('Ctrl Pts',(-17.3988542510956,12.6857142857143,-6.42408607562681));
#920=CARTESIAN_POINT('Ctrl Pts',(-17.9486709165785,17.5285714285714,4.67955691699856));
#921=CARTESIAN_POINT('Ctrl Pts',(-12.7032819914754,21.8333333333333,13.0450793133322));
#922=CARTESIAN_POINT('Ctrl Pts',(-5.32084407083664,25.6,17.1076143538248));
#923=CARTESIAN_POINT('Ctrl Pts',(1.86276436215387,28.8285714285714,17.8232908674395));
#924=CARTESIAN_POINT('Ctrl Pts',(8.74243896885809,32.0571428571429,15.6383828732529));
#925=CARTESIAN_POINT('Ctrl Pts',(14.8213599034804,35.6444444444444,10.3970098403188));
#926=CARTESIAN_POINT('Ctrl Pts',(17.5726592610803,38.8730158730159,3.60085456379485));
#927=CARTESIAN_POINT('Ctrl Pts',(17.4138941762901,42.1015873015873,-3.53867632159569));
#928=CARTESIAN_POINT('Ctrl Pts',(15.1665334207235,44.9714285714286,-9.54878628404282));
#929=CARTESIAN_POINT('Ctrl Pts',(10.1633394093559,48.2,-14.7537046562257));
#930=CARTESIAN_POINT('Ctrl Pts',(2.40893233705213,51.9666666666667,-18.0480306389849));
#931=CARTESIAN_POINT('Ctrl Pts',(-7.41047088765755,56.2714285714286,-17.0045955701319));
#932=CARTESIAN_POINT('Ctrl Pts',(-15.8013335007735,61.1142857142857,-9.71062528780466));
#933=CARTESIAN_POINT('Ctrl Pts',(-18.5153888404931,65.9571428571429,1.06471884901356));
#934=CARTESIAN_POINT('Ctrl Pts',(-14.5842049314406,70.8,11.4582708676922));
#935=CARTESIAN_POINT('Ctrl Pts',(-5.41129475244324,75.6428571428572,17.7398041097246));
#936=CARTESIAN_POINT('Ctrl Pts',(4.46150545435113,79.9476190476191,17.6560771388553));
#937=CARTESIAN_POINT('Ctrl Pts',(11.7886801406554,83.7142857142857,13.4902007737897));
#938=CARTESIAN_POINT('Ctrl Pts',(16.1585501096103,86.9428571428572,7.74787339132248));
#939=CARTESIAN_POINT('Ctrl Pts',(17.902969035974,90.1714285714285,0.738758307001868));
#940=CARTESIAN_POINT('Ctrl Pts',(16.7429531314263,93.4,-6.3860701618307));
#941=CARTESIAN_POINT('Ctrl Pts',(12.8620417525987,96.6285714285715,-12.4759491623315));
#942=CARTESIAN_POINT('Ctrl Pts',(6.89472534879884,99.8571428571428,-16.5393195375054));
#943=CARTESIAN_POINT('Ctrl Pts',(-0.193458821590669,103.085714285714,-17.9179184761452));
#944=CARTESIAN_POINT('Ctrl Pts',(-7.24806140941521,106.314285714286,-16.386896227035));
#945=CARTESIAN_POINT('Ctrl Pts',(-13.129359487009,109.542857142857,-12.1957193702762));
#946=CARTESIAN_POINT('Ctrl Pts',(-16.456518935507,112.412698412698,-6.70978696821166));
#947=CARTESIAN_POINT('Ctrl Pts',(-17.9315829263341,115.64126984127,0.275330553443437));
#948=CARTESIAN_POINT('Ctrl Pts',(-16.2620818951764,119.407936507936,8.66822003786656));
#949=CARTESIAN_POINT('Ctrl Pts',(-8.78761674260557,124.071428571429,16.332876955557));
#950=CARTESIAN_POINT('Ctrl Pts',(2.12503330878273,128.914285714286,18.424527456022));
#951=CARTESIAN_POINT('Ctrl Pts',(12.2793790901983,133.757142857143,13.9000875964602));
#952=CARTESIAN_POINT('Ctrl Pts',(16.1024068761194,136.985714285714,7.55911804570111));
#953=CARTESIAN_POINT('Ctrl Pts',(16.9387798771458,138.6,4.12296584811357));
#954=CARTESIAN_POINT('Ctrl Pts',(-5.55111512312578E-16,3.,-18.4));
#955=CARTESIAN_POINT('Ctrl Pts',(-3.73257111162509,4.61428571428571,-18.4));
#956=CARTESIAN_POINT('Ctrl Pts',(-11.1898074139267,7.84285714285714,-16.0611339851641));
#957=CARTESIAN_POINT('Ctrl Pts',(-18.3636090757261,12.6857142857143,-6.78029734941873));
#958=CARTESIAN_POINT('Ctrl Pts',(-18.943912707364,17.5285714285714,4.93903521641148));
#959=CARTESIAN_POINT('Ctrl Pts',(-13.4076704766624,21.8333333333333,13.7684202312798));
#960=CARTESIAN_POINT('Ctrl Pts',(-5.61588131377022,25.6,18.0562201210541));
#961=CARTESIAN_POINT('Ctrl Pts',(1.96605339944348,28.8285714285714,18.8115804184065));
#962=CARTESIAN_POINT('Ctrl Pts',(9.2272013591007,32.0571428571429,16.5055207381178));
#963=CARTESIAN_POINT('Ctrl Pts',(15.6431943914363,35.6444444444444,10.9735170781185));
#964=CARTESIAN_POINT('Ctrl Pts',(18.5470514572014,38.8730158730159,3.80051953960757));
#965=CARTESIAN_POINT('Ctrl Pts',(18.3794829547077,42.1015873015873,-3.73489355548914));
#966=CARTESIAN_POINT('Ctrl Pts',(16.0075075492148,44.9714285714286,-10.0782600932919));
#967=CARTESIAN_POINT('Ctrl Pts',(10.7268897781347,48.2,-15.5717877059973));
#968=CARTESIAN_POINT('Ctrl Pts',(2.54250602304546,51.9666666666667,-19.0487818598846));
#969=CARTESIAN_POINT('Ctrl Pts',(-7.82137653917202,56.2714285714286,-17.9474890147473));
#970=CARTESIAN_POINT('Ctrl Pts',(-16.6775068688852,61.1142857142857,-10.249072961507));
#971=CARTESIAN_POINT('Ctrl Pts',(-19.5420547609028,65.9571428571429,1.12375679666441));
#972=CARTESIAN_POINT('Ctrl Pts',(-15.3928893349048,70.8,12.0936243192469));
#973=CARTESIAN_POINT('Ctrl Pts',(-5.71134742514086,75.6428571428572,18.723464375847));
#974=CARTESIAN_POINT('Ctrl Pts',(4.7088929460838,79.9476190476191,18.6350948004744));
#975=CARTESIAN_POINT('Ctrl Pts',(12.4423545652807,83.7142857142857,14.2382233788373));
#976=CARTESIAN_POINT('Ctrl Pts',(17.054530899627,86.9428571428572,8.17748778586999));
#977=CARTESIAN_POINT('Ctrl Pts',(18.8956766880643,90.1714285714285,0.779721960736197));
#978=CARTESIAN_POINT('Ctrl Pts',(17.6713386779107,93.4,-6.74017347864349));
#979=CARTESIAN_POINT('Ctrl Pts',(13.5752333602954,96.6285714285715,-13.1677321942772));
#980=CARTESIAN_POINT('Ctrl Pts',(7.27703325532879,99.8571428571428,-17.4564137374818));
#981=CARTESIAN_POINT('Ctrl Pts',(-0.204185983782119,103.085714285714,-18.9114550646886));
#982=CARTESIAN_POINT('Ctrl Pts',(-7.64996156404818,106.314285714286,-17.29553865645));
#983=CARTESIAN_POINT('Ctrl Pts',(-13.8573736841854,109.542857142857,-12.8719638477867));
#984=CARTESIAN_POINT('Ctrl Pts',(-17.3690218975141,112.412698412698,-7.08184016530178));
#985=CARTESIAN_POINT('Ctrl Pts',(-18.9258771994961,115.64126984127,0.290597448376244));
#986=CARTESIAN_POINT('Ctrl Pts',(-17.1638034534175,119.407936507936,9.14886703805419));
#987=CARTESIAN_POINT('Ctrl Pts',(-9.27488421016877,124.071428571429,17.238524052519));
#988=CARTESIAN_POINT('Ctrl Pts',(2.24286498364831,128.914285714286,19.4461551734688));
#989=CARTESIAN_POINT('Ctrl Pts',(12.9602624431921,133.757142857143,14.6708381515221));
#990=CARTESIAN_POINT('Ctrl Pts',(16.995274561411,136.985714285714,7.97826608265204));
#991=CARTESIAN_POINT('Ctrl Pts',(17.87802388563,138.6,4.3515815452365));
#992=CARTESIAN_POINT('',(0.,3.,-18.4));
#993=CARTESIAN_POINT('',(17.87802388563,138.6,4.35158154523651));
#994=CARTESIAN_POINT('Ctrl Pts',(15.5002596292977,90.4999999999999,-0.000115082172900786));
#995=CARTESIAN_POINT('Ctrl Pts',(15.4996121911745,91.4666666666666,-1.88293298441791));
#996=CARTESIAN_POINT('Ctrl Pts',(14.7691288813353,93.5095238095238,-5.86154192070569));
#997=CARTESIAN_POINT('Ctrl Pts',(11.4356585372054,96.6285714285715,-11.0923830984401));
#998=CARTESIAN_POINT('Ctrl Pts',(6.13010953573892,99.8571428571428,-14.7051311375526));
#999=CARTESIAN_POINT('Ctrl Pts',(-0.172004497207761,103.085714285714,-15.9308452990583));
#1000=CARTESIAN_POINT('Ctrl Pts',(-6.44426110014928,106.314285714286,-14.5696113682052));
#1001=CARTESIAN_POINT('Ctrl Pts',(-11.6733310926562,109.542857142857,-10.8432304152551));
#1002=CARTESIAN_POINT('Ctrl Pts',(-14.6315130114928,112.412698412698,-5.9656805740314));
#1003=CARTESIAN_POINT('Ctrl Pts',(-15.9429943800103,115.64126984127,0.244796763577815));
#1004=CARTESIAN_POINT('Ctrl Pts',(-14.4586387786941,119.407936507936,7.7069260374913));
#1005=CARTESIAN_POINT('Ctrl Pts',(-7.81308180747914,124.071428571429,14.5215827616329));
#1006=CARTESIAN_POINT('Ctrl Pts',(1.88936995905157,128.914285714286,16.3812720211286));
#1007=CARTESIAN_POINT('Ctrl Pts',(9.05337353535775,132.757142857143,13.1892295171195));
#1008=CARTESIAN_POINT('Ctrl Pts',(11.9597308779793,134.985714285714,9.92965970117736));
#1009=CARTESIAN_POINT('Ctrl Pts',(12.6494200689996,135.6,8.9518842555024));
#1010=CARTESIAN_POINT('Origin',(16.4691578729037,137.1,4.00865799955211));
#1011=CARTESIAN_POINT('Origin',(0.,1.5,-16.95));
#1012=CARTESIAN_POINT('Origin',(0.,0.,0.));
#1013=CARTESIAN_POINT('Origin',(0.,135.6,0.));
#1014=CARTESIAN_POINT('Origin',(0.,135.6,0.));
#1015=CARTESIAN_POINT('Origin',(0.,0.,0.));
#1016=UNCERTAINTY_MEASURE_WITH_UNIT(LENGTH_MEASURE(0.01),#1020,
'DISTANCE_ACCURACY_VALUE',
'Maximum model space distance between geometric entities at asserted c
onnectivities');
#1017=UNCERTAINTY_MEASURE_WITH_UNIT(LENGTH_MEASURE(0.01),#1020,
'DISTANCE_ACCURACY_VALUE',
'Maximum model space distance between geometric entities at asserted c
onnectivities');
#1018=(
GEOMETRIC_REPRESENTATION_CONTEXT(3)
GLOBAL_UNCERTAINTY_ASSIGNED_CONTEXT((#1016))
GLOBAL_UNIT_ASSIGNED_CONTEXT((#1020,#1022,#1023))
REPRESENTATION_CONTEXT('','3D')
);
#1019=(
GEOMETRIC_REPRESENTATION_CONTEXT(3)
GLOBAL_UNCERTAINTY_ASSIGNED_CONTEXT((#1017))
GLOBAL_UNIT_ASSIGNED_CONTEXT((#1020,#1022,#1023))
REPRESENTATION_CONTEXT('','3D')
);
#1020=(
LENGTH_UNIT()
NAMED_UNIT(*)
SI_UNIT(.MILLI.,.METRE.)
);
#1021=(
LENGTH_UNIT()
NAMED_UNIT(*)
SI_UNIT(.CENTI.,.METRE.)
);
#1022=(
NAMED_UNIT(*)
PLANE_ANGLE_UNIT()
SI_UNIT($,.RADIAN.)
);
#1023=(
NAMED_UNIT(*)
SI_UNIT($,.STERADIAN.)
SOLID_ANGLE_UNIT()
);
#1024=SHAPE_DEFINITION_REPRESENTATION(#1025,#1026);
#1025=PRODUCT_DEFINITION_SHAPE('',$,#1028);
#1026=SHAPE_REPRESENTATION('',(#211),#1018);
#1027=PRODUCT_DEFINITION_CONTEXT('part definition',#1032,'design');
#1028=PRODUCT_DEFINITION('dosificacion tornillo',
'dosificacion tornillo',#1029,#1027);
#1029=PRODUCT_DEFINITION_FORMATION('',$,#1034);
#1030=PRODUCT_RELATED_PRODUCT_CATEGORY('dosificacion tornillo',
'dosificacion tornillo',(#1034));
#1031=APPLICATION_PROTOCOL_DEFINITION('international standard',
'automotive_design',2009,#1032);
#1032=APPLICATION_CONTEXT(
'Core Data for Automotive Mechanical Design Process');
#1033=PRODUCT_CONTEXT('part definition',#1032,'mechanical');
#1034=PRODUCT('dosificacion tornillo','dosificacion tornillo',$,(#1033));
#1035=PRESENTATION_STYLE_ASSIGNMENT((#1036));
#1036=SURFACE_STYLE_USAGE(.BOTH.,#1039);
#1037=SURFACE_STYLE_RENDERING_WITH_PROPERTIES($,#1043,(#1038));
#1038=SURFACE_STYLE_TRANSPARENT(0.);
#1039=SURFACE_SIDE_STYLE('',(#1040,#1037));
#1040=SURFACE_STYLE_FILL_AREA(#1041);
#1041=FILL_AREA_STYLE('',(#1042));
#1042=FILL_AREA_STYLE_COLOUR('',#1043);
#1043=COLOUR_RGB('',0.749019607843137,0.749019607843137,0.749019607843137);
ENDSEC;
END-ISO-10303-21;
