ISO-10303-21;
HEADER;
/* Generated by software containing ST-Developer
 * from STEP Tools, Inc. (www.steptools.com) 
 */

FILE_DESCRIPTION(
/* description */ (''),
/* implementation_level */ '2;1');

FILE_NAME(
/* name */ 'placa para pellet.stp',
/* time_stamp */ '2025-12-28T22:23:43-03:00',
/* author */ ('TUF GAMING F15'),
/* organization */ (''),
/* preprocessor_version */ 'ST-DEVELOPER v20.1',
/* originating_system */ 'Autodesk Inventor 2026',
/* authorisation */ '');

FILE_SCHEMA (('AUTOMOTIVE_DESIGN { 1 0 10303 214 3 1 1 }'));
ENDSEC;

DATA;
#10=MECHANICAL_DESIGN_GEOMETRIC_PRESENTATION_REPRESENTATION('',(#16),#596);
#11=GEOMETRICALLY_BOUNDED_WIREFRAME_SHAPE_REPRESENTATION('',(#12),#595);
#12=GEOMETRIC_CURVE_SET('Boceto10',(#592));
#13=SHAPE_REPRESENTATION_RELATIONSHIP('SRR','None',#603,#15);
#14=SHAPE_REPRESENTATION_RELATIONSHIP('SRR','None',#603,#11);
#15=ADVANCED_BREP_SHAPE_REPRESENTATION('',(#17),#595);
#16=STYLED_ITEM('',(#612),#17);
#17=MANIFOLD_SOLID_BREP('S\X\F3lido1',#338);
#18=FACE_BOUND('',#77,.T.);
#19=FACE_BOUND('',#78,.T.);
#20=FACE_BOUND('',#79,.T.);
#21=FACE_BOUND('',#80,.T.);
#22=FACE_BOUND('',#81,.T.);
#23=FACE_BOUND('',#82,.T.);
#24=FACE_BOUND('',#83,.T.);
#25=FACE_BOUND('',#84,.T.);
#26=FACE_BOUND('',#85,.T.);
#27=FACE_BOUND('',#86,.T.);
#28=FACE_BOUND('',#87,.T.);
#29=FACE_BOUND('',#88,.T.);
#30=FACE_BOUND('',#90,.T.);
#31=FACE_BOUND('',#91,.T.);
#32=FACE_BOUND('',#92,.T.);
#33=FACE_BOUND('',#93,.T.);
#34=FACE_BOUND('',#94,.T.);
#35=FACE_BOUND('',#95,.T.);
#36=FACE_BOUND('',#96,.T.);
#37=FACE_BOUND('',#97,.T.);
#38=FACE_BOUND('',#98,.T.);
#39=FACE_BOUND('',#99,.T.);
#40=FACE_BOUND('',#100,.T.);
#41=FACE_BOUND('',#101,.T.);
#42=FACE_BOUND('',#102,.T.);
#43=PLANE('',#402);
#44=PLANE('',#403);
#45=CONICAL_SURFACE('',#373,7.1625,0.961359927927659);
#46=FACE_OUTER_BOUND('',#62,.T.);
#47=FACE_OUTER_BOUND('',#63,.T.);
#48=FACE_OUTER_BOUND('',#64,.T.);
#49=FACE_OUTER_BOUND('',#65,.T.);
#50=FACE_OUTER_BOUND('',#66,.T.);
#51=FACE_OUTER_BOUND('',#67,.T.);
#52=FACE_OUTER_BOUND('',#68,.T.);
#53=FACE_OUTER_BOUND('',#69,.T.);
#54=FACE_OUTER_BOUND('',#70,.T.);
#55=FACE_OUTER_BOUND('',#71,.T.);
#56=FACE_OUTER_BOUND('',#72,.T.);
#57=FACE_OUTER_BOUND('',#73,.T.);
#58=FACE_OUTER_BOUND('',#74,.T.);
#59=FACE_OUTER_BOUND('',#75,.T.);
#60=FACE_OUTER_BOUND('',#76,.T.);
#61=FACE_OUTER_BOUND('',#89,.T.);
#62=EDGE_LOOP('',(#227,#228,#229,#230));
#63=EDGE_LOOP('',(#231,#232,#233,#234));
#64=EDGE_LOOP('',(#235,#236,#237,#238));
#65=EDGE_LOOP('',(#239,#240,#241,#242));
#66=EDGE_LOOP('',(#243,#244,#245));
#67=EDGE_LOOP('',(#246,#247,#248,#249));
#68=EDGE_LOOP('',(#250,#251,#252,#253));
#69=EDGE_LOOP('',(#254,#255,#256,#257));
#70=EDGE_LOOP('',(#258,#259,#260,#261));
#71=EDGE_LOOP('',(#262,#263,#264,#265));
#72=EDGE_LOOP('',(#266,#267,#268,#269));
#73=EDGE_LOOP('',(#270,#271,#272,#273));
#74=EDGE_LOOP('',(#274,#275,#276,#277));
#75=EDGE_LOOP('',(#278,#279,#280,#281));
#76=EDGE_LOOP('',(#282));
#77=EDGE_LOOP('',(#283));
#78=EDGE_LOOP('',(#284));
#79=EDGE_LOOP('',(#285));
#80=EDGE_LOOP('',(#286));
#81=EDGE_LOOP('',(#287));
#82=EDGE_LOOP('',(#288));
#83=EDGE_LOOP('',(#289));
#84=EDGE_LOOP('',(#290));
#85=EDGE_LOOP('',(#291));
#86=EDGE_LOOP('',(#292));
#87=EDGE_LOOP('',(#293));
#88=EDGE_LOOP('',(#294));
#89=EDGE_LOOP('',(#295));
#90=EDGE_LOOP('',(#296));
#91=EDGE_LOOP('',(#297));
#92=EDGE_LOOP('',(#298));
#93=EDGE_LOOP('',(#299));
#94=EDGE_LOOP('',(#300));
#95=EDGE_LOOP('',(#301));
#96=EDGE_LOOP('',(#302));
#97=EDGE_LOOP('',(#303));
#98=EDGE_LOOP('',(#304));
#99=EDGE_LOOP('',(#305));
#100=EDGE_LOOP('',(#306));
#101=EDGE_LOOP('',(#307));
#102=EDGE_LOOP('',(#308));
#103=LINE('',#511,#117);
#104=LINE('',#517,#118);
#105=LINE('',#523,#119);
#106=LINE('',#529,#120);
#107=LINE('',#534,#121);
#108=LINE('',#540,#122);
#109=LINE('',#546,#123);
#110=LINE('',#552,#124);
#111=LINE('',#558,#125);
#112=LINE('',#564,#126);
#113=LINE('',#570,#127);
#114=LINE('',#576,#128);
#115=LINE('',#582,#129);
#116=LINE('',#588,#130);
#117=VECTOR('',#410,2.75);
#118=VECTOR('',#417,2.75);
#119=VECTOR('',#424,2.75);
#120=VECTOR('',#431,2.75);
#121=VECTOR('',#436,7.1625);
#122=VECTOR('',#443,1.);
#123=VECTOR('',#450,1.);
#124=VECTOR('',#457,1.);
#125=VECTOR('',#464,1.);
#126=VECTOR('',#471,1.);
#127=VECTOR('',#478,1.);
#128=VECTOR('',#485,1.);
#129=VECTOR('',#492,0.999999999999999);
#130=VECTOR('',#499,27.5);
#131=CIRCLE('',#362,2.75);
#132=CIRCLE('',#363,2.75);
#133=CIRCLE('',#365,2.75);
#134=CIRCLE('',#366,2.75);
#135=CIRCLE('',#368,2.75);
#136=CIRCLE('',#369,2.75);
#137=CIRCLE('',#371,2.75);
#138=CIRCLE('',#372,2.75);
#139=CIRCLE('',#374,7.1625);
#140=CIRCLE('',#376,1.);
#141=CIRCLE('',#377,1.);
#142=CIRCLE('',#379,1.);
#143=CIRCLE('',#380,1.);
#144=CIRCLE('',#382,1.);
#145=CIRCLE('',#383,1.);
#146=CIRCLE('',#385,1.);
#147=CIRCLE('',#386,1.);
#148=CIRCLE('',#388,1.);
#149=CIRCLE('',#389,1.);
#150=CIRCLE('',#391,1.);
#151=CIRCLE('',#392,1.);
#152=CIRCLE('',#394,1.);
#153=CIRCLE('',#395,1.);
#154=CIRCLE('',#397,0.999999999999999);
#155=CIRCLE('',#398,0.999999999999999);
#156=CIRCLE('',#400,27.5);
#157=CIRCLE('',#401,27.5);
#158=VERTEX_POINT('',#508);
#159=VERTEX_POINT('',#510);
#160=VERTEX_POINT('',#514);
#161=VERTEX_POINT('',#516);
#162=VERTEX_POINT('',#520);
#163=VERTEX_POINT('',#522);
#164=VERTEX_POINT('',#526);
#165=VERTEX_POINT('',#528);
#166=VERTEX_POINT('',#532);
#167=VERTEX_POINT('',#533);
#168=VERTEX_POINT('',#537);
#169=VERTEX_POINT('',#539);
#170=VERTEX_POINT('',#543);
#171=VERTEX_POINT('',#545);
#172=VERTEX_POINT('',#549);
#173=VERTEX_POINT('',#551);
#174=VERTEX_POINT('',#555);
#175=VERTEX_POINT('',#557);
#176=VERTEX_POINT('',#561);
#177=VERTEX_POINT('',#563);
#178=VERTEX_POINT('',#567);
#179=VERTEX_POINT('',#569);
#180=VERTEX_POINT('',#573);
#181=VERTEX_POINT('',#575);
#182=VERTEX_POINT('',#579);
#183=VERTEX_POINT('',#581);
#184=VERTEX_POINT('',#585);
#185=VERTEX_POINT('',#587);
#186=EDGE_CURVE('',#158,#158,#131,.T.);
#187=EDGE_CURVE('',#158,#159,#103,.T.);
#188=EDGE_CURVE('',#159,#159,#132,.T.);
#189=EDGE_CURVE('',#160,#160,#133,.T.);
#190=EDGE_CURVE('',#160,#161,#104,.T.);
#191=EDGE_CURVE('',#161,#161,#134,.T.);
#192=EDGE_CURVE('',#162,#162,#135,.T.);
#193=EDGE_CURVE('',#162,#163,#105,.T.);
#194=EDGE_CURVE('',#163,#163,#136,.T.);
#195=EDGE_CURVE('',#164,#164,#137,.T.);
#196=EDGE_CURVE('',#164,#165,#106,.T.);
#197=EDGE_CURVE('',#165,#165,#138,.T.);
#198=EDGE_CURVE('',#166,#167,#107,.T.);
#199=EDGE_CURVE('',#167,#167,#139,.T.);
#200=EDGE_CURVE('',#168,#168,#140,.T.);
#201=EDGE_CURVE('',#168,#169,#108,.T.);
#202=EDGE_CURVE('',#169,#169,#141,.T.);
#203=EDGE_CURVE('',#170,#170,#142,.T.);
#204=EDGE_CURVE('',#170,#171,#109,.T.);
#205=EDGE_CURVE('',#171,#171,#143,.T.);
#206=EDGE_CURVE('',#172,#172,#144,.T.);
#207=EDGE_CURVE('',#172,#173,#110,.T.);
#208=EDGE_CURVE('',#173,#173,#145,.T.);
#209=EDGE_CURVE('',#174,#174,#146,.T.);
#210=EDGE_CURVE('',#174,#175,#111,.T.);
#211=EDGE_CURVE('',#175,#175,#147,.T.);
#212=EDGE_CURVE('',#176,#176,#148,.T.);
#213=EDGE_CURVE('',#176,#177,#112,.T.);
#214=EDGE_CURVE('',#177,#177,#149,.T.);
#215=EDGE_CURVE('',#178,#178,#150,.T.);
#216=EDGE_CURVE('',#178,#179,#113,.T.);
#217=EDGE_CURVE('',#179,#179,#151,.T.);
#218=EDGE_CURVE('',#180,#180,#152,.T.);
#219=EDGE_CURVE('',#180,#181,#114,.T.);
#220=EDGE_CURVE('',#181,#181,#153,.T.);
#221=EDGE_CURVE('',#182,#182,#154,.T.);
#222=EDGE_CURVE('',#182,#183,#115,.T.);
#223=EDGE_CURVE('',#183,#183,#155,.T.);
#224=EDGE_CURVE('',#184,#184,#156,.T.);
#225=EDGE_CURVE('',#184,#185,#116,.T.);
#226=EDGE_CURVE('',#185,#185,#157,.T.);
#227=ORIENTED_EDGE('',*,*,#186,.F.);
#228=ORIENTED_EDGE('',*,*,#187,.T.);
#229=ORIENTED_EDGE('',*,*,#188,.F.);
#230=ORIENTED_EDGE('',*,*,#187,.F.);
#231=ORIENTED_EDGE('',*,*,#189,.F.);
#232=ORIENTED_EDGE('',*,*,#190,.T.);
#233=ORIENTED_EDGE('',*,*,#191,.F.);
#234=ORIENTED_EDGE('',*,*,#190,.F.);
#235=ORIENTED_EDGE('',*,*,#192,.F.);
#236=ORIENTED_EDGE('',*,*,#193,.T.);
#237=ORIENTED_EDGE('',*,*,#194,.F.);
#238=ORIENTED_EDGE('',*,*,#193,.F.);
#239=ORIENTED_EDGE('',*,*,#195,.F.);
#240=ORIENTED_EDGE('',*,*,#196,.T.);
#241=ORIENTED_EDGE('',*,*,#197,.F.);
#242=ORIENTED_EDGE('',*,*,#196,.F.);
#243=ORIENTED_EDGE('',*,*,#198,.T.);
#244=ORIENTED_EDGE('',*,*,#199,.F.);
#245=ORIENTED_EDGE('',*,*,#198,.F.);
#246=ORIENTED_EDGE('',*,*,#200,.F.);
#247=ORIENTED_EDGE('',*,*,#201,.T.);
#248=ORIENTED_EDGE('',*,*,#202,.F.);
#249=ORIENTED_EDGE('',*,*,#201,.F.);
#250=ORIENTED_EDGE('',*,*,#203,.F.);
#251=ORIENTED_EDGE('',*,*,#204,.T.);
#252=ORIENTED_EDGE('',*,*,#205,.F.);
#253=ORIENTED_EDGE('',*,*,#204,.F.);
#254=ORIENTED_EDGE('',*,*,#206,.F.);
#255=ORIENTED_EDGE('',*,*,#207,.T.);
#256=ORIENTED_EDGE('',*,*,#208,.F.);
#257=ORIENTED_EDGE('',*,*,#207,.F.);
#258=ORIENTED_EDGE('',*,*,#209,.F.);
#259=ORIENTED_EDGE('',*,*,#210,.T.);
#260=ORIENTED_EDGE('',*,*,#211,.F.);
#261=ORIENTED_EDGE('',*,*,#210,.F.);
#262=ORIENTED_EDGE('',*,*,#212,.F.);
#263=ORIENTED_EDGE('',*,*,#213,.T.);
#264=ORIENTED_EDGE('',*,*,#214,.F.);
#265=ORIENTED_EDGE('',*,*,#213,.F.);
#266=ORIENTED_EDGE('',*,*,#215,.F.);
#267=ORIENTED_EDGE('',*,*,#216,.T.);
#268=ORIENTED_EDGE('',*,*,#217,.F.);
#269=ORIENTED_EDGE('',*,*,#216,.F.);
#270=ORIENTED_EDGE('',*,*,#218,.F.);
#271=ORIENTED_EDGE('',*,*,#219,.T.);
#272=ORIENTED_EDGE('',*,*,#220,.F.);
#273=ORIENTED_EDGE('',*,*,#219,.F.);
#274=ORIENTED_EDGE('',*,*,#221,.F.);
#275=ORIENTED_EDGE('',*,*,#222,.T.);
#276=ORIENTED_EDGE('',*,*,#223,.F.);
#277=ORIENTED_EDGE('',*,*,#222,.F.);
#278=ORIENTED_EDGE('',*,*,#224,.F.);
#279=ORIENTED_EDGE('',*,*,#225,.T.);
#280=ORIENTED_EDGE('',*,*,#226,.T.);
#281=ORIENTED_EDGE('',*,*,#225,.F.);
#282=ORIENTED_EDGE('',*,*,#224,.T.);
#283=ORIENTED_EDGE('',*,*,#186,.T.);
#284=ORIENTED_EDGE('',*,*,#189,.T.);
#285=ORIENTED_EDGE('',*,*,#192,.T.);
#286=ORIENTED_EDGE('',*,*,#195,.T.);
#287=ORIENTED_EDGE('',*,*,#200,.T.);
#288=ORIENTED_EDGE('',*,*,#203,.T.);
#289=ORIENTED_EDGE('',*,*,#206,.T.);
#290=ORIENTED_EDGE('',*,*,#209,.T.);
#291=ORIENTED_EDGE('',*,*,#212,.T.);
#292=ORIENTED_EDGE('',*,*,#215,.T.);
#293=ORIENTED_EDGE('',*,*,#218,.T.);
#294=ORIENTED_EDGE('',*,*,#221,.T.);
#295=ORIENTED_EDGE('',*,*,#226,.F.);
#296=ORIENTED_EDGE('',*,*,#188,.T.);
#297=ORIENTED_EDGE('',*,*,#191,.T.);
#298=ORIENTED_EDGE('',*,*,#194,.T.);
#299=ORIENTED_EDGE('',*,*,#197,.T.);
#300=ORIENTED_EDGE('',*,*,#199,.T.);
#301=ORIENTED_EDGE('',*,*,#202,.T.);
#302=ORIENTED_EDGE('',*,*,#205,.T.);
#303=ORIENTED_EDGE('',*,*,#208,.T.);
#304=ORIENTED_EDGE('',*,*,#211,.T.);
#305=ORIENTED_EDGE('',*,*,#214,.T.);
#306=ORIENTED_EDGE('',*,*,#217,.T.);
#307=ORIENTED_EDGE('',*,*,#220,.T.);
#308=ORIENTED_EDGE('',*,*,#223,.T.);
#309=CYLINDRICAL_SURFACE('',#361,2.75);
#310=CYLINDRICAL_SURFACE('',#364,2.75);
#311=CYLINDRICAL_SURFACE('',#367,2.75);
#312=CYLINDRICAL_SURFACE('',#370,2.75);
#313=CYLINDRICAL_SURFACE('',#375,1.);
#314=CYLINDRICAL_SURFACE('',#378,1.);
#315=CYLINDRICAL_SURFACE('',#381,1.);
#316=CYLINDRICAL_SURFACE('',#384,1.);
#317=CYLINDRICAL_SURFACE('',#387,1.);
#318=CYLINDRICAL_SURFACE('',#390,1.);
#319=CYLINDRICAL_SURFACE('',#393,1.);
#320=CYLINDRICAL_SURFACE('',#396,0.999999999999999);
#321=CYLINDRICAL_SURFACE('',#399,27.5);
#322=ADVANCED_FACE('',(#46),#309,.F.);
#323=ADVANCED_FACE('',(#47),#310,.F.);
#324=ADVANCED_FACE('',(#48),#311,.F.);
#325=ADVANCED_FACE('',(#49),#312,.F.);
#326=ADVANCED_FACE('',(#50),#45,.T.);
#327=ADVANCED_FACE('',(#51),#313,.F.);
#328=ADVANCED_FACE('',(#52),#314,.F.);
#329=ADVANCED_FACE('',(#53),#315,.F.);
#330=ADVANCED_FACE('',(#54),#316,.F.);
#331=ADVANCED_FACE('',(#55),#317,.F.);
#332=ADVANCED_FACE('',(#56),#318,.F.);
#333=ADVANCED_FACE('',(#57),#319,.F.);
#334=ADVANCED_FACE('',(#58),#320,.F.);
#335=ADVANCED_FACE('',(#59),#321,.T.);
#336=ADVANCED_FACE('',(#60,#18,#19,#20,#21,#22,#23,#24,#25,#26,#27,#28,
#29),#43,.T.);
#337=ADVANCED_FACE('',(#61,#30,#31,#32,#33,#34,#35,#36,#37,#38,#39,#40,
#41,#42),#44,.F.);
#338=CLOSED_SHELL('',(#322,#323,#324,#325,#326,#327,#328,#329,#330,#331,
#332,#333,#334,#335,#336,#337));
#339=DERIVED_UNIT_ELEMENT(#342,1.);
#340=DERIVED_UNIT_ELEMENT(#598,-3.);
#341=DIMENSIONAL_EXPONENTS(0.,1.,0.,0.,0.,0.,0.);
#342=(
CONVERSION_BASED_UNIT('gram',#344)
MASS_UNIT()
NAMED_UNIT(#341)
);
#343=(
MASS_UNIT()
NAMED_UNIT(*)
SI_UNIT(.KILO.,.GRAM.)
);
#344=MASS_MEASURE_WITH_UNIT(MASS_MEASURE(0.001),#343);
#345=DERIVED_UNIT((#339,#340));
#346=MEASURE_REPRESENTATION_ITEM('density measure',
POSITIVE_RATIO_MEASURE(1.),#345);
#347=PROPERTY_DEFINITION_REPRESENTATION(#352,#349);
#348=PROPERTY_DEFINITION_REPRESENTATION(#353,#350);
#349=REPRESENTATION('material name',(#351),#595);
#350=REPRESENTATION('density',(#346),#595);
#351=DESCRIPTIVE_REPRESENTATION_ITEM('Gen\X\E9rico','Gen\X\E9rico');
#352=PROPERTY_DEFINITION('material property','material name',#605);
#353=PROPERTY_DEFINITION('material property','density of part',#605);
#354=DATE_TIME_ROLE('creation_date');
#355=APPLIED_DATE_AND_TIME_ASSIGNMENT(#356,#354,(#605));
#356=DATE_AND_TIME(#357,#358);
#357=CALENDAR_DATE(2025,4,12);
#358=LOCAL_TIME(0,0,0.,#359);
#359=COORDINATED_UNIVERSAL_TIME_OFFSET(0,0,.BEHIND.);
#360=AXIS2_PLACEMENT_3D('',#506,#404,#405);
#361=AXIS2_PLACEMENT_3D('',#507,#406,#407);
#362=AXIS2_PLACEMENT_3D('',#509,#408,#409);
#363=AXIS2_PLACEMENT_3D('',#512,#411,#412);
#364=AXIS2_PLACEMENT_3D('',#513,#413,#414);
#365=AXIS2_PLACEMENT_3D('',#515,#415,#416);
#366=AXIS2_PLACEMENT_3D('',#518,#418,#419);
#367=AXIS2_PLACEMENT_3D('',#519,#420,#421);
#368=AXIS2_PLACEMENT_3D('',#521,#422,#423);
#369=AXIS2_PLACEMENT_3D('',#524,#425,#426);
#370=AXIS2_PLACEMENT_3D('',#525,#427,#428);
#371=AXIS2_PLACEMENT_3D('',#527,#429,#430);
#372=AXIS2_PLACEMENT_3D('',#530,#432,#433);
#373=AXIS2_PLACEMENT_3D('',#531,#434,#435);
#374=AXIS2_PLACEMENT_3D('',#535,#437,#438);
#375=AXIS2_PLACEMENT_3D('',#536,#439,#440);
#376=AXIS2_PLACEMENT_3D('',#538,#441,#442);
#377=AXIS2_PLACEMENT_3D('',#541,#444,#445);
#378=AXIS2_PLACEMENT_3D('',#542,#446,#447);
#379=AXIS2_PLACEMENT_3D('',#544,#448,#449);
#380=AXIS2_PLACEMENT_3D('',#547,#451,#452);
#381=AXIS2_PLACEMENT_3D('',#548,#453,#454);
#382=AXIS2_PLACEMENT_3D('',#550,#455,#456);
#383=AXIS2_PLACEMENT_3D('',#553,#458,#459);
#384=AXIS2_PLACEMENT_3D('',#554,#460,#461);
#385=AXIS2_PLACEMENT_3D('',#556,#462,#463);
#386=AXIS2_PLACEMENT_3D('',#559,#465,#466);
#387=AXIS2_PLACEMENT_3D('',#560,#467,#468);
#388=AXIS2_PLACEMENT_3D('',#562,#469,#470);
#389=AXIS2_PLACEMENT_3D('',#565,#472,#473);
#390=AXIS2_PLACEMENT_3D('',#566,#474,#475);
#391=AXIS2_PLACEMENT_3D('',#568,#476,#477);
#392=AXIS2_PLACEMENT_3D('',#571,#479,#480);
#393=AXIS2_PLACEMENT_3D('',#572,#481,#482);
#394=AXIS2_PLACEMENT_3D('',#574,#483,#484);
#395=AXIS2_PLACEMENT_3D('',#577,#486,#487);
#396=AXIS2_PLACEMENT_3D('',#578,#488,#489);
#397=AXIS2_PLACEMENT_3D('',#580,#490,#491);
#398=AXIS2_PLACEMENT_3D('',#583,#493,#494);
#399=AXIS2_PLACEMENT_3D('',#584,#495,#496);
#400=AXIS2_PLACEMENT_3D('',#586,#497,#498);
#401=AXIS2_PLACEMENT_3D('',#589,#500,#501);
#402=AXIS2_PLACEMENT_3D('',#590,#502,#503);
#403=AXIS2_PLACEMENT_3D('',#591,#504,#505);
#404=DIRECTION('axis',(0.,0.,1.));
#405=DIRECTION('refdir',(1.,0.,0.));
#406=DIRECTION('center_axis',(0.,-1.,0.));
#407=DIRECTION('ref_axis',(1.,0.,0.));
#408=DIRECTION('center_axis',(0.,-1.,0.));
#409=DIRECTION('ref_axis',(1.,0.,0.));
#410=DIRECTION('',(0.,-1.,0.));
#411=DIRECTION('center_axis',(0.,1.,0.));
#412=DIRECTION('ref_axis',(1.,0.,0.));
#413=DIRECTION('center_axis',(0.,-1.,0.));
#414=DIRECTION('ref_axis',(1.,0.,0.));
#415=DIRECTION('center_axis',(0.,-1.,0.));
#416=DIRECTION('ref_axis',(1.,0.,0.));
#417=DIRECTION('',(0.,-1.,0.));
#418=DIRECTION('center_axis',(0.,1.,0.));
#419=DIRECTION('ref_axis',(1.,0.,0.));
#420=DIRECTION('center_axis',(0.,-1.,0.));
#421=DIRECTION('ref_axis',(1.,0.,0.));
#422=DIRECTION('center_axis',(0.,-1.,0.));
#423=DIRECTION('ref_axis',(1.,0.,0.));
#424=DIRECTION('',(0.,-1.,0.));
#425=DIRECTION('center_axis',(0.,1.,0.));
#426=DIRECTION('ref_axis',(1.,0.,0.));
#427=DIRECTION('center_axis',(0.,-1.,0.));
#428=DIRECTION('ref_axis',(1.,0.,0.));
#429=DIRECTION('center_axis',(0.,-1.,0.));
#430=DIRECTION('ref_axis',(1.,0.,0.));
#431=DIRECTION('',(0.,-1.,0.));
#432=DIRECTION('center_axis',(0.,1.,0.));
#433=DIRECTION('ref_axis',(1.,0.,0.));
#434=DIRECTION('center_axis',(-1.22464679914735E-16,1.,0.));
#435=DIRECTION('ref_axis',(-1.,-1.22464679914735E-16,0.));
#436=DIRECTION('',(0.819970756398771,0.57240541458902,1.00417456221819E-16));
#437=DIRECTION('center_axis',(0.,1.,0.));
#438=DIRECTION('ref_axis',(-1.,-1.22464679914735E-16,0.));
#439=DIRECTION('center_axis',(0.,-1.,0.));
#440=DIRECTION('ref_axis',(1.,0.,0.));
#441=DIRECTION('center_axis',(0.,-1.,0.));
#442=DIRECTION('ref_axis',(1.,0.,0.));
#443=DIRECTION('',(0.,-1.,0.));
#444=DIRECTION('center_axis',(0.,1.,0.));
#445=DIRECTION('ref_axis',(1.,0.,0.));
#446=DIRECTION('center_axis',(0.,-1.,0.));
#447=DIRECTION('ref_axis',(1.,0.,0.));
#448=DIRECTION('center_axis',(0.,-1.,0.));
#449=DIRECTION('ref_axis',(1.,0.,0.));
#450=DIRECTION('',(0.,-1.,0.));
#451=DIRECTION('center_axis',(0.,1.,0.));
#452=DIRECTION('ref_axis',(1.,0.,0.));
#453=DIRECTION('center_axis',(0.,-1.,0.));
#454=DIRECTION('ref_axis',(1.,0.,0.));
#455=DIRECTION('center_axis',(0.,-1.,0.));
#456=DIRECTION('ref_axis',(1.,0.,0.));
#457=DIRECTION('',(0.,-1.,0.));
#458=DIRECTION('center_axis',(0.,1.,0.));
#459=DIRECTION('ref_axis',(1.,0.,0.));
#460=DIRECTION('center_axis',(0.,-1.,0.));
#461=DIRECTION('ref_axis',(1.,0.,0.));
#462=DIRECTION('center_axis',(0.,-1.,0.));
#463=DIRECTION('ref_axis',(1.,0.,0.));
#464=DIRECTION('',(0.,-1.,0.));
#465=DIRECTION('center_axis',(0.,1.,0.));
#466=DIRECTION('ref_axis',(1.,0.,0.));
#467=DIRECTION('center_axis',(0.,-1.,0.));
#468=DIRECTION('ref_axis',(1.,0.,0.));
#469=DIRECTION('center_axis',(0.,-1.,0.));
#470=DIRECTION('ref_axis',(1.,0.,0.));
#471=DIRECTION('',(0.,-1.,0.));
#472=DIRECTION('center_axis',(0.,1.,0.));
#473=DIRECTION('ref_axis',(1.,0.,0.));
#474=DIRECTION('center_axis',(0.,-1.,0.));
#475=DIRECTION('ref_axis',(1.,0.,0.));
#476=DIRECTION('center_axis',(0.,-1.,0.));
#477=DIRECTION('ref_axis',(1.,0.,0.));
#478=DIRECTION('',(0.,-1.,0.));
#479=DIRECTION('center_axis',(0.,1.,0.));
#480=DIRECTION('ref_axis',(1.,0.,0.));
#481=DIRECTION('center_axis',(0.,-1.,0.));
#482=DIRECTION('ref_axis',(1.,0.,0.));
#483=DIRECTION('center_axis',(0.,-1.,0.));
#484=DIRECTION('ref_axis',(1.,0.,0.));
#485=DIRECTION('',(0.,-1.,0.));
#486=DIRECTION('center_axis',(0.,1.,0.));
#487=DIRECTION('ref_axis',(1.,0.,0.));
#488=DIRECTION('center_axis',(0.,-1.,0.));
#489=DIRECTION('ref_axis',(1.,0.,0.));
#490=DIRECTION('center_axis',(0.,-1.,0.));
#491=DIRECTION('ref_axis',(1.,0.,0.));
#492=DIRECTION('',(0.,-1.,0.));
#493=DIRECTION('center_axis',(0.,1.,0.));
#494=DIRECTION('ref_axis',(1.,0.,0.));
#495=DIRECTION('center_axis',(0.,1.,0.));
#496=DIRECTION('ref_axis',(-1.,0.,0.));
#497=DIRECTION('center_axis',(0.,1.,0.));
#498=DIRECTION('ref_axis',(-1.,0.,0.));
#499=DIRECTION('',(0.,-1.,0.));
#500=DIRECTION('center_axis',(0.,1.,0.));
#501=DIRECTION('ref_axis',(-1.,0.,0.));
#502=DIRECTION('center_axis',(0.,1.,0.));
#503=DIRECTION('ref_axis',(0.,0.,1.));
#504=DIRECTION('center_axis',(0.,1.,0.));
#505=DIRECTION('ref_axis',(0.,0.,1.));
#506=CARTESIAN_POINT('',(0.,0.,0.));
#507=CARTESIAN_POINT('Origin',(23.75,2.,0.));
#508=CARTESIAN_POINT('',(21.,2.,-3.36777869765522E-16));
#509=CARTESIAN_POINT('Origin',(23.75,2.,0.));
#510=CARTESIAN_POINT('',(21.,0.,-3.36777869765522E-16));
#511=CARTESIAN_POINT('',(21.,2.,-3.36777869765522E-16));
#512=CARTESIAN_POINT('Origin',(23.75,0.,0.));
#513=CARTESIAN_POINT('Origin',(-1.3684555315672E-47,2.,-23.75));
#514=CARTESIAN_POINT('',(-2.75,2.,-23.75));
#515=CARTESIAN_POINT('Origin',(-1.3684555315672E-47,2.,-23.75));
#516=CARTESIAN_POINT('',(-2.75,0.,-23.75));
#517=CARTESIAN_POINT('',(-2.75,2.,-23.75));
#518=CARTESIAN_POINT('Origin',(-1.3684555315672E-47,0.,-23.75));
#519=CARTESIAN_POINT('Origin',(-1.3684555315672E-47,2.,23.75));
#520=CARTESIAN_POINT('',(-2.75,2.,23.75));
#521=CARTESIAN_POINT('Origin',(-1.3684555315672E-47,2.,23.75));
#522=CARTESIAN_POINT('',(-2.75,0.,23.75));
#523=CARTESIAN_POINT('',(-2.75,2.,23.75));
#524=CARTESIAN_POINT('Origin',(-1.3684555315672E-47,0.,23.75));
#525=CARTESIAN_POINT('Origin',(-23.75,2.,0.));
#526=CARTESIAN_POINT('',(-26.5,2.,-3.36777869765522E-16));
#527=CARTESIAN_POINT('Origin',(-23.75,2.,0.));
#528=CARTESIAN_POINT('',(-26.5,0.,-3.36777869765522E-16));
#529=CARTESIAN_POINT('',(-26.5,2.,-3.36777869765522E-16));
#530=CARTESIAN_POINT('Origin',(-23.75,0.,0.));
#531=CARTESIAN_POINT('Origin',(-1.07420294433156E-31,8.77153269889292E-16,
0.));
#532=CARTESIAN_POINT('',(6.12323399573677E-16,-5.,0.));
#533=CARTESIAN_POINT('',(7.1625,2.17712315156556E-15,8.77153269889292E-16));
#534=CARTESIAN_POINT('',(7.1625,1.75430653977858E-15,8.77153269889292E-16));
#535=CARTESIAN_POINT('Origin',(-1.3684555315672E-47,0.,0.));
#536=CARTESIAN_POINT('Origin',(5.66925814905441,2.,-6.17911786895303));
#537=CARTESIAN_POINT('',(4.66925814905441,2.,-6.17911786895303));
#538=CARTESIAN_POINT('Origin',(5.66925814905441,2.,-6.17911786895303));
#539=CARTESIAN_POINT('',(4.66925814905441,0.,-6.17911786895303));
#540=CARTESIAN_POINT('',(4.66925814905441,2.,-6.17911786895303));
#541=CARTESIAN_POINT('Origin',(5.66925814905441,0.,-6.17911786895303));
#542=CARTESIAN_POINT('Origin',(-6.02696292147802,2.,-5.923373279832));
#543=CARTESIAN_POINT('',(-7.02696292147802,2.,-5.923373279832));
#544=CARTESIAN_POINT('Origin',(-6.02696292147802,2.,-5.923373279832));
#545=CARTESIAN_POINT('',(-7.02696292147802,0.,-5.923373279832));
#546=CARTESIAN_POINT('',(-7.02696292147802,2.,-5.923373279832));
#547=CARTESIAN_POINT('Origin',(-6.02696292147802,0.,-5.923373279832));
#548=CARTESIAN_POINT('Origin',(-8.36345830618862,2.,0.));
#549=CARTESIAN_POINT('',(-9.36345830618862,2.,-1.22464679914735E-16));
#550=CARTESIAN_POINT('Origin',(-8.36345830618862,2.,0.));
#551=CARTESIAN_POINT('',(-9.36345830618862,0.,1.22464679914735E-16));
#552=CARTESIAN_POINT('',(-9.36345830618862,2.,-1.22464679914735E-16));
#553=CARTESIAN_POINT('Origin',(-8.36345830618862,0.,0.));
#554=CARTESIAN_POINT('Origin',(8.45838835599149,2.,0.));
#555=CARTESIAN_POINT('',(7.45838835599149,2.,-1.22464679914735E-16));
#556=CARTESIAN_POINT('Origin',(8.45838835599149,2.,0.));
#557=CARTESIAN_POINT('',(7.45838835599149,0.,1.22464679914735E-16));
#558=CARTESIAN_POINT('',(7.45838835599149,2.,-1.22464679914735E-16));
#559=CARTESIAN_POINT('Origin',(8.45838835599149,0.,0.));
#560=CARTESIAN_POINT('Origin',(0.,2.,8.34465168548088));
#561=CARTESIAN_POINT('',(-1.,2.,8.34465168548088));
#562=CARTESIAN_POINT('Origin',(0.,2.,8.34465168548088));
#563=CARTESIAN_POINT('',(-1.,0.,8.34465168548088));
#564=CARTESIAN_POINT('',(-1.,2.,8.34465168548088));
#565=CARTESIAN_POINT('Origin',(0.,0.,8.34465168548088));
#566=CARTESIAN_POINT('Origin',(0.,2.,-8.37272109107947));
#567=CARTESIAN_POINT('',(-1.,2.,-8.37272109107947));
#568=CARTESIAN_POINT('Origin',(0.,2.,-8.37272109107947));
#569=CARTESIAN_POINT('',(-1.,0.,-8.37272109107947));
#570=CARTESIAN_POINT('',(-1.,2.,-8.37272109107947));
#571=CARTESIAN_POINT('Origin',(0.,0.,-8.37272109107947));
#572=CARTESIAN_POINT('Origin',(-5.91966281504525,2.,5.90916489354203));
#573=CARTESIAN_POINT('',(-6.91966281504525,2.,5.90916489354203));
#574=CARTESIAN_POINT('Origin',(-5.91966281504525,2.,5.90916489354203));
#575=CARTESIAN_POINT('',(-6.91966281504525,0.,5.90916489354203));
#576=CARTESIAN_POINT('',(-6.91966281504525,2.,5.90916489354203));
#577=CARTESIAN_POINT('Origin',(-5.91966281504525,0.,5.90916489354203));
#578=CARTESIAN_POINT('Origin',(5.93570213238181,2.,5.78218117921553));
#579=CARTESIAN_POINT('',(4.93570213238181,2.,5.78218117921553));
#580=CARTESIAN_POINT('Origin',(5.93570213238181,2.,5.78218117921553));
#581=CARTESIAN_POINT('',(4.93570213238181,0.,5.78218117921553));
#582=CARTESIAN_POINT('',(4.93570213238181,2.,5.78218117921553));
#583=CARTESIAN_POINT('Origin',(5.93570213238181,0.,5.78218117921553));
#584=CARTESIAN_POINT('Origin',(0.,0.,0.));
#585=CARTESIAN_POINT('',(27.5,2.,-3.36777869765522E-15));
#586=CARTESIAN_POINT('Origin',(0.,2.,0.));
#587=CARTESIAN_POINT('',(27.5,0.,-3.36777869765522E-15));
#588=CARTESIAN_POINT('',(27.5,0.,-3.36777869765522E-15));
#589=CARTESIAN_POINT('Origin',(0.,0.,0.));
#590=CARTESIAN_POINT('Origin',(0.,2.,0.));
#591=CARTESIAN_POINT('Origin',(0.,0.,0.));
#592=CARTESIAN_POINT('',(0.,2.,0.));
#593=UNCERTAINTY_MEASURE_WITH_UNIT(LENGTH_MEASURE(0.01),#597,
'DISTANCE_ACCURACY_VALUE',
'Maximum model space distance between geometric entities at asserted c
onnectivities');
#594=UNCERTAINTY_MEASURE_WITH_UNIT(LENGTH_MEASURE(0.01),#597,
'DISTANCE_ACCURACY_VALUE',
'Maximum model space distance between geometric entities at asserted c
onnectivities');
#595=(
GEOMETRIC_REPRESENTATION_CONTEXT(3)
GLOBAL_UNCERTAINTY_ASSIGNED_CONTEXT((#593))
GLOBAL_UNIT_ASSIGNED_CONTEXT((#597,#599,#600))
REPRESENTATION_CONTEXT('','3D')
);
#596=(
GEOMETRIC_REPRESENTATION_CONTEXT(3)
GLOBAL_UNCERTAINTY_ASSIGNED_CONTEXT((#594))
GLOBAL_UNIT_ASSIGNED_CONTEXT((#597,#599,#600))
REPRESENTATION_CONTEXT('','3D')
);
#597=(
LENGTH_UNIT()
NAMED_UNIT(*)
SI_UNIT(.MILLI.,.METRE.)
);
#598=(
LENGTH_UNIT()
NAMED_UNIT(*)
SI_UNIT(.CENTI.,.METRE.)
);
#599=(
NAMED_UNIT(*)
PLANE_ANGLE_UNIT()
SI_UNIT($,.RADIAN.)
);
#600=(
NAMED_UNIT(*)
SI_UNIT($,.STERADIAN.)
SOLID_ANGLE_UNIT()
);
#601=SHAPE_DEFINITION_REPRESENTATION(#602,#603);
#602=PRODUCT_DEFINITION_SHAPE('',$,#605);
#603=SHAPE_REPRESENTATION('',(#360),#595);
#604=PRODUCT_DEFINITION_CONTEXT('part definition',#609,'design');
#605=PRODUCT_DEFINITION('placa para pellet','placa para pellet',#606,#604);
#606=PRODUCT_DEFINITION_FORMATION('',$,#611);
#607=PRODUCT_RELATED_PRODUCT_CATEGORY('placa para pellet',
'placa para pellet',(#611));
#608=APPLICATION_PROTOCOL_DEFINITION('international standard',
'automotive_design',2009,#609);
#609=APPLICATION_CONTEXT(
'Core Data for Automotive Mechanical Design Process');
#610=PRODUCT_CONTEXT('part definition',#609,'mechanical');
#611=PRODUCT('placa para pellet','placa para pellet',$,(#610));
#612=PRESENTATION_STYLE_ASSIGNMENT((#614));
#613=PRESENTATION_STYLE_ASSIGNMENT((#615));
#614=SURFACE_STYLE_USAGE(.BOTH.,#618);
#615=SURFACE_STYLE_USAGE(.BOTH.,#619);
#616=SURFACE_STYLE_RENDERING_WITH_PROPERTIES($,#626,(#617));
#617=SURFACE_STYLE_TRANSPARENT(0.);
#618=SURFACE_SIDE_STYLE('',(#620,#616));
#619=SURFACE_SIDE_STYLE('',(#621));
#620=SURFACE_STYLE_FILL_AREA(#622);
#621=SURFACE_STYLE_FILL_AREA(#623);
#622=FILL_AREA_STYLE('',(#624));
#623=FILL_AREA_STYLE('',(#625));
#624=FILL_AREA_STYLE_COLOUR('',#626);
#625=FILL_AREA_STYLE_COLOUR('',#627);
#626=COLOUR_RGB('',0.749019607843137,0.749019607843137,0.749019607843137);
#627=COLOUR_RGB('',0.913725490196078,0.913725490196078,0.);
ENDSEC;
END-ISO-10303-21;
