ISO-10303-21;
HEADER;
/* Generated by software containing ST-Developer
 * from STEP Tools, Inc. (www.steptools.com) 
 */

FILE_DESCRIPTION(
/* description */ (''),
/* implementation_level */ '2;1');

FILE_NAME(
/* name */ 'tolva.stp',
/* time_stamp */ '2025-12-28T22:22:47-03:00',
/* author */ ('TUF GAMING F15'),
/* organization */ (''),
/* preprocessor_version */ 'ST-DEVELOPER v20.1',
/* originating_system */ 'Autodesk Inventor 2026',
/* authorisation */ '');

FILE_SCHEMA (('AUTOMOTIVE_DESIGN { 1 0 10303 214 3 1 1 }'));
ENDSEC;

DATA;
#10=MECHANICAL_DESIGN_GEOMETRIC_PRESENTATION_REPRESENTATION('',(#16),#762);
#11=GEOMETRICALLY_BOUNDED_WIREFRAME_SHAPE_REPRESENTATION('',(#12),#761);
#12=GEOMETRIC_CURVE_SET('Boceto3',(#758));
#13=SHAPE_REPRESENTATION_RELATIONSHIP('SRR','None',#769,#15);
#14=SHAPE_REPRESENTATION_RELATIONSHIP('SRR','None',#769,#11);
#15=ADVANCED_BREP_SHAPE_REPRESENTATION('',(#17),#761);
#16=STYLED_ITEM('',(#778),#17);
#17=MANIFOLD_SOLID_BREP('S\X\F3lido1',#468);
#18=FACE_BOUND('',#55,.T.);
#19=FACE_BOUND('',#69,.T.);
#20=FACE_BOUND('',#77,.T.);
#21=FACE_OUTER_BOUND('',#48,.T.);
#22=FACE_OUTER_BOUND('',#49,.T.);
#23=FACE_OUTER_BOUND('',#50,.T.);
#24=FACE_OUTER_BOUND('',#51,.T.);
#25=FACE_OUTER_BOUND('',#52,.T.);
#26=FACE_OUTER_BOUND('',#53,.T.);
#27=FACE_OUTER_BOUND('',#54,.T.);
#28=FACE_OUTER_BOUND('',#56,.T.);
#29=FACE_OUTER_BOUND('',#57,.T.);
#30=FACE_OUTER_BOUND('',#58,.T.);
#31=FACE_OUTER_BOUND('',#59,.T.);
#32=FACE_OUTER_BOUND('',#60,.T.);
#33=FACE_OUTER_BOUND('',#61,.T.);
#34=FACE_OUTER_BOUND('',#62,.T.);
#35=FACE_OUTER_BOUND('',#63,.T.);
#36=FACE_OUTER_BOUND('',#64,.T.);
#37=FACE_OUTER_BOUND('',#65,.T.);
#38=FACE_OUTER_BOUND('',#66,.T.);
#39=FACE_OUTER_BOUND('',#67,.T.);
#40=FACE_OUTER_BOUND('',#68,.T.);
#41=FACE_OUTER_BOUND('',#70,.T.);
#42=FACE_OUTER_BOUND('',#71,.T.);
#43=FACE_OUTER_BOUND('',#72,.T.);
#44=FACE_OUTER_BOUND('',#73,.T.);
#45=FACE_OUTER_BOUND('',#74,.T.);
#46=FACE_OUTER_BOUND('',#75,.T.);
#47=FACE_OUTER_BOUND('',#76,.T.);
#48=EDGE_LOOP('',(#294,#295,#296,#297));
#49=EDGE_LOOP('',(#298,#299,#300,#301));
#50=EDGE_LOOP('',(#302,#303,#304,#305));
#51=EDGE_LOOP('',(#306,#307,#308,#309));
#52=EDGE_LOOP('',(#310,#311,#312,#313));
#53=EDGE_LOOP('',(#314,#315,#316,#317));
#54=EDGE_LOOP('',(#318,#319,#320,#321));
#55=EDGE_LOOP('',(#322,#323,#324,#325));
#56=EDGE_LOOP('',(#326,#327,#328,#329));
#57=EDGE_LOOP('',(#330,#331,#332,#333));
#58=EDGE_LOOP('',(#334,#335,#336,#337));
#59=EDGE_LOOP('',(#338,#339,#340,#341));
#60=EDGE_LOOP('',(#342,#343,#344,#345));
#61=EDGE_LOOP('',(#346,#347,#348,#349));
#62=EDGE_LOOP('',(#350,#351,#352,#353));
#63=EDGE_LOOP('',(#354,#355,#356,#357));
#64=EDGE_LOOP('',(#358,#359,#360,#361));
#65=EDGE_LOOP('',(#362,#363,#364,#365));
#66=EDGE_LOOP('',(#366,#367,#368,#369));
#67=EDGE_LOOP('',(#370,#371,#372,#373));
#68=EDGE_LOOP('',(#374,#375,#376,#377));
#69=EDGE_LOOP('',(#378,#379,#380,#381));
#70=EDGE_LOOP('',(#382,#383,#384,#385));
#71=EDGE_LOOP('',(#386,#387,#388,#389));
#72=EDGE_LOOP('',(#390,#391,#392,#393));
#73=EDGE_LOOP('',(#394,#395,#396,#397));
#74=EDGE_LOOP('',(#398,#399,#400,#401));
#75=EDGE_LOOP('',(#402,#403,#404,#405));
#76=EDGE_LOOP('',(#406,#407,#408,#409));
#77=EDGE_LOOP('',(#410,#411,#412,#413));
#78=LINE('',#638,#138);
#79=LINE('',#640,#139);
#80=LINE('',#642,#140);
#81=LINE('',#643,#141);
#82=LINE('',#646,#142);
#83=LINE('',#648,#143);
#84=LINE('',#649,#144);
#85=LINE('',#652,#145);
#86=LINE('',#654,#146);
#87=LINE('',#655,#147);
#88=LINE('',#657,#148);
#89=LINE('',#658,#149);
#90=LINE('',#661,#150);
#91=LINE('',#663,#151);
#92=LINE('',#664,#152);
#93=LINE('',#667,#153);
#94=LINE('',#668,#154);
#95=LINE('',#672,#155);
#96=LINE('',#674,#156);
#97=LINE('',#676,#157);
#98=LINE('',#677,#158);
#99=LINE('',#681,#159);
#100=LINE('',#682,#160);
#101=LINE('',#683,#161);
#102=LINE('',#686,#162);
#103=LINE('',#687,#163);
#104=LINE('',#690,#164);
#105=LINE('',#691,#165);
#106=LINE('',#693,#166);
#107=LINE('',#697,#167);
#108=LINE('',#699,#168);
#109=LINE('',#701,#169);
#110=LINE('',#702,#170);
#111=LINE('',#705,#171);
#112=LINE('',#707,#172);
#113=LINE('',#708,#173);
#114=LINE('',#711,#174);
#115=LINE('',#713,#175);
#116=LINE('',#714,#176);
#117=LINE('',#716,#177);
#118=LINE('',#717,#178);
#119=LINE('',#720,#179);
#120=LINE('',#722,#180);
#121=LINE('',#723,#181);
#122=LINE('',#726,#182);
#123=LINE('',#727,#183);
#124=LINE('',#730,#184);
#125=LINE('',#731,#185);
#126=LINE('',#733,#186);
#127=LINE('',#737,#187);
#128=LINE('',#738,#188);
#129=LINE('',#740,#189);
#130=LINE('',#743,#190);
#131=LINE('',#745,#191);
#132=LINE('',#746,#192);
#133=LINE('',#749,#193);
#134=LINE('',#750,#194);
#135=LINE('',#753,#195);
#136=LINE('',#754,#196);
#137=LINE('',#756,#197);
#138=VECTOR('',#522,10.);
#139=VECTOR('',#523,10.);
#140=VECTOR('',#524,10.);
#141=VECTOR('',#525,10.);
#142=VECTOR('',#528,10.);
#143=VECTOR('',#529,10.);
#144=VECTOR('',#530,10.);
#145=VECTOR('',#533,10.);
#146=VECTOR('',#534,10.);
#147=VECTOR('',#535,10.);
#148=VECTOR('',#538,10.);
#149=VECTOR('',#539,10.);
#150=VECTOR('',#542,10.);
#151=VECTOR('',#543,10.);
#152=VECTOR('',#544,10.);
#153=VECTOR('',#547,10.);
#154=VECTOR('',#548,10.);
#155=VECTOR('',#551,10.);
#156=VECTOR('',#552,10.);
#157=VECTOR('',#553,10.);
#158=VECTOR('',#554,10.);
#159=VECTOR('',#557,10.);
#160=VECTOR('',#558,10.);
#161=VECTOR('',#559,10.);
#162=VECTOR('',#562,10.);
#163=VECTOR('',#563,10.);
#164=VECTOR('',#566,10.);
#165=VECTOR('',#567,10.);
#166=VECTOR('',#570,10.);
#167=VECTOR('',#573,10.);
#168=VECTOR('',#574,10.);
#169=VECTOR('',#575,10.);
#170=VECTOR('',#576,10.);
#171=VECTOR('',#579,10.);
#172=VECTOR('',#580,10.);
#173=VECTOR('',#581,10.);
#174=VECTOR('',#584,10.);
#175=VECTOR('',#585,10.);
#176=VECTOR('',#586,10.);
#177=VECTOR('',#589,10.);
#178=VECTOR('',#590,10.);
#179=VECTOR('',#593,10.);
#180=VECTOR('',#594,10.);
#181=VECTOR('',#595,10.);
#182=VECTOR('',#598,10.);
#183=VECTOR('',#599,10.);
#184=VECTOR('',#602,10.);
#185=VECTOR('',#603,10.);
#186=VECTOR('',#606,10.);
#187=VECTOR('',#611,10.);
#188=VECTOR('',#612,10.);
#189=VECTOR('',#615,10.);
#190=VECTOR('',#618,10.);
#191=VECTOR('',#619,10.);
#192=VECTOR('',#620,10.);
#193=VECTOR('',#623,10.);
#194=VECTOR('',#624,10.);
#195=VECTOR('',#627,10.);
#196=VECTOR('',#628,10.);
#197=VECTOR('',#631,10.);
#198=VERTEX_POINT('',#636);
#199=VERTEX_POINT('',#637);
#200=VERTEX_POINT('',#639);
#201=VERTEX_POINT('',#641);
#202=VERTEX_POINT('',#645);
#203=VERTEX_POINT('',#647);
#204=VERTEX_POINT('',#651);
#205=VERTEX_POINT('',#653);
#206=VERTEX_POINT('',#660);
#207=VERTEX_POINT('',#662);
#208=VERTEX_POINT('',#666);
#209=VERTEX_POINT('',#670);
#210=VERTEX_POINT('',#671);
#211=VERTEX_POINT('',#673);
#212=VERTEX_POINT('',#675);
#213=VERTEX_POINT('',#679);
#214=VERTEX_POINT('',#680);
#215=VERTEX_POINT('',#685);
#216=VERTEX_POINT('',#689);
#217=VERTEX_POINT('',#695);
#218=VERTEX_POINT('',#696);
#219=VERTEX_POINT('',#698);
#220=VERTEX_POINT('',#700);
#221=VERTEX_POINT('',#704);
#222=VERTEX_POINT('',#706);
#223=VERTEX_POINT('',#710);
#224=VERTEX_POINT('',#712);
#225=VERTEX_POINT('',#719);
#226=VERTEX_POINT('',#721);
#227=VERTEX_POINT('',#725);
#228=VERTEX_POINT('',#729);
#229=VERTEX_POINT('',#736);
#230=VERTEX_POINT('',#742);
#231=VERTEX_POINT('',#744);
#232=VERTEX_POINT('',#748);
#233=VERTEX_POINT('',#752);
#234=EDGE_CURVE('',#198,#199,#78,.T.);
#235=EDGE_CURVE('',#199,#200,#79,.T.);
#236=EDGE_CURVE('',#200,#201,#80,.T.);
#237=EDGE_CURVE('',#201,#198,#81,.T.);
#238=EDGE_CURVE('',#201,#202,#82,.T.);
#239=EDGE_CURVE('',#202,#203,#83,.T.);
#240=EDGE_CURVE('',#203,#198,#84,.T.);
#241=EDGE_CURVE('',#204,#203,#85,.T.);
#242=EDGE_CURVE('',#202,#205,#86,.T.);
#243=EDGE_CURVE('',#205,#204,#87,.T.);
#244=EDGE_CURVE('',#199,#204,#88,.T.);
#245=EDGE_CURVE('',#205,#200,#89,.T.);
#246=EDGE_CURVE('',#206,#201,#90,.T.);
#247=EDGE_CURVE('',#207,#206,#91,.T.);
#248=EDGE_CURVE('',#207,#202,#92,.T.);
#249=EDGE_CURVE('',#208,#200,#93,.T.);
#250=EDGE_CURVE('',#206,#208,#94,.T.);
#251=EDGE_CURVE('',#209,#210,#95,.T.);
#252=EDGE_CURVE('',#211,#209,#96,.T.);
#253=EDGE_CURVE('',#212,#211,#97,.T.);
#254=EDGE_CURVE('',#210,#212,#98,.T.);
#255=EDGE_CURVE('',#213,#214,#99,.T.);
#256=EDGE_CURVE('',#213,#211,#100,.T.);
#257=EDGE_CURVE('',#214,#209,#101,.T.);
#258=EDGE_CURVE('',#215,#213,#102,.T.);
#259=EDGE_CURVE('',#215,#212,#103,.T.);
#260=EDGE_CURVE('',#216,#215,#104,.T.);
#261=EDGE_CURVE('',#216,#210,#105,.T.);
#262=EDGE_CURVE('',#214,#216,#106,.T.);
#263=EDGE_CURVE('',#217,#218,#107,.T.);
#264=EDGE_CURVE('',#218,#219,#108,.T.);
#265=EDGE_CURVE('',#219,#220,#109,.T.);
#266=EDGE_CURVE('',#217,#220,#110,.T.);
#267=EDGE_CURVE('',#219,#221,#111,.T.);
#268=EDGE_CURVE('',#221,#222,#112,.T.);
#269=EDGE_CURVE('',#220,#222,#113,.T.);
#270=EDGE_CURVE('',#221,#223,#114,.T.);
#271=EDGE_CURVE('',#224,#223,#115,.T.);
#272=EDGE_CURVE('',#222,#224,#116,.T.);
#273=EDGE_CURVE('',#224,#217,#117,.T.);
#274=EDGE_CURVE('',#223,#218,#118,.T.);
#275=EDGE_CURVE('',#218,#225,#119,.T.);
#276=EDGE_CURVE('',#226,#225,#120,.T.);
#277=EDGE_CURVE('',#219,#226,#121,.T.);
#278=EDGE_CURVE('',#227,#226,#122,.T.);
#279=EDGE_CURVE('',#221,#227,#123,.T.);
#280=EDGE_CURVE('',#228,#227,#124,.T.);
#281=EDGE_CURVE('',#223,#228,#125,.T.);
#282=EDGE_CURVE('',#225,#228,#126,.T.);
#283=EDGE_CURVE('',#229,#207,#127,.T.);
#284=EDGE_CURVE('',#229,#205,#128,.T.);
#285=EDGE_CURVE('',#208,#229,#129,.T.);
#286=EDGE_CURVE('',#220,#230,#130,.T.);
#287=EDGE_CURVE('',#231,#230,#131,.T.);
#288=EDGE_CURVE('',#217,#231,#132,.T.);
#289=EDGE_CURVE('',#232,#231,#133,.T.);
#290=EDGE_CURVE('',#224,#232,#134,.T.);
#291=EDGE_CURVE('',#233,#232,#135,.T.);
#292=EDGE_CURVE('',#222,#233,#136,.T.);
#293=EDGE_CURVE('',#230,#233,#137,.T.);
#294=ORIENTED_EDGE('',*,*,#234,.T.);
#295=ORIENTED_EDGE('',*,*,#235,.T.);
#296=ORIENTED_EDGE('',*,*,#236,.T.);
#297=ORIENTED_EDGE('',*,*,#237,.T.);
#298=ORIENTED_EDGE('',*,*,#238,.T.);
#299=ORIENTED_EDGE('',*,*,#239,.T.);
#300=ORIENTED_EDGE('',*,*,#240,.T.);
#301=ORIENTED_EDGE('',*,*,#237,.F.);
#302=ORIENTED_EDGE('',*,*,#241,.T.);
#303=ORIENTED_EDGE('',*,*,#239,.F.);
#304=ORIENTED_EDGE('',*,*,#242,.T.);
#305=ORIENTED_EDGE('',*,*,#243,.T.);
#306=ORIENTED_EDGE('',*,*,#244,.T.);
#307=ORIENTED_EDGE('',*,*,#243,.F.);
#308=ORIENTED_EDGE('',*,*,#245,.T.);
#309=ORIENTED_EDGE('',*,*,#235,.F.);
#310=ORIENTED_EDGE('',*,*,#238,.F.);
#311=ORIENTED_EDGE('',*,*,#246,.F.);
#312=ORIENTED_EDGE('',*,*,#247,.F.);
#313=ORIENTED_EDGE('',*,*,#248,.T.);
#314=ORIENTED_EDGE('',*,*,#236,.F.);
#315=ORIENTED_EDGE('',*,*,#249,.F.);
#316=ORIENTED_EDGE('',*,*,#250,.F.);
#317=ORIENTED_EDGE('',*,*,#246,.T.);
#318=ORIENTED_EDGE('',*,*,#251,.F.);
#319=ORIENTED_EDGE('',*,*,#252,.F.);
#320=ORIENTED_EDGE('',*,*,#253,.F.);
#321=ORIENTED_EDGE('',*,*,#254,.F.);
#322=ORIENTED_EDGE('',*,*,#234,.F.);
#323=ORIENTED_EDGE('',*,*,#240,.F.);
#324=ORIENTED_EDGE('',*,*,#241,.F.);
#325=ORIENTED_EDGE('',*,*,#244,.F.);
#326=ORIENTED_EDGE('',*,*,#255,.F.);
#327=ORIENTED_EDGE('',*,*,#256,.T.);
#328=ORIENTED_EDGE('',*,*,#252,.T.);
#329=ORIENTED_EDGE('',*,*,#257,.F.);
#330=ORIENTED_EDGE('',*,*,#258,.F.);
#331=ORIENTED_EDGE('',*,*,#259,.T.);
#332=ORIENTED_EDGE('',*,*,#253,.T.);
#333=ORIENTED_EDGE('',*,*,#256,.F.);
#334=ORIENTED_EDGE('',*,*,#260,.F.);
#335=ORIENTED_EDGE('',*,*,#261,.T.);
#336=ORIENTED_EDGE('',*,*,#254,.T.);
#337=ORIENTED_EDGE('',*,*,#259,.F.);
#338=ORIENTED_EDGE('',*,*,#262,.F.);
#339=ORIENTED_EDGE('',*,*,#257,.T.);
#340=ORIENTED_EDGE('',*,*,#251,.T.);
#341=ORIENTED_EDGE('',*,*,#261,.F.);
#342=ORIENTED_EDGE('',*,*,#263,.T.);
#343=ORIENTED_EDGE('',*,*,#264,.T.);
#344=ORIENTED_EDGE('',*,*,#265,.T.);
#345=ORIENTED_EDGE('',*,*,#266,.F.);
#346=ORIENTED_EDGE('',*,*,#265,.F.);
#347=ORIENTED_EDGE('',*,*,#267,.T.);
#348=ORIENTED_EDGE('',*,*,#268,.T.);
#349=ORIENTED_EDGE('',*,*,#269,.F.);
#350=ORIENTED_EDGE('',*,*,#268,.F.);
#351=ORIENTED_EDGE('',*,*,#270,.T.);
#352=ORIENTED_EDGE('',*,*,#271,.F.);
#353=ORIENTED_EDGE('',*,*,#272,.F.);
#354=ORIENTED_EDGE('',*,*,#263,.F.);
#355=ORIENTED_EDGE('',*,*,#273,.F.);
#356=ORIENTED_EDGE('',*,*,#271,.T.);
#357=ORIENTED_EDGE('',*,*,#274,.T.);
#358=ORIENTED_EDGE('',*,*,#264,.F.);
#359=ORIENTED_EDGE('',*,*,#275,.T.);
#360=ORIENTED_EDGE('',*,*,#276,.F.);
#361=ORIENTED_EDGE('',*,*,#277,.F.);
#362=ORIENTED_EDGE('',*,*,#267,.F.);
#363=ORIENTED_EDGE('',*,*,#277,.T.);
#364=ORIENTED_EDGE('',*,*,#278,.F.);
#365=ORIENTED_EDGE('',*,*,#279,.F.);
#366=ORIENTED_EDGE('',*,*,#270,.F.);
#367=ORIENTED_EDGE('',*,*,#279,.T.);
#368=ORIENTED_EDGE('',*,*,#280,.F.);
#369=ORIENTED_EDGE('',*,*,#281,.F.);
#370=ORIENTED_EDGE('',*,*,#274,.F.);
#371=ORIENTED_EDGE('',*,*,#281,.T.);
#372=ORIENTED_EDGE('',*,*,#282,.F.);
#373=ORIENTED_EDGE('',*,*,#275,.F.);
#374=ORIENTED_EDGE('',*,*,#282,.T.);
#375=ORIENTED_EDGE('',*,*,#280,.T.);
#376=ORIENTED_EDGE('',*,*,#278,.T.);
#377=ORIENTED_EDGE('',*,*,#276,.T.);
#378=ORIENTED_EDGE('',*,*,#255,.T.);
#379=ORIENTED_EDGE('',*,*,#262,.T.);
#380=ORIENTED_EDGE('',*,*,#260,.T.);
#381=ORIENTED_EDGE('',*,*,#258,.T.);
#382=ORIENTED_EDGE('',*,*,#242,.F.);
#383=ORIENTED_EDGE('',*,*,#248,.F.);
#384=ORIENTED_EDGE('',*,*,#283,.F.);
#385=ORIENTED_EDGE('',*,*,#284,.T.);
#386=ORIENTED_EDGE('',*,*,#245,.F.);
#387=ORIENTED_EDGE('',*,*,#284,.F.);
#388=ORIENTED_EDGE('',*,*,#285,.F.);
#389=ORIENTED_EDGE('',*,*,#249,.T.);
#390=ORIENTED_EDGE('',*,*,#266,.T.);
#391=ORIENTED_EDGE('',*,*,#286,.T.);
#392=ORIENTED_EDGE('',*,*,#287,.F.);
#393=ORIENTED_EDGE('',*,*,#288,.F.);
#394=ORIENTED_EDGE('',*,*,#273,.T.);
#395=ORIENTED_EDGE('',*,*,#288,.T.);
#396=ORIENTED_EDGE('',*,*,#289,.F.);
#397=ORIENTED_EDGE('',*,*,#290,.F.);
#398=ORIENTED_EDGE('',*,*,#272,.T.);
#399=ORIENTED_EDGE('',*,*,#290,.T.);
#400=ORIENTED_EDGE('',*,*,#291,.F.);
#401=ORIENTED_EDGE('',*,*,#292,.F.);
#402=ORIENTED_EDGE('',*,*,#269,.T.);
#403=ORIENTED_EDGE('',*,*,#292,.T.);
#404=ORIENTED_EDGE('',*,*,#293,.F.);
#405=ORIENTED_EDGE('',*,*,#286,.F.);
#406=ORIENTED_EDGE('',*,*,#293,.T.);
#407=ORIENTED_EDGE('',*,*,#291,.T.);
#408=ORIENTED_EDGE('',*,*,#289,.T.);
#409=ORIENTED_EDGE('',*,*,#287,.T.);
#410=ORIENTED_EDGE('',*,*,#283,.T.);
#411=ORIENTED_EDGE('',*,*,#247,.T.);
#412=ORIENTED_EDGE('',*,*,#250,.T.);
#413=ORIENTED_EDGE('',*,*,#285,.T.);
#414=PLANE('',#491);
#415=PLANE('',#492);
#416=PLANE('',#493);
#417=PLANE('',#494);
#418=PLANE('',#495);
#419=PLANE('',#496);
#420=PLANE('',#497);
#421=PLANE('',#498);
#422=PLANE('',#499);
#423=PLANE('',#500);
#424=PLANE('',#501);
#425=PLANE('',#502);
#426=PLANE('',#503);
#427=PLANE('',#504);
#428=PLANE('',#505);
#429=PLANE('',#506);
#430=PLANE('',#507);
#431=PLANE('',#508);
#432=PLANE('',#509);
#433=PLANE('',#510);
#434=PLANE('',#511);
#435=PLANE('',#512);
#436=PLANE('',#513);
#437=PLANE('',#514);
#438=PLANE('',#515);
#439=PLANE('',#516);
#440=PLANE('',#517);
#441=ADVANCED_FACE('',(#21),#414,.T.);
#442=ADVANCED_FACE('',(#22),#415,.T.);
#443=ADVANCED_FACE('',(#23),#416,.T.);
#444=ADVANCED_FACE('',(#24),#417,.T.);
#445=ADVANCED_FACE('',(#25),#418,.F.);
#446=ADVANCED_FACE('',(#26),#419,.F.);
#447=ADVANCED_FACE('',(#27,#18),#420,.F.);
#448=ADVANCED_FACE('',(#28),#421,.F.);
#449=ADVANCED_FACE('',(#29),#422,.F.);
#450=ADVANCED_FACE('',(#30),#423,.F.);
#451=ADVANCED_FACE('',(#31),#424,.F.);
#452=ADVANCED_FACE('',(#32),#425,.T.);
#453=ADVANCED_FACE('',(#33),#426,.T.);
#454=ADVANCED_FACE('',(#34),#427,.T.);
#455=ADVANCED_FACE('',(#35),#428,.T.);
#456=ADVANCED_FACE('',(#36),#429,.T.);
#457=ADVANCED_FACE('',(#37),#430,.T.);
#458=ADVANCED_FACE('',(#38),#431,.T.);
#459=ADVANCED_FACE('',(#39),#432,.T.);
#460=ADVANCED_FACE('',(#40,#19),#433,.T.);
#461=ADVANCED_FACE('',(#41),#434,.F.);
#462=ADVANCED_FACE('',(#42),#435,.F.);
#463=ADVANCED_FACE('',(#43),#436,.T.);
#464=ADVANCED_FACE('',(#44),#437,.T.);
#465=ADVANCED_FACE('',(#45),#438,.T.);
#466=ADVANCED_FACE('',(#46),#439,.T.);
#467=ADVANCED_FACE('',(#47,#20),#440,.T.);
#468=CLOSED_SHELL('',(#441,#442,#443,#444,#445,#446,#447,#448,#449,#450,
#451,#452,#453,#454,#455,#456,#457,#458,#459,#460,#461,#462,#463,#464,#465,
#466,#467));
#469=DERIVED_UNIT_ELEMENT(#472,1.);
#470=DERIVED_UNIT_ELEMENT(#764,-3.);
#471=DIMENSIONAL_EXPONENTS(0.,1.,0.,0.,0.,0.,0.);
#472=(
CONVERSION_BASED_UNIT('gram',#474)
MASS_UNIT()
NAMED_UNIT(#471)
);
#473=(
MASS_UNIT()
NAMED_UNIT(*)
SI_UNIT(.KILO.,.GRAM.)
);
#474=MASS_MEASURE_WITH_UNIT(MASS_MEASURE(0.001),#473);
#475=DERIVED_UNIT((#469,#470));
#476=MEASURE_REPRESENTATION_ITEM('density measure',
POSITIVE_RATIO_MEASURE(1.),#475);
#477=PROPERTY_DEFINITION_REPRESENTATION(#482,#479);
#478=PROPERTY_DEFINITION_REPRESENTATION(#483,#480);
#479=REPRESENTATION('material name',(#481),#761);
#480=REPRESENTATION('density',(#476),#761);
#481=DESCRIPTIVE_REPRESENTATION_ITEM('Gen\X\E9rico','Gen\X\E9rico');
#482=PROPERTY_DEFINITION('material property','material name',#771);
#483=PROPERTY_DEFINITION('material property','density of part',#771);
#484=DATE_TIME_ROLE('creation_date');
#485=APPLIED_DATE_AND_TIME_ASSIGNMENT(#486,#484,(#771));
#486=DATE_AND_TIME(#487,#488);
#487=CALENDAR_DATE(2025,3,12);
#488=LOCAL_TIME(0,0,0.,#489);
#489=COORDINATED_UNIVERSAL_TIME_OFFSET(0,0,.BEHIND.);
#490=AXIS2_PLACEMENT_3D('',#634,#518,#519);
#491=AXIS2_PLACEMENT_3D('',#635,#520,#521);
#492=AXIS2_PLACEMENT_3D('',#644,#526,#527);
#493=AXIS2_PLACEMENT_3D('',#650,#531,#532);
#494=AXIS2_PLACEMENT_3D('',#656,#536,#537);
#495=AXIS2_PLACEMENT_3D('',#659,#540,#541);
#496=AXIS2_PLACEMENT_3D('',#665,#545,#546);
#497=AXIS2_PLACEMENT_3D('',#669,#549,#550);
#498=AXIS2_PLACEMENT_3D('',#678,#555,#556);
#499=AXIS2_PLACEMENT_3D('',#684,#560,#561);
#500=AXIS2_PLACEMENT_3D('',#688,#564,#565);
#501=AXIS2_PLACEMENT_3D('',#692,#568,#569);
#502=AXIS2_PLACEMENT_3D('',#694,#571,#572);
#503=AXIS2_PLACEMENT_3D('',#703,#577,#578);
#504=AXIS2_PLACEMENT_3D('',#709,#582,#583);
#505=AXIS2_PLACEMENT_3D('',#715,#587,#588);
#506=AXIS2_PLACEMENT_3D('',#718,#591,#592);
#507=AXIS2_PLACEMENT_3D('',#724,#596,#597);
#508=AXIS2_PLACEMENT_3D('',#728,#600,#601);
#509=AXIS2_PLACEMENT_3D('',#732,#604,#605);
#510=AXIS2_PLACEMENT_3D('',#734,#607,#608);
#511=AXIS2_PLACEMENT_3D('',#735,#609,#610);
#512=AXIS2_PLACEMENT_3D('',#739,#613,#614);
#513=AXIS2_PLACEMENT_3D('',#741,#616,#617);
#514=AXIS2_PLACEMENT_3D('',#747,#621,#622);
#515=AXIS2_PLACEMENT_3D('',#751,#625,#626);
#516=AXIS2_PLACEMENT_3D('',#755,#629,#630);
#517=AXIS2_PLACEMENT_3D('',#757,#632,#633);
#518=DIRECTION('axis',(0.,0.,1.));
#519=DIRECTION('refdir',(1.,0.,0.));
#520=DIRECTION('center_axis',(-0.707106781186547,-0.707106781186548,1.30841038223648E-16));
#521=DIRECTION('ref_axis',(1.85037170770859E-16,0.,1.));
#522=DIRECTION('',(1.85037170770859E-16,0.,1.));
#523=DIRECTION('',(-0.577350269189626,0.577350269189626,-0.577350269189626));
#524=DIRECTION('',(-1.85037170770859E-16,0.,-1.));
#525=DIRECTION('',(0.577350269189626,-0.577350269189626,-0.577350269189626));
#526=DIRECTION('center_axis',(0.,-0.707106781186548,0.707106781186548));
#527=DIRECTION('ref_axis',(1.,0.,0.));
#528=DIRECTION('',(-1.,0.,0.));
#529=DIRECTION('',(-0.577350269189626,-0.577350269189626,-0.577350269189626));
#530=DIRECTION('',(1.,0.,0.));
#531=DIRECTION('center_axis',(0.707106781186547,-0.707106781186548,-2.61682076447296E-16));
#532=DIRECTION('ref_axis',(-3.70074341541719E-16,0.,-1.));
#533=DIRECTION('',(-3.70074341541719E-16,0.,-1.));
#534=DIRECTION('',(3.70074341541719E-16,0.,1.));
#535=DIRECTION('',(-0.577350269189626,-0.577350269189626,0.577350269189626));
#536=DIRECTION('center_axis',(-1.14485908445692E-16,-0.707106781186548,
-0.707106781186548));
#537=DIRECTION('ref_axis',(-1.,0.,1.61907524424502E-16));
#538=DIRECTION('',(-1.,0.,1.61907524424502E-16));
#539=DIRECTION('',(1.,0.,-1.61907524424502E-16));
#540=DIRECTION('center_axis',(0.,0.,-1.));
#541=DIRECTION('ref_axis',(1.,0.,0.));
#542=DIRECTION('',(0.,-1.,0.));
#543=DIRECTION('',(1.,0.,0.));
#544=DIRECTION('',(0.,-1.,0.));
#545=DIRECTION('center_axis',(1.,0.,-1.85037170770859E-16));
#546=DIRECTION('ref_axis',(1.85037170770859E-16,0.,1.));
#547=DIRECTION('',(0.,-1.,0.));
#548=DIRECTION('',(1.85037170770859E-16,0.,1.));
#549=DIRECTION('center_axis',(0.,1.,0.));
#550=DIRECTION('ref_axis',(0.,0.,1.));
#551=DIRECTION('',(1.,0.,0.));
#552=DIRECTION('',(0.,0.,1.));
#553=DIRECTION('',(-1.,0.,0.));
#554=DIRECTION('',(0.,0.,-1.));
#555=DIRECTION('center_axis',(-1.,0.,0.));
#556=DIRECTION('ref_axis',(0.,0.,1.));
#557=DIRECTION('',(0.,0.,1.));
#558=DIRECTION('',(0.,1.,0.));
#559=DIRECTION('',(0.,1.,0.));
#560=DIRECTION('center_axis',(0.,0.,-1.));
#561=DIRECTION('ref_axis',(-1.,0.,0.));
#562=DIRECTION('',(-1.,0.,0.));
#563=DIRECTION('',(0.,1.,0.));
#564=DIRECTION('center_axis',(1.,0.,0.));
#565=DIRECTION('ref_axis',(0.,0.,-1.));
#566=DIRECTION('',(0.,0.,-1.));
#567=DIRECTION('',(0.,1.,0.));
#568=DIRECTION('center_axis',(0.,0.,1.));
#569=DIRECTION('ref_axis',(1.,0.,0.));
#570=DIRECTION('',(1.,0.,0.));
#571=DIRECTION('center_axis',(0.707106781186548,0.707106781186548,3.53270803203849E-16));
#572=DIRECTION('ref_axis',(4.99600361081321E-16,0.,-1.));
#573=DIRECTION('',(0.577350269189626,-0.577350269189626,0.577350269189626));
#574=DIRECTION('',(4.99600361081321E-16,0.,-1.));
#575=DIRECTION('',(-0.577350269189626,0.577350269189626,0.577350269189626));
#576=DIRECTION('',(-2.96059473233375E-16,0.,-1.));
#577=DIRECTION('center_axis',(1.57009245868377E-16,0.707106781186548,-0.707106781186547));
#578=DIRECTION('ref_axis',(-1.,0.,-2.22044604925031E-16));
#579=DIRECTION('',(-1.,0.,-2.22044604925031E-16));
#580=DIRECTION('',(0.577350269189626,0.577350269189626,0.577350269189626));
#581=DIRECTION('',(-1.,0.,0.));
#582=DIRECTION('center_axis',(-0.707106781186548,0.707106781186548,-3.14018491736755E-16));
#583=DIRECTION('ref_axis',(-4.44089209850063E-16,0.,1.));
#584=DIRECTION('',(-4.44089209850063E-16,0.,1.));
#585=DIRECTION('',(-0.577350269189626,-0.577350269189626,0.577350269189626));
#586=DIRECTION('',(1.48029736616688E-16,0.,1.));
#587=DIRECTION('center_axis',(-7.85046229341888E-17,0.707106781186548,0.707106781186548));
#588=DIRECTION('ref_axis',(1.,0.,1.11022302462516E-16));
#589=DIRECTION('',(1.,0.,3.28692043842088E-32));
#590=DIRECTION('',(1.,0.,1.11022302462516E-16));
#591=DIRECTION('center_axis',(1.,0.,4.99600361081321E-16));
#592=DIRECTION('ref_axis',(-4.99600361081321E-16,0.,1.));
#593=DIRECTION('',(0.,-1.,0.));
#594=DIRECTION('',(-4.99600361081321E-16,0.,1.));
#595=DIRECTION('',(0.,-1.,0.));
#596=DIRECTION('center_axis',(2.22044604925031E-16,0.,-1.));
#597=DIRECTION('ref_axis',(1.,0.,2.22044604925031E-16));
#598=DIRECTION('',(1.,0.,2.22044604925031E-16));
#599=DIRECTION('',(0.,-1.,0.));
#600=DIRECTION('center_axis',(-1.,0.,-4.44089209850063E-16));
#601=DIRECTION('ref_axis',(4.44089209850063E-16,0.,-1.));
#602=DIRECTION('',(4.44089209850063E-16,0.,-1.));
#603=DIRECTION('',(0.,-1.,0.));
#604=DIRECTION('center_axis',(-1.11022302462516E-16,0.,1.));
#605=DIRECTION('ref_axis',(-1.,0.,-1.11022302462516E-16));
#606=DIRECTION('',(-1.,0.,-1.11022302462516E-16));
#607=DIRECTION('center_axis',(0.,-1.,0.));
#608=DIRECTION('ref_axis',(0.,0.,-1.));
#609=DIRECTION('center_axis',(-1.,0.,3.70074341541719E-16));
#610=DIRECTION('ref_axis',(-3.70074341541719E-16,0.,-1.));
#611=DIRECTION('',(-3.70074341541719E-16,0.,-1.));
#612=DIRECTION('',(0.,-1.,0.));
#613=DIRECTION('center_axis',(1.61907524424502E-16,0.,1.));
#614=DIRECTION('ref_axis',(-1.,0.,1.61907524424502E-16));
#615=DIRECTION('',(-1.,0.,1.61907524424502E-16));
#616=DIRECTION('center_axis',(1.,0.,-2.96059473233375E-16));
#617=DIRECTION('ref_axis',(-2.96059473233375E-16,0.,-1.));
#618=DIRECTION('',(0.,1.,0.));
#619=DIRECTION('',(-2.96059473233375E-16,0.,-1.));
#620=DIRECTION('',(0.,1.,0.));
#621=DIRECTION('center_axis',(-3.28692043842088E-32,0.,1.));
#622=DIRECTION('ref_axis',(1.,0.,3.28692043842088E-32));
#623=DIRECTION('',(1.,0.,3.28692043842088E-32));
#624=DIRECTION('',(0.,1.,0.));
#625=DIRECTION('center_axis',(-1.,0.,1.48029736616688E-16));
#626=DIRECTION('ref_axis',(1.48029736616688E-16,0.,1.));
#627=DIRECTION('',(1.48029736616688E-16,0.,1.));
#628=DIRECTION('',(0.,1.,0.));
#629=DIRECTION('center_axis',(0.,0.,-1.));
#630=DIRECTION('ref_axis',(-1.,0.,0.));
#631=DIRECTION('',(-1.,0.,0.));
#632=DIRECTION('center_axis',(0.,1.,0.));
#633=DIRECTION('ref_axis',(0.,0.,1.));
#634=CARTESIAN_POINT('',(0.,0.,0.));
#635=CARTESIAN_POINT('Origin',(6.,-10.75,-21.5170234075037));
#636=CARTESIAN_POINT('',(15.,-19.75,-45.));
#637=CARTESIAN_POINT('',(15.,-19.75,15.));
#638=CARTESIAN_POINT('',(15.,-19.75,-21.5170234075037));
#639=CARTESIAN_POINT('',(-3.,-1.74999999999999,-3.));
#640=CARTESIAN_POINT('',(15.,-19.75,15.));
#641=CARTESIAN_POINT('',(-3.,-1.74999999999999,-27.));
#642=CARTESIAN_POINT('',(-3.,-1.74999999999999,-21.5170234075037));
#643=CARTESIAN_POINT('',(-3.,-1.74999999999999,-27.));
#644=CARTESIAN_POINT('Origin',(-21.5170234075037,-10.75,-36.));
#645=CARTESIAN_POINT('',(-27.,-1.74999999999999,-27.));
#646=CARTESIAN_POINT('',(-21.5170234075037,-1.74999999999999,-27.));
#647=CARTESIAN_POINT('',(-45.,-19.75,-45.));
#648=CARTESIAN_POINT('',(-27.,-1.74999999999999,-27.));
#649=CARTESIAN_POINT('',(-21.5170234075037,-19.75,-45.));
#650=CARTESIAN_POINT('Origin',(-36.,-10.75,-9.51702340750372));
#651=CARTESIAN_POINT('',(-45.,-19.75,15.));
#652=CARTESIAN_POINT('',(-45.,-19.75,-9.51702340750371));
#653=CARTESIAN_POINT('',(-27.,-1.74999999999999,-3.));
#654=CARTESIAN_POINT('',(-27.,-1.74999999999999,-9.51702340750372));
#655=CARTESIAN_POINT('',(-27.,-1.74999999999999,-3.));
#656=CARTESIAN_POINT('Origin',(-9.51702340750373,-10.75,6.));
#657=CARTESIAN_POINT('',(-9.51702340750372,-19.75,15.));
#658=CARTESIAN_POINT('',(-9.51702340750373,-1.74999999999999,-3.));
#659=CARTESIAN_POINT('Origin',(-27.,50.,-27.));
#660=CARTESIAN_POINT('',(-3.,50.,-27.));
#661=CARTESIAN_POINT('',(-3.,0.,-27.));
#662=CARTESIAN_POINT('',(-27.,50.,-27.));
#663=CARTESIAN_POINT('',(-21.,50.,-27.));
#664=CARTESIAN_POINT('',(-27.,50.,-27.));
#665=CARTESIAN_POINT('Origin',(-3.,50.,-27.));
#666=CARTESIAN_POINT('',(-3.,50.,-3.));
#667=CARTESIAN_POINT('',(-3.,0.,-3.));
#668=CARTESIAN_POINT('',(-3.,50.,-21.));
#669=CARTESIAN_POINT('Origin',(-16.0340468150075,-19.75,-16.0340468150074));
#670=CARTESIAN_POINT('',(-47.708666868737,-19.75,15.6405732387221));
#671=CARTESIAN_POINT('',(15.6405732387221,-19.75,15.6405732387221));
#672=CARTESIAN_POINT('',(15.6405732387221,-19.75,15.6405732387221));
#673=CARTESIAN_POINT('',(-47.708666868737,-19.75,-47.708666868737));
#674=CARTESIAN_POINT('',(-47.708666868737,-19.75,15.6405732387221));
#675=CARTESIAN_POINT('',(15.6405732387221,-19.75,-47.708666868737));
#676=CARTESIAN_POINT('',(-47.708666868737,-19.75,-47.708666868737));
#677=CARTESIAN_POINT('',(15.6405732387221,-19.75,-47.708666868737));
#678=CARTESIAN_POINT('Origin',(-47.708666868737,-60.,-47.708666868737));
#679=CARTESIAN_POINT('',(-47.708666868737,-60.,-47.708666868737));
#680=CARTESIAN_POINT('',(-47.708666868737,-60.,15.6405732387221));
#681=CARTESIAN_POINT('',(-47.708666868737,-60.,-31.3543334343685));
#682=CARTESIAN_POINT('',(-47.708666868737,-60.,-47.708666868737));
#683=CARTESIAN_POINT('',(-47.708666868737,-60.,15.6405732387221));
#684=CARTESIAN_POINT('Origin',(15.6405732387221,-60.,-47.708666868737));
#685=CARTESIAN_POINT('',(15.6405732387221,-60.,-47.708666868737));
#686=CARTESIAN_POINT('',(0.320286619361003,-60.,-47.708666868737));
#687=CARTESIAN_POINT('',(15.6405732387221,-60.,-47.708666868737));
#688=CARTESIAN_POINT('Origin',(15.6405732387221,-60.,15.6405732387221));
#689=CARTESIAN_POINT('',(15.6405732387221,-60.,15.6405732387221));
#690=CARTESIAN_POINT('',(15.6405732387221,-60.,0.320286619361019));
#691=CARTESIAN_POINT('',(15.6405732387221,-60.,15.6405732387221));
#692=CARTESIAN_POINT('Origin',(-47.708666868737,-60.,15.6405732387221));
#693=CARTESIAN_POINT('',(-31.3543334343685,-60.,15.6405732387221));
#694=CARTESIAN_POINT('Origin',(12.5,-12.5,-35.));
#695=CARTESIAN_POINT('',(0.,0.,0.));
#696=CARTESIAN_POINT('',(24.9999999999999,-25.,25.));
#697=CARTESIAN_POINT('',(3.33333333333328,-3.33333333333334,3.3333333333333));
#698=CARTESIAN_POINT('',(25.,-25.,-55.));
#699=CARTESIAN_POINT('',(25.,-25.,-35.));
#700=CARTESIAN_POINT('',(-8.88178419700125E-15,0.,-30.));
#701=CARTESIAN_POINT('',(3.33333333333329,-3.33333333333333,-33.3333333333334));
#702=CARTESIAN_POINT('',(0.,0.,0.));
#703=CARTESIAN_POINT('Origin',(-35.,-12.5,-42.5));
#704=CARTESIAN_POINT('',(-55.,-25.,-55.));
#705=CARTESIAN_POINT('',(-35.,-25.,-55.));
#706=CARTESIAN_POINT('',(-30.,0.,-30.));
#707=CARTESIAN_POINT('',(-33.3333333333334,-3.33333333333334,-33.3333333333334));
#708=CARTESIAN_POINT('',(-8.88178419700125E-15,0.,-30.));
#709=CARTESIAN_POINT('Origin',(-42.5000000000001,-12.5,4.99999999999996));
#710=CARTESIAN_POINT('',(-55.0000000000001,-25.,25.));
#711=CARTESIAN_POINT('',(-55.0000000000001,-25.,4.99999999999995));
#712=CARTESIAN_POINT('',(-30.,0.,-9.86076131526265E-31));
#713=CARTESIAN_POINT('',(-33.3333333333334,-3.33333333333333,3.33333333333329));
#714=CARTESIAN_POINT('',(-30.,0.,-30.));
#715=CARTESIAN_POINT('Origin',(4.99999999999994,-12.5,12.5));
#716=CARTESIAN_POINT('',(-30.,0.,-9.86076131526265E-31));
#717=CARTESIAN_POINT('',(4.99999999999994,-25.,25.));
#718=CARTESIAN_POINT('Origin',(25.,0.,-55.));
#719=CARTESIAN_POINT('',(24.9999999999999,-60.,25.));
#720=CARTESIAN_POINT('',(24.9999999999999,0.,25.));
#721=CARTESIAN_POINT('',(25.,-60.,-55.));
#722=CARTESIAN_POINT('',(25.,-60.,-55.));
#723=CARTESIAN_POINT('',(25.,0.,-55.));
#724=CARTESIAN_POINT('Origin',(-55.,0.,-55.));
#725=CARTESIAN_POINT('',(-55.,-60.,-55.));
#726=CARTESIAN_POINT('',(-55.,-60.,-55.));
#727=CARTESIAN_POINT('',(-55.,0.,-55.));
#728=CARTESIAN_POINT('Origin',(-55.0000000000001,0.,25.));
#729=CARTESIAN_POINT('',(-55.0000000000001,-60.,25.));
#730=CARTESIAN_POINT('',(-55.0000000000001,-60.,25.));
#731=CARTESIAN_POINT('',(-55.0000000000001,0.,25.));
#732=CARTESIAN_POINT('Origin',(24.9999999999999,0.,25.));
#733=CARTESIAN_POINT('',(24.9999999999999,-60.,25.));
#734=CARTESIAN_POINT('Origin',(-15.,-60.,-15.));
#735=CARTESIAN_POINT('Origin',(-27.,50.,-3.));
#736=CARTESIAN_POINT('',(-27.,50.,-3.));
#737=CARTESIAN_POINT('',(-27.,50.,-9.));
#738=CARTESIAN_POINT('',(-27.,0.,-3.));
#739=CARTESIAN_POINT('Origin',(-3.,50.,-3.));
#740=CARTESIAN_POINT('',(-9.,50.,-3.));
#741=CARTESIAN_POINT('Origin',(0.,0.,0.));
#742=CARTESIAN_POINT('',(-8.88178419700125E-15,50.,-30.));
#743=CARTESIAN_POINT('',(-8.88178419700125E-15,0.,-30.));
#744=CARTESIAN_POINT('',(0.,50.,0.));
#745=CARTESIAN_POINT('',(0.,50.,0.));
#746=CARTESIAN_POINT('',(0.,0.,0.));
#747=CARTESIAN_POINT('Origin',(-30.,0.,-9.86076131526265E-31));
#748=CARTESIAN_POINT('',(-30.,50.,0.));
#749=CARTESIAN_POINT('',(-30.,50.,-9.86076131526265E-31));
#750=CARTESIAN_POINT('',(-30.,0.,-9.86076131526265E-31));
#751=CARTESIAN_POINT('Origin',(-30.,0.,-30.));
#752=CARTESIAN_POINT('',(-30.,50.,-30.));
#753=CARTESIAN_POINT('',(-30.,50.,-30.));
#754=CARTESIAN_POINT('',(-30.,0.,-30.));
#755=CARTESIAN_POINT('Origin',(-8.88178419700125E-15,0.,-30.));
#756=CARTESIAN_POINT('',(-8.88178419700125E-15,50.,-30.));
#757=CARTESIAN_POINT('Origin',(-15.,50.,-15.));
#758=CARTESIAN_POINT('',(0.,0.,0.));
#759=UNCERTAINTY_MEASURE_WITH_UNIT(LENGTH_MEASURE(0.01),#763,
'DISTANCE_ACCURACY_VALUE',
'Maximum model space distance between geometric entities at asserted c
onnectivities');
#760=UNCERTAINTY_MEASURE_WITH_UNIT(LENGTH_MEASURE(0.01),#763,
'DISTANCE_ACCURACY_VALUE',
'Maximum model space distance between geometric entities at asserted c
onnectivities');
#761=(
GEOMETRIC_REPRESENTATION_CONTEXT(3)
GLOBAL_UNCERTAINTY_ASSIGNED_CONTEXT((#759))
GLOBAL_UNIT_ASSIGNED_CONTEXT((#763,#765,#766))
REPRESENTATION_CONTEXT('','3D')
);
#762=(
GEOMETRIC_REPRESENTATION_CONTEXT(3)
GLOBAL_UNCERTAINTY_ASSIGNED_CONTEXT((#760))
GLOBAL_UNIT_ASSIGNED_CONTEXT((#763,#765,#766))
REPRESENTATION_CONTEXT('','3D')
);
#763=(
LENGTH_UNIT()
NAMED_UNIT(*)
SI_UNIT(.MILLI.,.METRE.)
);
#764=(
LENGTH_UNIT()
NAMED_UNIT(*)
SI_UNIT(.CENTI.,.METRE.)
);
#765=(
NAMED_UNIT(*)
PLANE_ANGLE_UNIT()
SI_UNIT($,.RADIAN.)
);
#766=(
NAMED_UNIT(*)
SI_UNIT($,.STERADIAN.)
SOLID_ANGLE_UNIT()
);
#767=SHAPE_DEFINITION_REPRESENTATION(#768,#769);
#768=PRODUCT_DEFINITION_SHAPE('',$,#771);
#769=SHAPE_REPRESENTATION('',(#490),#761);
#770=PRODUCT_DEFINITION_CONTEXT('part definition',#775,'design');
#771=PRODUCT_DEFINITION('tolva','tolva',#772,#770);
#772=PRODUCT_DEFINITION_FORMATION('',$,#777);
#773=PRODUCT_RELATED_PRODUCT_CATEGORY('tolva','tolva',(#777));
#774=APPLICATION_PROTOCOL_DEFINITION('international standard',
'automotive_design',2009,#775);
#775=APPLICATION_CONTEXT(
'Core Data for Automotive Mechanical Design Process');
#776=PRODUCT_CONTEXT('part definition',#775,'mechanical');
#777=PRODUCT('tolva','tolva',$,(#776));
#778=PRESENTATION_STYLE_ASSIGNMENT((#780));
#779=PRESENTATION_STYLE_ASSIGNMENT((#781));
#780=SURFACE_STYLE_USAGE(.BOTH.,#784);
#781=SURFACE_STYLE_USAGE(.BOTH.,#785);
#782=SURFACE_STYLE_RENDERING_WITH_PROPERTIES($,#792,(#783));
#783=SURFACE_STYLE_TRANSPARENT(0.);
#784=SURFACE_SIDE_STYLE('',(#786,#782));
#785=SURFACE_SIDE_STYLE('',(#787));
#786=SURFACE_STYLE_FILL_AREA(#788);
#787=SURFACE_STYLE_FILL_AREA(#789);
#788=FILL_AREA_STYLE('',(#790));
#789=FILL_AREA_STYLE('',(#791));
#790=FILL_AREA_STYLE_COLOUR('',#792);
#791=FILL_AREA_STYLE_COLOUR('',#793);
#792=COLOUR_RGB('',0.749019607843137,0.749019607843137,0.749019607843137);
#793=COLOUR_RGB('',0.913725490196078,0.913725490196078,0.);
ENDSEC;
END-ISO-10303-21;
