ISO-10303-21;
HEADER;
/* Generated by software containing ST-Developer
 * from STEP Tools, Inc. (www.steptools.com) 
 */

FILE_DESCRIPTION(
/* description */ (''),
/* implementation_level */ '2;1');

FILE_NAME(
/* name */ 'tolva completa.stp',
/* time_stamp */ '2025-12-28T22:23:05-03:00',
/* author */ ('TUF GAMING F15'),
/* organization */ (''),
/* preprocessor_version */ 'ST-DEVELOPER v20.1',
/* originating_system */ 'Autodesk Inventor 2026',
/* authorisation */ '');

FILE_SCHEMA (('AUTOMOTIVE_DESIGN { 1 0 10303 214 3 1 1 }'));
ENDSEC;

DATA;
#10=MECHANICAL_DESIGN_GEOMETRIC_PRESENTATION_REPRESENTATION('',(#26,#27),
#1340);
#11=ITEM_DEFINED_TRANSFORMATION($,$,#835,#902);
#12=ITEM_DEFINED_TRANSFORMATION($,$,#868,#903);
#13=(
REPRESENTATION_RELATIONSHIP($,$,#1354,#1353)
REPRESENTATION_RELATIONSHIP_WITH_TRANSFORMATION(#11)
SHAPE_REPRESENTATION_RELATIONSHIP()
);
#14=(
REPRESENTATION_RELATIONSHIP($,$,#1355,#1353)
REPRESENTATION_RELATIONSHIP_WITH_TRANSFORMATION(#12)
SHAPE_REPRESENTATION_RELATIONSHIP()
);
#15=CONTEXT_DEPENDENT_SHAPE_REPRESENTATION(#13,#1351);
#16=CONTEXT_DEPENDENT_SHAPE_REPRESENTATION(#14,#1352);
#17=NEXT_ASSEMBLY_USAGE_OCCURRENCE('tolva:1','tolva:1','tolva:1',#1357,
#1358,'tolva:1');
#18=NEXT_ASSEMBLY_USAGE_OCCURRENCE('tubo cubierta tornillo:1',
'tubo cubierta tornillo:1','tubo cubierta tornillo:1',#1357,#1359,
'tubo cubierta tornillo:1');
#19=GEOMETRICALLY_BOUNDED_WIREFRAME_SHAPE_REPRESENTATION('',(#20),#1338);
#20=GEOMETRIC_CURVE_SET('Boceto3',(#1253));
#21=SHAPE_REPRESENTATION_RELATIONSHIP('SRR','None',#1354,#24);
#22=SHAPE_REPRESENTATION_RELATIONSHIP('SRR','None',#1354,#19);
#23=SHAPE_REPRESENTATION_RELATIONSHIP('SRR','None',#1355,#25);
#24=ADVANCED_BREP_SHAPE_REPRESENTATION('',(#28),#1338);
#25=ADVANCED_BREP_SHAPE_REPRESENTATION('',(#29),#1339);
#26=STYLED_ITEM('',(#800),#28);
#27=STYLED_ITEM('',(#800),#29);
#28=MANIFOLD_SOLID_BREP('S\X\F3lido1',#772);
#29=MANIFOLD_SOLID_BREP('S\X\F3lido1',#773);
#30=PLANE('',#841);
#31=PLANE('',#842);
#32=PLANE('',#843);
#33=PLANE('',#844);
#34=PLANE('',#845);
#35=PLANE('',#846);
#36=PLANE('',#847);
#37=PLANE('',#848);
#38=PLANE('',#849);
#39=PLANE('',#850);
#40=PLANE('',#851);
#41=PLANE('',#852);
#42=PLANE('',#853);
#43=PLANE('',#854);
#44=PLANE('',#855);
#45=PLANE('',#856);
#46=PLANE('',#857);
#47=PLANE('',#858);
#48=PLANE('',#859);
#49=PLANE('',#860);
#50=PLANE('',#861);
#51=PLANE('',#862);
#52=PLANE('',#863);
#53=PLANE('',#864);
#54=PLANE('',#865);
#55=PLANE('',#866);
#56=PLANE('',#867);
#57=PLANE('',#881);
#58=PLANE('',#886);
#59=PLANE('',#887);
#60=PLANE('',#888);
#61=PLANE('',#891);
#62=PLANE('',#892);
#63=PLANE('',#900);
#64=PLANE('',#901);
#65=FACE_BOUND('',#124,.T.);
#66=FACE_BOUND('',#135,.T.);
#67=FACE_BOUND('',#149,.T.);
#68=FACE_BOUND('',#159,.T.);
#69=FACE_BOUND('',#160,.T.);
#70=FACE_BOUND('',#161,.T.);
#71=FACE_BOUND('',#162,.T.);
#72=FACE_BOUND('',#163,.T.);
#73=FACE_BOUND('',#172,.T.);
#74=FACE_BOUND('',#174,.T.);
#75=FACE_BOUND('',#175,.T.);
#76=FACE_BOUND('',#176,.T.);
#77=FACE_BOUND('',#177,.T.);
#78=FACE_BOUND('',#178,.T.);
#79=FACE_BOUND('',#180,.T.);
#80=FACE_OUTER_BOUND('',#123,.T.);
#81=FACE_OUTER_BOUND('',#125,.T.);
#82=FACE_OUTER_BOUND('',#126,.T.);
#83=FACE_OUTER_BOUND('',#127,.T.);
#84=FACE_OUTER_BOUND('',#128,.T.);
#85=FACE_OUTER_BOUND('',#129,.T.);
#86=FACE_OUTER_BOUND('',#130,.T.);
#87=FACE_OUTER_BOUND('',#131,.T.);
#88=FACE_OUTER_BOUND('',#132,.T.);
#89=FACE_OUTER_BOUND('',#133,.T.);
#90=FACE_OUTER_BOUND('',#134,.T.);
#91=FACE_OUTER_BOUND('',#136,.T.);
#92=FACE_OUTER_BOUND('',#137,.T.);
#93=FACE_OUTER_BOUND('',#138,.T.);
#94=FACE_OUTER_BOUND('',#139,.T.);
#95=FACE_OUTER_BOUND('',#140,.T.);
#96=FACE_OUTER_BOUND('',#141,.T.);
#97=FACE_OUTER_BOUND('',#142,.T.);
#98=FACE_OUTER_BOUND('',#143,.T.);
#99=FACE_OUTER_BOUND('',#144,.T.);
#100=FACE_OUTER_BOUND('',#145,.T.);
#101=FACE_OUTER_BOUND('',#146,.T.);
#102=FACE_OUTER_BOUND('',#147,.T.);
#103=FACE_OUTER_BOUND('',#148,.T.);
#104=FACE_OUTER_BOUND('',#150,.T.);
#105=FACE_OUTER_BOUND('',#151,.T.);
#106=FACE_OUTER_BOUND('',#152,.T.);
#107=FACE_OUTER_BOUND('',#153,.T.);
#108=FACE_OUTER_BOUND('',#154,.T.);
#109=FACE_OUTER_BOUND('',#155,.T.);
#110=FACE_OUTER_BOUND('',#156,.T.);
#111=FACE_OUTER_BOUND('',#157,.T.);
#112=FACE_OUTER_BOUND('',#158,.T.);
#113=FACE_OUTER_BOUND('',#164,.T.);
#114=FACE_OUTER_BOUND('',#165,.T.);
#115=FACE_OUTER_BOUND('',#166,.T.);
#116=FACE_OUTER_BOUND('',#167,.T.);
#117=FACE_OUTER_BOUND('',#168,.T.);
#118=FACE_OUTER_BOUND('',#169,.T.);
#119=FACE_OUTER_BOUND('',#170,.T.);
#120=FACE_OUTER_BOUND('',#171,.T.);
#121=FACE_OUTER_BOUND('',#173,.T.);
#122=FACE_OUTER_BOUND('',#179,.T.);
#123=EDGE_LOOP('',(#521,#522,#523,#524));
#124=EDGE_LOOP('',(#525,#526,#527,#528));
#125=EDGE_LOOP('',(#529,#530,#531,#532));
#126=EDGE_LOOP('',(#533,#534,#535,#536));
#127=EDGE_LOOP('',(#537,#538,#539,#540));
#128=EDGE_LOOP('',(#541,#542,#543,#544,#545));
#129=EDGE_LOOP('',(#546,#547,#548,#549));
#130=EDGE_LOOP('',(#550,#551,#552,#553));
#131=EDGE_LOOP('',(#554,#555,#556,#557));
#132=EDGE_LOOP('',(#558,#559,#560,#561));
#133=EDGE_LOOP('',(#562,#563,#564,#565));
#134=EDGE_LOOP('',(#566,#567,#568,#569));
#135=EDGE_LOOP('',(#570,#571,#572,#573));
#136=EDGE_LOOP('',(#574,#575,#576,#577));
#137=EDGE_LOOP('',(#578,#579,#580,#581));
#138=EDGE_LOOP('',(#582,#583,#584,#585));
#139=EDGE_LOOP('',(#586,#587,#588,#589));
#140=EDGE_LOOP('',(#590,#591,#592,#593));
#141=EDGE_LOOP('',(#594,#595,#596,#597));
#142=EDGE_LOOP('',(#598,#599,#600,#601));
#143=EDGE_LOOP('',(#602,#603,#604,#605));
#144=EDGE_LOOP('',(#606,#607,#608,#609));
#145=EDGE_LOOP('',(#610,#611,#612,#613));
#146=EDGE_LOOP('',(#614,#615,#616,#617));
#147=EDGE_LOOP('',(#618,#619,#620,#621));
#148=EDGE_LOOP('',(#622,#623,#624,#625));
#149=EDGE_LOOP('',(#626,#627,#628,#629));
#150=EDGE_LOOP('',(#630,#631,#632,#633));
#151=EDGE_LOOP('',(#634,#635,#636,#637));
#152=EDGE_LOOP('',(#638,#639,#640,#641,#642));
#153=EDGE_LOOP('',(#643,#644,#645,#646));
#154=EDGE_LOOP('',(#647,#648,#649,#650));
#155=EDGE_LOOP('',(#651,#652,#653,#654));
#156=EDGE_LOOP('',(#655,#656,#657,#658));
#157=EDGE_LOOP('',(#659,#660,#661,#662));
#158=EDGE_LOOP('',(#663));
#159=EDGE_LOOP('',(#664));
#160=EDGE_LOOP('',(#665));
#161=EDGE_LOOP('',(#666));
#162=EDGE_LOOP('',(#667));
#163=EDGE_LOOP('',(#668));
#164=EDGE_LOOP('',(#669,#670,#671,#672));
#165=EDGE_LOOP('',(#673,#674,#675,#676));
#166=EDGE_LOOP('',(#677,#678,#679,#680));
#167=EDGE_LOOP('',(#681,#682,#683,#684,#685));
#168=EDGE_LOOP('',(#686,#687,#688,#689));
#169=EDGE_LOOP('',(#690,#691,#692,#693,#694));
#170=EDGE_LOOP('',(#695,#696,#697,#698,#699,#700,#701,#702,#703,#704));
#171=EDGE_LOOP('',(#705,#706,#707,#708));
#172=EDGE_LOOP('',(#709,#710,#711,#712));
#173=EDGE_LOOP('',(#713));
#174=EDGE_LOOP('',(#714));
#175=EDGE_LOOP('',(#715));
#176=EDGE_LOOP('',(#716));
#177=EDGE_LOOP('',(#717));
#178=EDGE_LOOP('',(#718));
#179=EDGE_LOOP('',(#719));
#180=EDGE_LOOP('',(#720));
#181=CIRCLE('',#837,17.05);
#182=CIRCLE('',#838,17.05);
#183=CIRCLE('',#839,17.05);
#184=CIRCLE('',#840,17.05);
#185=CIRCLE('',#870,2.75);
#186=CIRCLE('',#871,2.75);
#187=CIRCLE('',#873,2.75);
#188=CIRCLE('',#874,2.75);
#189=CIRCLE('',#876,2.75);
#190=CIRCLE('',#877,2.75);
#191=CIRCLE('',#879,2.75);
#192=CIRCLE('',#880,2.75);
#193=CIRCLE('',#882,27.5);
#194=CIRCLE('',#883,19.05);
#195=CIRCLE('',#885,27.5);
#196=CIRCLE('',#889,17.05);
#197=CIRCLE('',#890,19.05);
#198=CIRCLE('',#893,17.05);
#199=CIRCLE('',#894,19.05);
#200=CIRCLE('',#896,17.05);
#201=CIRCLE('',#897,17.05);
#202=CIRCLE('',#899,19.05);
#203=LINE('',#1127,#281);
#204=LINE('',#1131,#282);
#205=LINE('',#1137,#283);
#206=LINE('',#1140,#284);
#207=LINE('',#1143,#285);
#208=LINE('',#1145,#286);
#209=LINE('',#1146,#287);
#210=LINE('',#1149,#288);
#211=LINE('',#1150,#289);
#212=LINE('',#1153,#290);
#213=LINE('',#1155,#291);
#214=LINE('',#1156,#292);
#215=LINE('',#1159,#293);
#216=LINE('',#1161,#294);
#217=LINE('',#1162,#295);
#218=LINE('',#1166,#296);
#219=LINE('',#1167,#297);
#220=LINE('',#1168,#298);
#221=LINE('',#1171,#299);
#222=LINE('',#1173,#300);
#223=LINE('',#1174,#301);
#224=LINE('',#1177,#302);
#225=LINE('',#1178,#303);
#226=LINE('',#1179,#304);
#227=LINE('',#1181,#305);
#228=LINE('',#1183,#306);
#229=LINE('',#1187,#307);
#230=LINE('',#1189,#308);
#231=LINE('',#1191,#309);
#232=LINE('',#1192,#310);
#233=LINE('',#1196,#311);
#234=LINE('',#1197,#312);
#235=LINE('',#1198,#313);
#236=LINE('',#1201,#314);
#237=LINE('',#1202,#315);
#238=LINE('',#1205,#316);
#239=LINE('',#1206,#317);
#240=LINE('',#1208,#318);
#241=LINE('',#1212,#319);
#242=LINE('',#1214,#320);
#243=LINE('',#1215,#321);
#244=LINE('',#1216,#322);
#245=LINE('',#1219,#323);
#246=LINE('',#1220,#324);
#247=LINE('',#1223,#325);
#248=LINE('',#1225,#326);
#249=LINE('',#1226,#327);
#250=LINE('',#1228,#328);
#251=LINE('',#1229,#329);
#252=LINE('',#1232,#330);
#253=LINE('',#1234,#331);
#254=LINE('',#1235,#332);
#255=LINE('',#1238,#333);
#256=LINE('',#1239,#334);
#257=LINE('',#1242,#335);
#258=LINE('',#1243,#336);
#259=LINE('',#1245,#337);
#260=LINE('',#1249,#338);
#261=LINE('',#1251,#339);
#262=LINE('',#1259,#340);
#263=LINE('',#1265,#341);
#264=LINE('',#1271,#342);
#265=LINE('',#1277,#343);
#266=LINE('',#1286,#344);
#267=LINE('',#1291,#345);
#268=LINE('',#1293,#346);
#269=LINE('',#1295,#347);
#270=LINE('',#1296,#348);
#271=LINE('',#1300,#349);
#272=LINE('',#1301,#350);
#273=LINE('',#1302,#351);
#274=LINE('',#1308,#352);
#275=LINE('',#1311,#353);
#276=LINE('',#1313,#354);
#277=LINE('',#1314,#355);
#278=LINE('',#1321,#356);
#279=LINE('',#1323,#357);
#280=LINE('',#1327,#358);
#281=VECTOR('',#910,10.);
#282=VECTOR('',#913,10.);
#283=VECTOR('',#918,10.);
#284=VECTOR('',#921,10.);
#285=VECTOR('',#924,10.);
#286=VECTOR('',#925,10.);
#287=VECTOR('',#926,10.);
#288=VECTOR('',#929,10.);
#289=VECTOR('',#930,10.);
#290=VECTOR('',#933,10.);
#291=VECTOR('',#934,10.);
#292=VECTOR('',#935,10.);
#293=VECTOR('',#938,10.);
#294=VECTOR('',#939,10.);
#295=VECTOR('',#940,10.);
#296=VECTOR('',#943,10.);
#297=VECTOR('',#944,10.);
#298=VECTOR('',#945,10.);
#299=VECTOR('',#948,10.);
#300=VECTOR('',#949,10.);
#301=VECTOR('',#950,10.);
#302=VECTOR('',#953,10.);
#303=VECTOR('',#954,10.);
#304=VECTOR('',#955,10.);
#305=VECTOR('',#958,10.);
#306=VECTOR('',#961,10.);
#307=VECTOR('',#964,10.);
#308=VECTOR('',#965,10.);
#309=VECTOR('',#966,10.);
#310=VECTOR('',#967,10.);
#311=VECTOR('',#970,10.);
#312=VECTOR('',#971,10.);
#313=VECTOR('',#972,10.);
#314=VECTOR('',#975,10.);
#315=VECTOR('',#976,10.);
#316=VECTOR('',#979,10.);
#317=VECTOR('',#980,10.);
#318=VECTOR('',#983,10.);
#319=VECTOR('',#986,10.);
#320=VECTOR('',#987,10.);
#321=VECTOR('',#988,10.);
#322=VECTOR('',#989,10.);
#323=VECTOR('',#992,10.);
#324=VECTOR('',#993,10.);
#325=VECTOR('',#996,10.);
#326=VECTOR('',#997,10.);
#327=VECTOR('',#998,10.);
#328=VECTOR('',#1001,10.);
#329=VECTOR('',#1002,10.);
#330=VECTOR('',#1005,10.);
#331=VECTOR('',#1006,10.);
#332=VECTOR('',#1007,10.);
#333=VECTOR('',#1010,10.);
#334=VECTOR('',#1011,10.);
#335=VECTOR('',#1014,10.);
#336=VECTOR('',#1015,10.);
#337=VECTOR('',#1018,10.);
#338=VECTOR('',#1025,10.);
#339=VECTOR('',#1028,10.);
#340=VECTOR('',#1037,2.75);
#341=VECTOR('',#1044,2.75);
#342=VECTOR('',#1051,2.75);
#343=VECTOR('',#1058,2.75);
#344=VECTOR('',#1069,27.5);
#345=VECTOR('',#1074,10.);
#346=VECTOR('',#1075,10.);
#347=VECTOR('',#1076,10.);
#348=VECTOR('',#1077,10.);
#349=VECTOR('',#1080,10.);
#350=VECTOR('',#1081,10.);
#351=VECTOR('',#1082,10.);
#352=VECTOR('',#1089,10.);
#353=VECTOR('',#1092,10.);
#354=VECTOR('',#1093,10.);
#355=VECTOR('',#1094,10.);
#356=VECTOR('',#1105,17.05);
#357=VECTOR('',#1106,17.05);
#358=VECTOR('',#1111,19.05);
#359=VERTEX_POINT('',#1125);
#360=VERTEX_POINT('',#1126);
#361=VERTEX_POINT('',#1128);
#362=VERTEX_POINT('',#1130);
#363=VERTEX_POINT('',#1133);
#364=VERTEX_POINT('',#1134);
#365=VERTEX_POINT('',#1136);
#366=VERTEX_POINT('',#1138);
#367=VERTEX_POINT('',#1142);
#368=VERTEX_POINT('',#1144);
#369=VERTEX_POINT('',#1148);
#370=VERTEX_POINT('',#1152);
#371=VERTEX_POINT('',#1154);
#372=VERTEX_POINT('',#1158);
#373=VERTEX_POINT('',#1160);
#374=VERTEX_POINT('',#1164);
#375=VERTEX_POINT('',#1165);
#376=VERTEX_POINT('',#1170);
#377=VERTEX_POINT('',#1172);
#378=VERTEX_POINT('',#1176);
#379=VERTEX_POINT('',#1185);
#380=VERTEX_POINT('',#1186);
#381=VERTEX_POINT('',#1188);
#382=VERTEX_POINT('',#1190);
#383=VERTEX_POINT('',#1194);
#384=VERTEX_POINT('',#1195);
#385=VERTEX_POINT('',#1200);
#386=VERTEX_POINT('',#1204);
#387=VERTEX_POINT('',#1210);
#388=VERTEX_POINT('',#1211);
#389=VERTEX_POINT('',#1213);
#390=VERTEX_POINT('',#1218);
#391=VERTEX_POINT('',#1222);
#392=VERTEX_POINT('',#1224);
#393=VERTEX_POINT('',#1231);
#394=VERTEX_POINT('',#1233);
#395=VERTEX_POINT('',#1237);
#396=VERTEX_POINT('',#1241);
#397=VERTEX_POINT('',#1256);
#398=VERTEX_POINT('',#1258);
#399=VERTEX_POINT('',#1262);
#400=VERTEX_POINT('',#1264);
#401=VERTEX_POINT('',#1268);
#402=VERTEX_POINT('',#1270);
#403=VERTEX_POINT('',#1274);
#404=VERTEX_POINT('',#1276);
#405=VERTEX_POINT('',#1280);
#406=VERTEX_POINT('',#1282);
#407=VERTEX_POINT('',#1285);
#408=VERTEX_POINT('',#1289);
#409=VERTEX_POINT('',#1290);
#410=VERTEX_POINT('',#1292);
#411=VERTEX_POINT('',#1294);
#412=VERTEX_POINT('',#1298);
#413=VERTEX_POINT('',#1299);
#414=VERTEX_POINT('',#1304);
#415=VERTEX_POINT('',#1306);
#416=VERTEX_POINT('',#1310);
#417=VERTEX_POINT('',#1312);
#418=VERTEX_POINT('',#1319);
#419=VERTEX_POINT('',#1322);
#420=VERTEX_POINT('',#1326);
#421=EDGE_CURVE('',#359,#360,#203,.T.);
#422=EDGE_CURVE('',#361,#359,#181,.T.);
#423=EDGE_CURVE('',#362,#361,#204,.T.);
#424=EDGE_CURVE('',#360,#362,#182,.T.);
#425=EDGE_CURVE('',#363,#364,#183,.T.);
#426=EDGE_CURVE('',#365,#363,#205,.T.);
#427=EDGE_CURVE('',#366,#365,#184,.T.);
#428=EDGE_CURVE('',#364,#366,#206,.T.);
#429=EDGE_CURVE('',#365,#367,#207,.T.);
#430=EDGE_CURVE('',#368,#367,#208,.T.);
#431=EDGE_CURVE('',#366,#368,#209,.T.);
#432=EDGE_CURVE('',#363,#369,#210,.T.);
#433=EDGE_CURVE('',#367,#369,#211,.T.);
#434=EDGE_CURVE('',#361,#370,#212,.T.);
#435=EDGE_CURVE('',#370,#371,#213,.T.);
#436=EDGE_CURVE('',#371,#362,#214,.T.);
#437=EDGE_CURVE('',#372,#359,#215,.T.);
#438=EDGE_CURVE('',#372,#373,#216,.T.);
#439=EDGE_CURVE('',#373,#370,#217,.T.);
#440=EDGE_CURVE('',#374,#375,#218,.T.);
#441=EDGE_CURVE('',#375,#367,#219,.T.);
#442=EDGE_CURVE('',#369,#374,#220,.T.);
#443=EDGE_CURVE('',#369,#376,#221,.T.);
#444=EDGE_CURVE('',#376,#377,#222,.T.);
#445=EDGE_CURVE('',#377,#374,#223,.T.);
#446=EDGE_CURVE('',#378,#377,#224,.T.);
#447=EDGE_CURVE('',#376,#368,#225,.T.);
#448=EDGE_CURVE('',#368,#378,#226,.T.);
#449=EDGE_CURVE('',#375,#378,#227,.T.);
#450=EDGE_CURVE('',#364,#376,#228,.T.);
#451=EDGE_CURVE('',#379,#380,#229,.T.);
#452=EDGE_CURVE('',#381,#379,#230,.T.);
#453=EDGE_CURVE('',#382,#381,#231,.T.);
#454=EDGE_CURVE('',#380,#382,#232,.T.);
#455=EDGE_CURVE('',#383,#384,#233,.T.);
#456=EDGE_CURVE('',#383,#381,#234,.T.);
#457=EDGE_CURVE('',#384,#379,#235,.T.);
#458=EDGE_CURVE('',#385,#383,#236,.T.);
#459=EDGE_CURVE('',#385,#382,#237,.T.);
#460=EDGE_CURVE('',#386,#385,#238,.T.);
#461=EDGE_CURVE('',#386,#380,#239,.T.);
#462=EDGE_CURVE('',#384,#386,#240,.T.);
#463=EDGE_CURVE('',#387,#388,#241,.T.);
#464=EDGE_CURVE('',#388,#389,#242,.T.);
#465=EDGE_CURVE('',#389,#372,#243,.T.);
#466=EDGE_CURVE('',#387,#372,#244,.T.);
#467=EDGE_CURVE('',#389,#390,#245,.T.);
#468=EDGE_CURVE('',#390,#373,#246,.T.);
#469=EDGE_CURVE('',#390,#391,#247,.T.);
#470=EDGE_CURVE('',#392,#391,#248,.T.);
#471=EDGE_CURVE('',#373,#392,#249,.T.);
#472=EDGE_CURVE('',#392,#387,#250,.T.);
#473=EDGE_CURVE('',#391,#388,#251,.T.);
#474=EDGE_CURVE('',#388,#393,#252,.T.);
#475=EDGE_CURVE('',#394,#393,#253,.T.);
#476=EDGE_CURVE('',#389,#394,#254,.T.);
#477=EDGE_CURVE('',#395,#394,#255,.T.);
#478=EDGE_CURVE('',#390,#395,#256,.T.);
#479=EDGE_CURVE('',#396,#395,#257,.T.);
#480=EDGE_CURVE('',#391,#396,#258,.T.);
#481=EDGE_CURVE('',#393,#396,#259,.T.);
#482=EDGE_CURVE('',#387,#360,#260,.T.);
#483=EDGE_CURVE('',#392,#371,#261,.T.);
#484=EDGE_CURVE('',#397,#397,#185,.T.);
#485=EDGE_CURVE('',#397,#398,#262,.T.);
#486=EDGE_CURVE('',#398,#398,#186,.T.);
#487=EDGE_CURVE('',#399,#399,#187,.T.);
#488=EDGE_CURVE('',#399,#400,#263,.T.);
#489=EDGE_CURVE('',#400,#400,#188,.T.);
#490=EDGE_CURVE('',#401,#401,#189,.T.);
#491=EDGE_CURVE('',#401,#402,#264,.T.);
#492=EDGE_CURVE('',#402,#402,#190,.T.);
#493=EDGE_CURVE('',#403,#403,#191,.T.);
#494=EDGE_CURVE('',#403,#404,#265,.T.);
#495=EDGE_CURVE('',#404,#404,#192,.T.);
#496=EDGE_CURVE('',#405,#405,#193,.T.);
#497=EDGE_CURVE('',#406,#406,#194,.T.);
#498=EDGE_CURVE('',#405,#407,#266,.T.);
#499=EDGE_CURVE('',#407,#407,#195,.T.);
#500=EDGE_CURVE('',#408,#409,#267,.T.);
#501=EDGE_CURVE('',#410,#408,#268,.T.);
#502=EDGE_CURVE('',#411,#410,#269,.T.);
#503=EDGE_CURVE('',#409,#411,#270,.T.);
#504=EDGE_CURVE('',#412,#413,#271,.T.);
#505=EDGE_CURVE('',#411,#412,#272,.T.);
#506=EDGE_CURVE('',#410,#413,#273,.T.);
#507=EDGE_CURVE('',#409,#414,#196,.T.);
#508=EDGE_CURVE('',#415,#412,#197,.T.);
#509=EDGE_CURVE('',#414,#415,#274,.T.);
#510=EDGE_CURVE('',#414,#416,#275,.T.);
#511=EDGE_CURVE('',#417,#415,#276,.T.);
#512=EDGE_CURVE('',#416,#417,#277,.T.);
#513=EDGE_CURVE('',#416,#408,#198,.T.);
#514=EDGE_CURVE('',#413,#417,#199,.T.);
#515=EDGE_CURVE('',#418,#418,#200,.T.);
#516=EDGE_CURVE('',#418,#409,#278,.T.);
#517=EDGE_CURVE('',#408,#419,#279,.T.);
#518=EDGE_CURVE('',#419,#419,#201,.T.);
#519=EDGE_CURVE('',#406,#420,#280,.T.);
#520=EDGE_CURVE('',#420,#420,#202,.T.);
#521=ORIENTED_EDGE('',*,*,#421,.F.);
#522=ORIENTED_EDGE('',*,*,#422,.F.);
#523=ORIENTED_EDGE('',*,*,#423,.F.);
#524=ORIENTED_EDGE('',*,*,#424,.F.);
#525=ORIENTED_EDGE('',*,*,#425,.F.);
#526=ORIENTED_EDGE('',*,*,#426,.F.);
#527=ORIENTED_EDGE('',*,*,#427,.F.);
#528=ORIENTED_EDGE('',*,*,#428,.F.);
#529=ORIENTED_EDGE('',*,*,#427,.T.);
#530=ORIENTED_EDGE('',*,*,#429,.T.);
#531=ORIENTED_EDGE('',*,*,#430,.F.);
#532=ORIENTED_EDGE('',*,*,#431,.F.);
#533=ORIENTED_EDGE('',*,*,#426,.T.);
#534=ORIENTED_EDGE('',*,*,#432,.T.);
#535=ORIENTED_EDGE('',*,*,#433,.F.);
#536=ORIENTED_EDGE('',*,*,#429,.F.);
#537=ORIENTED_EDGE('',*,*,#423,.T.);
#538=ORIENTED_EDGE('',*,*,#434,.T.);
#539=ORIENTED_EDGE('',*,*,#435,.T.);
#540=ORIENTED_EDGE('',*,*,#436,.T.);
#541=ORIENTED_EDGE('',*,*,#422,.T.);
#542=ORIENTED_EDGE('',*,*,#437,.F.);
#543=ORIENTED_EDGE('',*,*,#438,.T.);
#544=ORIENTED_EDGE('',*,*,#439,.T.);
#545=ORIENTED_EDGE('',*,*,#434,.F.);
#546=ORIENTED_EDGE('',*,*,#440,.T.);
#547=ORIENTED_EDGE('',*,*,#441,.T.);
#548=ORIENTED_EDGE('',*,*,#433,.T.);
#549=ORIENTED_EDGE('',*,*,#442,.T.);
#550=ORIENTED_EDGE('',*,*,#443,.T.);
#551=ORIENTED_EDGE('',*,*,#444,.T.);
#552=ORIENTED_EDGE('',*,*,#445,.T.);
#553=ORIENTED_EDGE('',*,*,#442,.F.);
#554=ORIENTED_EDGE('',*,*,#446,.T.);
#555=ORIENTED_EDGE('',*,*,#444,.F.);
#556=ORIENTED_EDGE('',*,*,#447,.T.);
#557=ORIENTED_EDGE('',*,*,#448,.T.);
#558=ORIENTED_EDGE('',*,*,#449,.T.);
#559=ORIENTED_EDGE('',*,*,#448,.F.);
#560=ORIENTED_EDGE('',*,*,#430,.T.);
#561=ORIENTED_EDGE('',*,*,#441,.F.);
#562=ORIENTED_EDGE('',*,*,#425,.T.);
#563=ORIENTED_EDGE('',*,*,#450,.T.);
#564=ORIENTED_EDGE('',*,*,#443,.F.);
#565=ORIENTED_EDGE('',*,*,#432,.F.);
#566=ORIENTED_EDGE('',*,*,#451,.F.);
#567=ORIENTED_EDGE('',*,*,#452,.F.);
#568=ORIENTED_EDGE('',*,*,#453,.F.);
#569=ORIENTED_EDGE('',*,*,#454,.F.);
#570=ORIENTED_EDGE('',*,*,#440,.F.);
#571=ORIENTED_EDGE('',*,*,#445,.F.);
#572=ORIENTED_EDGE('',*,*,#446,.F.);
#573=ORIENTED_EDGE('',*,*,#449,.F.);
#574=ORIENTED_EDGE('',*,*,#455,.F.);
#575=ORIENTED_EDGE('',*,*,#456,.T.);
#576=ORIENTED_EDGE('',*,*,#452,.T.);
#577=ORIENTED_EDGE('',*,*,#457,.F.);
#578=ORIENTED_EDGE('',*,*,#458,.F.);
#579=ORIENTED_EDGE('',*,*,#459,.T.);
#580=ORIENTED_EDGE('',*,*,#453,.T.);
#581=ORIENTED_EDGE('',*,*,#456,.F.);
#582=ORIENTED_EDGE('',*,*,#460,.F.);
#583=ORIENTED_EDGE('',*,*,#461,.T.);
#584=ORIENTED_EDGE('',*,*,#454,.T.);
#585=ORIENTED_EDGE('',*,*,#459,.F.);
#586=ORIENTED_EDGE('',*,*,#462,.F.);
#587=ORIENTED_EDGE('',*,*,#457,.T.);
#588=ORIENTED_EDGE('',*,*,#451,.T.);
#589=ORIENTED_EDGE('',*,*,#461,.F.);
#590=ORIENTED_EDGE('',*,*,#463,.T.);
#591=ORIENTED_EDGE('',*,*,#464,.T.);
#592=ORIENTED_EDGE('',*,*,#465,.T.);
#593=ORIENTED_EDGE('',*,*,#466,.F.);
#594=ORIENTED_EDGE('',*,*,#465,.F.);
#595=ORIENTED_EDGE('',*,*,#467,.T.);
#596=ORIENTED_EDGE('',*,*,#468,.T.);
#597=ORIENTED_EDGE('',*,*,#438,.F.);
#598=ORIENTED_EDGE('',*,*,#468,.F.);
#599=ORIENTED_EDGE('',*,*,#469,.T.);
#600=ORIENTED_EDGE('',*,*,#470,.F.);
#601=ORIENTED_EDGE('',*,*,#471,.F.);
#602=ORIENTED_EDGE('',*,*,#463,.F.);
#603=ORIENTED_EDGE('',*,*,#472,.F.);
#604=ORIENTED_EDGE('',*,*,#470,.T.);
#605=ORIENTED_EDGE('',*,*,#473,.T.);
#606=ORIENTED_EDGE('',*,*,#464,.F.);
#607=ORIENTED_EDGE('',*,*,#474,.T.);
#608=ORIENTED_EDGE('',*,*,#475,.F.);
#609=ORIENTED_EDGE('',*,*,#476,.F.);
#610=ORIENTED_EDGE('',*,*,#467,.F.);
#611=ORIENTED_EDGE('',*,*,#476,.T.);
#612=ORIENTED_EDGE('',*,*,#477,.F.);
#613=ORIENTED_EDGE('',*,*,#478,.F.);
#614=ORIENTED_EDGE('',*,*,#469,.F.);
#615=ORIENTED_EDGE('',*,*,#478,.T.);
#616=ORIENTED_EDGE('',*,*,#479,.F.);
#617=ORIENTED_EDGE('',*,*,#480,.F.);
#618=ORIENTED_EDGE('',*,*,#473,.F.);
#619=ORIENTED_EDGE('',*,*,#480,.T.);
#620=ORIENTED_EDGE('',*,*,#481,.F.);
#621=ORIENTED_EDGE('',*,*,#474,.F.);
#622=ORIENTED_EDGE('',*,*,#481,.T.);
#623=ORIENTED_EDGE('',*,*,#479,.T.);
#624=ORIENTED_EDGE('',*,*,#477,.T.);
#625=ORIENTED_EDGE('',*,*,#475,.T.);
#626=ORIENTED_EDGE('',*,*,#455,.T.);
#627=ORIENTED_EDGE('',*,*,#462,.T.);
#628=ORIENTED_EDGE('',*,*,#460,.T.);
#629=ORIENTED_EDGE('',*,*,#458,.T.);
#630=ORIENTED_EDGE('',*,*,#428,.T.);
#631=ORIENTED_EDGE('',*,*,#431,.T.);
#632=ORIENTED_EDGE('',*,*,#447,.F.);
#633=ORIENTED_EDGE('',*,*,#450,.F.);
#634=ORIENTED_EDGE('',*,*,#421,.T.);
#635=ORIENTED_EDGE('',*,*,#482,.F.);
#636=ORIENTED_EDGE('',*,*,#466,.T.);
#637=ORIENTED_EDGE('',*,*,#437,.T.);
#638=ORIENTED_EDGE('',*,*,#424,.T.);
#639=ORIENTED_EDGE('',*,*,#436,.F.);
#640=ORIENTED_EDGE('',*,*,#483,.F.);
#641=ORIENTED_EDGE('',*,*,#472,.T.);
#642=ORIENTED_EDGE('',*,*,#482,.T.);
#643=ORIENTED_EDGE('',*,*,#471,.T.);
#644=ORIENTED_EDGE('',*,*,#483,.T.);
#645=ORIENTED_EDGE('',*,*,#435,.F.);
#646=ORIENTED_EDGE('',*,*,#439,.F.);
#647=ORIENTED_EDGE('',*,*,#484,.F.);
#648=ORIENTED_EDGE('',*,*,#485,.T.);
#649=ORIENTED_EDGE('',*,*,#486,.F.);
#650=ORIENTED_EDGE('',*,*,#485,.F.);
#651=ORIENTED_EDGE('',*,*,#487,.F.);
#652=ORIENTED_EDGE('',*,*,#488,.T.);
#653=ORIENTED_EDGE('',*,*,#489,.F.);
#654=ORIENTED_EDGE('',*,*,#488,.F.);
#655=ORIENTED_EDGE('',*,*,#490,.F.);
#656=ORIENTED_EDGE('',*,*,#491,.T.);
#657=ORIENTED_EDGE('',*,*,#492,.F.);
#658=ORIENTED_EDGE('',*,*,#491,.F.);
#659=ORIENTED_EDGE('',*,*,#493,.F.);
#660=ORIENTED_EDGE('',*,*,#494,.T.);
#661=ORIENTED_EDGE('',*,*,#495,.F.);
#662=ORIENTED_EDGE('',*,*,#494,.F.);
#663=ORIENTED_EDGE('',*,*,#496,.T.);
#664=ORIENTED_EDGE('',*,*,#486,.T.);
#665=ORIENTED_EDGE('',*,*,#489,.T.);
#666=ORIENTED_EDGE('',*,*,#492,.T.);
#667=ORIENTED_EDGE('',*,*,#495,.T.);
#668=ORIENTED_EDGE('',*,*,#497,.F.);
#669=ORIENTED_EDGE('',*,*,#496,.F.);
#670=ORIENTED_EDGE('',*,*,#498,.T.);
#671=ORIENTED_EDGE('',*,*,#499,.F.);
#672=ORIENTED_EDGE('',*,*,#498,.F.);
#673=ORIENTED_EDGE('',*,*,#500,.F.);
#674=ORIENTED_EDGE('',*,*,#501,.F.);
#675=ORIENTED_EDGE('',*,*,#502,.F.);
#676=ORIENTED_EDGE('',*,*,#503,.F.);
#677=ORIENTED_EDGE('',*,*,#504,.F.);
#678=ORIENTED_EDGE('',*,*,#505,.F.);
#679=ORIENTED_EDGE('',*,*,#502,.T.);
#680=ORIENTED_EDGE('',*,*,#506,.T.);
#681=ORIENTED_EDGE('',*,*,#507,.F.);
#682=ORIENTED_EDGE('',*,*,#503,.T.);
#683=ORIENTED_EDGE('',*,*,#505,.T.);
#684=ORIENTED_EDGE('',*,*,#508,.F.);
#685=ORIENTED_EDGE('',*,*,#509,.F.);
#686=ORIENTED_EDGE('',*,*,#510,.F.);
#687=ORIENTED_EDGE('',*,*,#509,.T.);
#688=ORIENTED_EDGE('',*,*,#511,.F.);
#689=ORIENTED_EDGE('',*,*,#512,.F.);
#690=ORIENTED_EDGE('',*,*,#513,.F.);
#691=ORIENTED_EDGE('',*,*,#512,.T.);
#692=ORIENTED_EDGE('',*,*,#514,.F.);
#693=ORIENTED_EDGE('',*,*,#506,.F.);
#694=ORIENTED_EDGE('',*,*,#501,.T.);
#695=ORIENTED_EDGE('',*,*,#515,.F.);
#696=ORIENTED_EDGE('',*,*,#516,.T.);
#697=ORIENTED_EDGE('',*,*,#507,.T.);
#698=ORIENTED_EDGE('',*,*,#510,.T.);
#699=ORIENTED_EDGE('',*,*,#513,.T.);
#700=ORIENTED_EDGE('',*,*,#517,.T.);
#701=ORIENTED_EDGE('',*,*,#518,.T.);
#702=ORIENTED_EDGE('',*,*,#517,.F.);
#703=ORIENTED_EDGE('',*,*,#500,.T.);
#704=ORIENTED_EDGE('',*,*,#516,.F.);
#705=ORIENTED_EDGE('',*,*,#497,.T.);
#706=ORIENTED_EDGE('',*,*,#519,.T.);
#707=ORIENTED_EDGE('',*,*,#520,.T.);
#708=ORIENTED_EDGE('',*,*,#519,.F.);
#709=ORIENTED_EDGE('',*,*,#511,.T.);
#710=ORIENTED_EDGE('',*,*,#508,.T.);
#711=ORIENTED_EDGE('',*,*,#504,.T.);
#712=ORIENTED_EDGE('',*,*,#514,.T.);
#713=ORIENTED_EDGE('',*,*,#499,.T.);
#714=ORIENTED_EDGE('',*,*,#515,.T.);
#715=ORIENTED_EDGE('',*,*,#484,.T.);
#716=ORIENTED_EDGE('',*,*,#487,.T.);
#717=ORIENTED_EDGE('',*,*,#490,.T.);
#718=ORIENTED_EDGE('',*,*,#493,.T.);
#719=ORIENTED_EDGE('',*,*,#520,.F.);
#720=ORIENTED_EDGE('',*,*,#518,.F.);
#721=CYLINDRICAL_SURFACE('',#836,17.05);
#722=CYLINDRICAL_SURFACE('',#869,2.75);
#723=CYLINDRICAL_SURFACE('',#872,2.75);
#724=CYLINDRICAL_SURFACE('',#875,2.75);
#725=CYLINDRICAL_SURFACE('',#878,2.75);
#726=CYLINDRICAL_SURFACE('',#884,27.5);
#727=CYLINDRICAL_SURFACE('',#895,17.05);
#728=CYLINDRICAL_SURFACE('',#898,19.05);
#729=ADVANCED_FACE('',(#80,#65),#721,.F.);
#730=ADVANCED_FACE('',(#81),#30,.F.);
#731=ADVANCED_FACE('',(#82),#31,.F.);
#732=ADVANCED_FACE('',(#83),#32,.T.);
#733=ADVANCED_FACE('',(#84),#33,.T.);
#734=ADVANCED_FACE('',(#85),#34,.T.);
#735=ADVANCED_FACE('',(#86),#35,.T.);
#736=ADVANCED_FACE('',(#87),#36,.T.);
#737=ADVANCED_FACE('',(#88),#37,.T.);
#738=ADVANCED_FACE('',(#89),#38,.F.);
#739=ADVANCED_FACE('',(#90,#66),#39,.F.);
#740=ADVANCED_FACE('',(#91),#40,.F.);
#741=ADVANCED_FACE('',(#92),#41,.F.);
#742=ADVANCED_FACE('',(#93),#42,.F.);
#743=ADVANCED_FACE('',(#94),#43,.F.);
#744=ADVANCED_FACE('',(#95),#44,.T.);
#745=ADVANCED_FACE('',(#96),#45,.T.);
#746=ADVANCED_FACE('',(#97),#46,.T.);
#747=ADVANCED_FACE('',(#98),#47,.T.);
#748=ADVANCED_FACE('',(#99),#48,.T.);
#749=ADVANCED_FACE('',(#100),#49,.T.);
#750=ADVANCED_FACE('',(#101),#50,.T.);
#751=ADVANCED_FACE('',(#102),#51,.T.);
#752=ADVANCED_FACE('',(#103,#67),#52,.T.);
#753=ADVANCED_FACE('',(#104),#53,.F.);
#754=ADVANCED_FACE('',(#105),#54,.T.);
#755=ADVANCED_FACE('',(#106),#55,.T.);
#756=ADVANCED_FACE('',(#107),#56,.T.);
#757=ADVANCED_FACE('',(#108),#722,.F.);
#758=ADVANCED_FACE('',(#109),#723,.F.);
#759=ADVANCED_FACE('',(#110),#724,.F.);
#760=ADVANCED_FACE('',(#111),#725,.F.);
#761=ADVANCED_FACE('',(#112,#68,#69,#70,#71,#72),#57,.F.);
#762=ADVANCED_FACE('',(#113),#726,.T.);
#763=ADVANCED_FACE('',(#114),#58,.F.);
#764=ADVANCED_FACE('',(#115),#59,.F.);
#765=ADVANCED_FACE('',(#116),#60,.F.);
#766=ADVANCED_FACE('',(#117),#61,.F.);
#767=ADVANCED_FACE('',(#118),#62,.F.);
#768=ADVANCED_FACE('',(#119),#727,.F.);
#769=ADVANCED_FACE('',(#120,#73),#728,.T.);
#770=ADVANCED_FACE('',(#121,#74,#75,#76,#77,#78),#63,.T.);
#771=ADVANCED_FACE('',(#122,#79),#64,.F.);
#772=CLOSED_SHELL('',(#729,#730,#731,#732,#733,#734,#735,#736,#737,#738,
#739,#740,#741,#742,#743,#744,#745,#746,#747,#748,#749,#750,#751,#752,#753,
#754,#755,#756));
#773=CLOSED_SHELL('',(#757,#758,#759,#760,#761,#762,#763,#764,#765,#766,
#767,#768,#769,#770,#771));
#774=DERIVED_UNIT_ELEMENT(#779,1.);
#775=DERIVED_UNIT_ELEMENT(#1342,-3.);
#776=DERIVED_UNIT_ELEMENT(#779,1.);
#777=DERIVED_UNIT_ELEMENT(#1342,-3.);
#778=DIMENSIONAL_EXPONENTS(0.,1.,0.,0.,0.,0.,0.);
#779=(
CONVERSION_BASED_UNIT('gram',#781)
MASS_UNIT()
NAMED_UNIT(#778)
);
#780=(
MASS_UNIT()
NAMED_UNIT(*)
SI_UNIT(.KILO.,.GRAM.)
);
#781=MASS_MEASURE_WITH_UNIT(MASS_MEASURE(0.001),#780);
#782=DERIVED_UNIT((#774,#775));
#783=DERIVED_UNIT((#776,#777));
#784=MEASURE_REPRESENTATION_ITEM('density measure',
POSITIVE_RATIO_MEASURE(1.),#782);
#785=MEASURE_REPRESENTATION_ITEM('density measure',
POSITIVE_RATIO_MEASURE(1.),#783);
#786=PROPERTY_DEFINITION_REPRESENTATION(#796,#790);
#787=PROPERTY_DEFINITION_REPRESENTATION(#797,#791);
#788=PROPERTY_DEFINITION_REPRESENTATION(#798,#792);
#789=PROPERTY_DEFINITION_REPRESENTATION(#799,#793);
#790=REPRESENTATION('material name',(#794),#1338);
#791=REPRESENTATION('density',(#784),#1338);
#792=REPRESENTATION('material name',(#795),#1339);
#793=REPRESENTATION('density',(#785),#1339);
#794=DESCRIPTIVE_REPRESENTATION_ITEM('Gen\X\E9rico','Gen\X\E9rico');
#795=DESCRIPTIVE_REPRESENTATION_ITEM('Gen\X\E9rico','Gen\X\E9rico');
#796=PROPERTY_DEFINITION('material property','material name',#1358);
#797=PROPERTY_DEFINITION('material property','density of part',#1358);
#798=PROPERTY_DEFINITION('material property','material name',#1359);
#799=PROPERTY_DEFINITION('material property','density of part',#1359);
#800=PRESENTATION_STYLE_ASSIGNMENT((#802));
#801=PRESENTATION_STYLE_ASSIGNMENT((#803));
#802=SURFACE_STYLE_USAGE(.BOTH.,#806);
#803=SURFACE_STYLE_USAGE(.BOTH.,#807);
#804=SURFACE_STYLE_RENDERING_WITH_PROPERTIES($,#814,(#805));
#805=SURFACE_STYLE_TRANSPARENT(0.);
#806=SURFACE_SIDE_STYLE('',(#808,#804));
#807=SURFACE_SIDE_STYLE('',(#809));
#808=SURFACE_STYLE_FILL_AREA(#810);
#809=SURFACE_STYLE_FILL_AREA(#811);
#810=FILL_AREA_STYLE('',(#812));
#811=FILL_AREA_STYLE('',(#813));
#812=FILL_AREA_STYLE_COLOUR('',#814);
#813=FILL_AREA_STYLE_COLOUR('',#815);
#814=COLOUR_RGB('',0.749019607843137,0.749019607843137,0.749019607843137);
#815=COLOUR_RGB('',0.913725490196078,0.913725490196078,0.);
#816=DATE_TIME_ROLE('creation_date');
#817=DATE_TIME_ROLE('creation_date');
#818=DATE_TIME_ROLE('creation_date');
#819=APPLIED_DATE_AND_TIME_ASSIGNMENT(#822,#816,(#1357));
#820=APPLIED_DATE_AND_TIME_ASSIGNMENT(#823,#817,(#1358));
#821=APPLIED_DATE_AND_TIME_ASSIGNMENT(#824,#818,(#1359));
#822=DATE_AND_TIME(#825,#828);
#823=DATE_AND_TIME(#826,#829);
#824=DATE_AND_TIME(#827,#830);
#825=CALENDAR_DATE(2025,3,12);
#826=CALENDAR_DATE(2025,3,12);
#827=CALENDAR_DATE(2025,3,12);
#828=LOCAL_TIME(0,0,0.,#831);
#829=LOCAL_TIME(0,0,0.,#832);
#830=LOCAL_TIME(0,0,0.,#833);
#831=COORDINATED_UNIVERSAL_TIME_OFFSET(0,0,.BEHIND.);
#832=COORDINATED_UNIVERSAL_TIME_OFFSET(0,0,.BEHIND.);
#833=COORDINATED_UNIVERSAL_TIME_OFFSET(0,0,.BEHIND.);
#834=AXIS2_PLACEMENT_3D('',#1122,#904,#905);
#835=AXIS2_PLACEMENT_3D('',#1123,#906,#907);
#836=AXIS2_PLACEMENT_3D('',#1124,#908,#909);
#837=AXIS2_PLACEMENT_3D('',#1129,#911,#912);
#838=AXIS2_PLACEMENT_3D('',#1132,#914,#915);
#839=AXIS2_PLACEMENT_3D('',#1135,#916,#917);
#840=AXIS2_PLACEMENT_3D('',#1139,#919,#920);
#841=AXIS2_PLACEMENT_3D('',#1141,#922,#923);
#842=AXIS2_PLACEMENT_3D('',#1147,#927,#928);
#843=AXIS2_PLACEMENT_3D('',#1151,#931,#932);
#844=AXIS2_PLACEMENT_3D('',#1157,#936,#937);
#845=AXIS2_PLACEMENT_3D('',#1163,#941,#942);
#846=AXIS2_PLACEMENT_3D('',#1169,#946,#947);
#847=AXIS2_PLACEMENT_3D('',#1175,#951,#952);
#848=AXIS2_PLACEMENT_3D('',#1180,#956,#957);
#849=AXIS2_PLACEMENT_3D('',#1182,#959,#960);
#850=AXIS2_PLACEMENT_3D('',#1184,#962,#963);
#851=AXIS2_PLACEMENT_3D('',#1193,#968,#969);
#852=AXIS2_PLACEMENT_3D('',#1199,#973,#974);
#853=AXIS2_PLACEMENT_3D('',#1203,#977,#978);
#854=AXIS2_PLACEMENT_3D('',#1207,#981,#982);
#855=AXIS2_PLACEMENT_3D('',#1209,#984,#985);
#856=AXIS2_PLACEMENT_3D('',#1217,#990,#991);
#857=AXIS2_PLACEMENT_3D('',#1221,#994,#995);
#858=AXIS2_PLACEMENT_3D('',#1227,#999,#1000);
#859=AXIS2_PLACEMENT_3D('',#1230,#1003,#1004);
#860=AXIS2_PLACEMENT_3D('',#1236,#1008,#1009);
#861=AXIS2_PLACEMENT_3D('',#1240,#1012,#1013);
#862=AXIS2_PLACEMENT_3D('',#1244,#1016,#1017);
#863=AXIS2_PLACEMENT_3D('',#1246,#1019,#1020);
#864=AXIS2_PLACEMENT_3D('',#1247,#1021,#1022);
#865=AXIS2_PLACEMENT_3D('',#1248,#1023,#1024);
#866=AXIS2_PLACEMENT_3D('',#1250,#1026,#1027);
#867=AXIS2_PLACEMENT_3D('',#1252,#1029,#1030);
#868=AXIS2_PLACEMENT_3D('',#1254,#1031,#1032);
#869=AXIS2_PLACEMENT_3D('',#1255,#1033,#1034);
#870=AXIS2_PLACEMENT_3D('',#1257,#1035,#1036);
#871=AXIS2_PLACEMENT_3D('',#1260,#1038,#1039);
#872=AXIS2_PLACEMENT_3D('',#1261,#1040,#1041);
#873=AXIS2_PLACEMENT_3D('',#1263,#1042,#1043);
#874=AXIS2_PLACEMENT_3D('',#1266,#1045,#1046);
#875=AXIS2_PLACEMENT_3D('',#1267,#1047,#1048);
#876=AXIS2_PLACEMENT_3D('',#1269,#1049,#1050);
#877=AXIS2_PLACEMENT_3D('',#1272,#1052,#1053);
#878=AXIS2_PLACEMENT_3D('',#1273,#1054,#1055);
#879=AXIS2_PLACEMENT_3D('',#1275,#1056,#1057);
#880=AXIS2_PLACEMENT_3D('',#1278,#1059,#1060);
#881=AXIS2_PLACEMENT_3D('',#1279,#1061,#1062);
#882=AXIS2_PLACEMENT_3D('',#1281,#1063,#1064);
#883=AXIS2_PLACEMENT_3D('',#1283,#1065,#1066);
#884=AXIS2_PLACEMENT_3D('',#1284,#1067,#1068);
#885=AXIS2_PLACEMENT_3D('',#1287,#1070,#1071);
#886=AXIS2_PLACEMENT_3D('',#1288,#1072,#1073);
#887=AXIS2_PLACEMENT_3D('',#1297,#1078,#1079);
#888=AXIS2_PLACEMENT_3D('',#1303,#1083,#1084);
#889=AXIS2_PLACEMENT_3D('',#1305,#1085,#1086);
#890=AXIS2_PLACEMENT_3D('',#1307,#1087,#1088);
#891=AXIS2_PLACEMENT_3D('',#1309,#1090,#1091);
#892=AXIS2_PLACEMENT_3D('',#1315,#1095,#1096);
#893=AXIS2_PLACEMENT_3D('',#1316,#1097,#1098);
#894=AXIS2_PLACEMENT_3D('',#1317,#1099,#1100);
#895=AXIS2_PLACEMENT_3D('',#1318,#1101,#1102);
#896=AXIS2_PLACEMENT_3D('',#1320,#1103,#1104);
#897=AXIS2_PLACEMENT_3D('',#1324,#1107,#1108);
#898=AXIS2_PLACEMENT_3D('',#1325,#1109,#1110);
#899=AXIS2_PLACEMENT_3D('',#1328,#1112,#1113);
#900=AXIS2_PLACEMENT_3D('',#1329,#1114,#1115);
#901=AXIS2_PLACEMENT_3D('',#1330,#1116,#1117);
#902=AXIS2_PLACEMENT_3D('',#1331,#1118,#1119);
#903=AXIS2_PLACEMENT_3D('',#1332,#1120,#1121);
#904=DIRECTION('axis',(0.,0.,1.));
#905=DIRECTION('refdir',(1.,0.,0.));
#906=DIRECTION('axis',(0.,0.,1.));
#907=DIRECTION('refdir',(1.,0.,0.));
#908=DIRECTION('center_axis',(5.2062181086555E-16,-3.32534215549573E-16,
-1.));
#909=DIRECTION('ref_axis',(1.,9.43472730496883E-16,5.2062181086555E-16));
#910=DIRECTION('',(-5.2062181086555E-16,3.32534215549573E-16,1.));
#911=DIRECTION('center_axis',(-4.60075758067052E-30,6.50755444787908E-16,
1.));
#912=DIRECTION('ref_axis',(1.,9.43472730496883E-16,5.2062181086555E-16));
#913=DIRECTION('',(5.2062181086555E-16,-3.32534215549573E-16,-1.));
#914=DIRECTION('center_axis',(4.60075758067052E-30,-6.50755444787908E-16,
-1.));
#915=DIRECTION('ref_axis',(1.,9.43472730496883E-16,5.2062181086555E-16));
#916=DIRECTION('center_axis',(4.60075758067052E-30,-6.50755444787908E-16,
-1.));
#917=DIRECTION('ref_axis',(1.,9.43472730496883E-16,5.2062181086555E-16));
#918=DIRECTION('',(5.2062181086555E-16,-3.32534215549573E-16,-1.));
#919=DIRECTION('center_axis',(1.61907524424497E-16,6.50755444787908E-16,
1.));
#920=DIRECTION('ref_axis',(1.,9.43472730496883E-16,5.2062181086555E-16));
#921=DIRECTION('',(-5.2062181086555E-16,3.32534215549573E-16,1.));
#922=DIRECTION('center_axis',(1.61907524424497E-16,6.50755444787908E-16,
1.));
#923=DIRECTION('ref_axis',(-1.,-4.14151975241031E-30,1.61907524424497E-16));
#924=DIRECTION('',(4.33873497871556E-30,-1.,6.50755444787908E-16));
#925=DIRECTION('',(1.,4.14151975241031E-30,-1.61907524424497E-16));
#926=DIRECTION('',(4.33873497871556E-30,-1.,6.50755444787908E-16));
#927=DIRECTION('center_axis',(1.,4.14151975241031E-30,-1.85037170770855E-16));
#928=DIRECTION('ref_axis',(1.85037170770855E-16,6.50755444787909E-16,1.));
#929=DIRECTION('',(4.33873497871556E-30,-1.,6.50755444787908E-16));
#930=DIRECTION('',(-1.85037170770855E-16,-6.50755444787909E-16,-1.));
#931=DIRECTION('center_axis',(-4.33873497871556E-30,1.,-6.50755444787908E-16));
#932=DIRECTION('ref_axis',(-4.60075758067052E-30,6.50755444787908E-16,1.));
#933=DIRECTION('',(-1.,-4.33873497871556E-30,-4.69068239314034E-30));
#934=DIRECTION('',(1.48029736616683E-16,6.50755444787908E-16,1.));
#935=DIRECTION('',(1.,4.33873497871556E-30,4.69068239314034E-30));
#936=DIRECTION('center_axis',(4.60075758067052E-30,-6.50755444787908E-16,
-1.));
#937=DIRECTION('ref_axis',(-1.,-4.33873497871556E-30,-4.69068239314034E-30));
#938=DIRECTION('',(-4.33873497871556E-30,1.,-6.50755444787908E-16));
#939=DIRECTION('',(-1.,-4.33873497871556E-30,-4.69068239314034E-30));
#940=DIRECTION('',(-4.33873497871556E-30,1.,-6.50755444787908E-16));
#941=DIRECTION('center_axis',(-0.707106781186547,-0.707106781186548,5.90994626127242E-16));
#942=DIRECTION('ref_axis',(1.85037170770855E-16,6.50755444787909E-16,1.));
#943=DIRECTION('',(1.85037170770855E-16,6.50755444787909E-16,1.));
#944=DIRECTION('',(-0.577350269189626,0.577350269189625,-0.577350269189626));
#945=DIRECTION('',(0.577350269189626,-0.577350269189626,-0.577350269189626));
#946=DIRECTION('center_axis',(-2.95822839457879E-31,-0.707106781186547,
0.707106781186548));
#947=DIRECTION('ref_axis',(1.,4.33873497871556E-30,4.69068239314034E-30));
#948=DIRECTION('',(-1.,-4.33873497871556E-30,-4.69068239314034E-30));
#949=DIRECTION('',(-0.577350269189626,-0.577350269189626,-0.577350269189625));
#950=DIRECTION('',(1.,4.33873497871556E-30,4.69068239314034E-30));
#951=DIRECTION('center_axis',(0.707106781186547,-0.707106781186548,1.98471511456305E-16));
#952=DIRECTION('ref_axis',(-3.70074341541714E-16,-6.50755444787909E-16,
-1.));
#953=DIRECTION('',(-3.70074341541714E-16,-6.50755444787909E-16,-1.));
#954=DIRECTION('',(3.70074341541714E-16,6.50755444787909E-16,1.));
#955=DIRECTION('',(-0.577350269189626,-0.577350269189626,0.577350269189626));
#956=DIRECTION('center_axis',(-1.14485908445686E-16,-0.707106781186548,
-0.707106781186547));
#957=DIRECTION('ref_axis',(-1.,-4.14151975241031E-30,1.61907524424497E-16));
#958=DIRECTION('',(-1.,-4.14151975241031E-30,1.61907524424497E-16));
#959=DIRECTION('center_axis',(4.60075758067052E-30,-6.50755444787908E-16,
-1.));
#960=DIRECTION('ref_axis',(1.,4.33873497871556E-30,4.69068239314034E-30));
#961=DIRECTION('',(4.33873497871556E-30,-1.,6.50755444787908E-16));
#962=DIRECTION('center_axis',(-4.33873497871556E-30,1.,-6.50755444787908E-16));
#963=DIRECTION('ref_axis',(-4.60075758067052E-30,6.50755444787908E-16,1.));
#964=DIRECTION('',(1.,4.33873497871556E-30,4.69068239314034E-30));
#965=DIRECTION('',(-4.60075758067052E-30,6.50755444787908E-16,1.));
#966=DIRECTION('',(-1.,-4.33873497871556E-30,-4.69068239314034E-30));
#967=DIRECTION('',(4.60075758067052E-30,-6.50755444787908E-16,-1.));
#968=DIRECTION('center_axis',(-1.,-4.33873497871556E-30,-4.69068239314034E-30));
#969=DIRECTION('ref_axis',(-4.60075758067052E-30,6.50755444787908E-16,1.));
#970=DIRECTION('',(-4.60075758067052E-30,6.50755444787908E-16,1.));
#971=DIRECTION('',(-4.33873497871556E-30,1.,-6.50755444787908E-16));
#972=DIRECTION('',(-4.33873497871556E-30,1.,-6.50755444787908E-16));
#973=DIRECTION('center_axis',(4.60075758067052E-30,-6.50755444787908E-16,
-1.));
#974=DIRECTION('ref_axis',(-1.,-4.33873497871556E-30,-4.69068239314034E-30));
#975=DIRECTION('',(-1.,-4.33873497871556E-30,-4.69068239314034E-30));
#976=DIRECTION('',(-4.33873497871556E-30,1.,-6.50755444787908E-16));
#977=DIRECTION('center_axis',(1.,4.33873497871556E-30,4.69068239314034E-30));
#978=DIRECTION('ref_axis',(4.60075758067052E-30,-6.50755444787908E-16,-1.));
#979=DIRECTION('',(4.60075758067052E-30,-6.50755444787908E-16,-1.));
#980=DIRECTION('',(-4.33873497871556E-30,1.,-6.50755444787908E-16));
#981=DIRECTION('center_axis',(-4.60075758067052E-30,6.50755444787908E-16,
1.));
#982=DIRECTION('ref_axis',(1.,4.33873497871556E-30,4.69068239314034E-30));
#983=DIRECTION('',(1.,4.33873497871556E-30,4.69068239314034E-30));
#984=DIRECTION('center_axis',(0.707106781186548,0.707106781186548,-1.06882784699745E-16));
#985=DIRECTION('ref_axis',(4.99600361081325E-16,-6.50755444787909E-16,-1.));
#986=DIRECTION('',(0.577350269189626,-0.577350269189626,0.577350269189626));
#987=DIRECTION('',(4.99600361081325E-16,-6.50755444787909E-16,-1.));
#988=DIRECTION('',(-0.577350269189626,0.577350269189626,0.577350269189625));
#989=DIRECTION('',(-2.9605947323337E-16,-6.50755444787909E-16,-1.));
#990=DIRECTION('center_axis',(1.57009245868378E-16,0.707106781186547,-0.707106781186548));
#991=DIRECTION('ref_axis',(-1.,-4.53595020502082E-30,-2.22044604925036E-16));
#992=DIRECTION('',(-1.,-4.53595020502082E-30,-2.22044604925036E-16));
#993=DIRECTION('',(0.577350269189626,0.577350269189626,0.577350269189626));
#994=DIRECTION('center_axis',(-0.707106781186548,0.707106781186548,-7.74172079640355E-16));
#995=DIRECTION('ref_axis',(-4.44089209850067E-16,6.50755444787909E-16,1.));
#996=DIRECTION('',(-4.44089209850067E-16,6.50755444787909E-16,1.));
#997=DIRECTION('',(-0.577350269189626,-0.577350269189625,0.577350269189626));
#998=DIRECTION('',(1.48029736616683E-16,6.50755444787908E-16,1.));
#999=DIRECTION('center_axis',(-7.8504622934195E-17,0.707106781186548,0.707106781186547));
#1000=DIRECTION('ref_axis',(1.,4.33873497871556E-30,1.1102230246252E-16));
#1001=DIRECTION('',(1.,4.33873497871556E-30,4.69068239314034E-30));
#1002=DIRECTION('',(1.,4.33873497871556E-30,1.1102230246252E-16));
#1003=DIRECTION('center_axis',(1.,4.53595020502082E-30,4.99600361081325E-16));
#1004=DIRECTION('ref_axis',(-4.99600361081325E-16,6.50755444787909E-16,
1.));
#1005=DIRECTION('',(4.33873497871556E-30,-1.,6.50755444787908E-16));
#1006=DIRECTION('',(-4.99600361081325E-16,6.50755444787909E-16,1.));
#1007=DIRECTION('',(4.33873497871556E-30,-1.,6.50755444787908E-16));
#1008=DIRECTION('center_axis',(2.22044604925036E-16,-6.50755444787908E-16,
-1.));
#1009=DIRECTION('ref_axis',(1.,4.53595020502082E-30,2.22044604925036E-16));
#1010=DIRECTION('',(1.,4.53595020502082E-30,2.22044604925036E-16));
#1011=DIRECTION('',(4.33873497871556E-30,-1.,6.50755444787908E-16));
#1012=DIRECTION('center_axis',(-1.,-4.53595020502082E-30,-4.44089209850067E-16));
#1013=DIRECTION('ref_axis',(4.44089209850067E-16,-6.50755444787909E-16,
-1.));
#1014=DIRECTION('',(4.44089209850067E-16,-6.50755444787909E-16,-1.));
#1015=DIRECTION('',(4.33873497871556E-30,-1.,6.50755444787908E-16));
#1016=DIRECTION('center_axis',(-1.1102230246252E-16,6.50755444787908E-16,
1.));
#1017=DIRECTION('ref_axis',(-1.,-4.33873497871556E-30,-1.1102230246252E-16));
#1018=DIRECTION('',(-1.,-4.33873497871556E-30,-1.1102230246252E-16));
#1019=DIRECTION('center_axis',(4.33873497871556E-30,-1.,6.50755444787908E-16));
#1020=DIRECTION('ref_axis',(4.60075758067052E-30,-6.50755444787908E-16,
-1.));
#1021=DIRECTION('center_axis',(-1.,-3.94430452610506E-30,3.70074341541714E-16));
#1022=DIRECTION('ref_axis',(-3.70074341541714E-16,-6.50755444787909E-16,
-1.));
#1023=DIRECTION('center_axis',(1.,4.14151975241031E-30,-2.9605947323337E-16));
#1024=DIRECTION('ref_axis',(-2.9605947323337E-16,-6.50755444787909E-16,
-1.));
#1025=DIRECTION('',(-4.33873497871556E-30,1.,-6.50755444787908E-16));
#1026=DIRECTION('center_axis',(-4.60075758067052E-30,6.50755444787908E-16,
1.));
#1027=DIRECTION('ref_axis',(1.,4.33873497871556E-30,4.69068239314034E-30));
#1028=DIRECTION('',(-4.33873497871556E-30,1.,-6.50755444787908E-16));
#1029=DIRECTION('center_axis',(-1.,-4.14151975241031E-30,1.48029736616683E-16));
#1030=DIRECTION('ref_axis',(1.48029736616683E-16,6.50755444787908E-16,1.));
#1031=DIRECTION('axis',(0.,0.,1.));
#1032=DIRECTION('refdir',(1.,0.,0.));
#1033=DIRECTION('center_axis',(0.,-1.,0.));
#1034=DIRECTION('ref_axis',(1.,0.,0.));
#1035=DIRECTION('center_axis',(0.,-1.,0.));
#1036=DIRECTION('ref_axis',(1.,0.,0.));
#1037=DIRECTION('',(0.,-1.,0.));
#1038=DIRECTION('center_axis',(0.,1.,0.));
#1039=DIRECTION('ref_axis',(1.,0.,0.));
#1040=DIRECTION('center_axis',(0.,-1.,0.));
#1041=DIRECTION('ref_axis',(1.,0.,0.));
#1042=DIRECTION('center_axis',(0.,-1.,0.));
#1043=DIRECTION('ref_axis',(1.,0.,0.));
#1044=DIRECTION('',(0.,-1.,0.));
#1045=DIRECTION('center_axis',(0.,1.,0.));
#1046=DIRECTION('ref_axis',(1.,0.,0.));
#1047=DIRECTION('center_axis',(0.,-1.,0.));
#1048=DIRECTION('ref_axis',(1.,0.,0.));
#1049=DIRECTION('center_axis',(0.,-1.,0.));
#1050=DIRECTION('ref_axis',(1.,0.,0.));
#1051=DIRECTION('',(0.,-1.,0.));
#1052=DIRECTION('center_axis',(0.,1.,0.));
#1053=DIRECTION('ref_axis',(1.,0.,0.));
#1054=DIRECTION('center_axis',(0.,-1.,0.));
#1055=DIRECTION('ref_axis',(1.,0.,0.));
#1056=DIRECTION('center_axis',(0.,-1.,0.));
#1057=DIRECTION('ref_axis',(1.,0.,0.));
#1058=DIRECTION('',(0.,-1.,0.));
#1059=DIRECTION('center_axis',(0.,1.,0.));
#1060=DIRECTION('ref_axis',(1.,0.,0.));
#1061=DIRECTION('center_axis',(0.,1.,0.));
#1062=DIRECTION('ref_axis',(0.,0.,1.));
#1063=DIRECTION('center_axis',(0.,-1.,0.));
#1064=DIRECTION('ref_axis',(1.,0.,0.));
#1065=DIRECTION('center_axis',(0.,-1.,0.));
#1066=DIRECTION('ref_axis',(-1.,0.,0.));
#1067=DIRECTION('center_axis',(0.,-1.,0.));
#1068=DIRECTION('ref_axis',(1.,0.,0.));
#1069=DIRECTION('',(0.,1.,0.));
#1070=DIRECTION('center_axis',(0.,1.,0.));
#1071=DIRECTION('ref_axis',(1.,0.,0.));
#1072=DIRECTION('center_axis',(0.,0.,1.));
#1073=DIRECTION('ref_axis',(1.,0.,0.));
#1074=DIRECTION('',(0.,1.,0.));
#1075=DIRECTION('',(1.,1.48029736616688E-16,0.));
#1076=DIRECTION('',(1.48029736616688E-16,-1.,0.));
#1077=DIRECTION('',(-1.,0.,0.));
#1078=DIRECTION('center_axis',(-1.,-1.48029736616688E-16,0.));
#1079=DIRECTION('ref_axis',(-1.48029736616688E-16,1.,0.));
#1080=DIRECTION('',(0.,-1.,0.));
#1081=DIRECTION('',(0.,0.,-1.));
#1082=DIRECTION('',(0.,0.,-1.));
#1083=DIRECTION('center_axis',(0.,1.,0.));
#1084=DIRECTION('ref_axis',(1.,0.,0.));
#1085=DIRECTION('center_axis',(0.,-1.,0.));
#1086=DIRECTION('ref_axis',(1.,0.,0.));
#1087=DIRECTION('center_axis',(0.,1.,0.));
#1088=DIRECTION('ref_axis',(-1.,0.,0.));
#1089=DIRECTION('',(0.,0.,-1.));
#1090=DIRECTION('center_axis',(1.,7.40148683083438E-17,0.));
#1091=DIRECTION('ref_axis',(7.40148683083438E-17,-1.,0.));
#1092=DIRECTION('',(0.,-1.,0.));
#1093=DIRECTION('',(0.,1.,0.));
#1094=DIRECTION('',(0.,0.,-1.));
#1095=DIRECTION('center_axis',(1.48029736616688E-16,-1.,0.));
#1096=DIRECTION('ref_axis',(-1.,-1.48029736616688E-16,0.));
#1097=DIRECTION('center_axis',(-1.48029736616688E-16,1.,0.));
#1098=DIRECTION('ref_axis',(1.,0.,0.));
#1099=DIRECTION('center_axis',(1.48029736616688E-16,-1.,0.));
#1100=DIRECTION('ref_axis',(-1.,0.,0.));
#1101=DIRECTION('center_axis',(0.,1.,0.));
#1102=DIRECTION('ref_axis',(1.,0.,0.));
#1103=DIRECTION('center_axis',(0.,-1.,0.));
#1104=DIRECTION('ref_axis',(1.,0.,0.));
#1105=DIRECTION('',(0.,-1.,0.));
#1106=DIRECTION('',(0.,-1.,0.));
#1107=DIRECTION('center_axis',(0.,-1.,0.));
#1108=DIRECTION('ref_axis',(1.,0.,0.));
#1109=DIRECTION('center_axis',(0.,1.,0.));
#1110=DIRECTION('ref_axis',(-1.,0.,0.));
#1111=DIRECTION('',(0.,-1.,0.));
#1112=DIRECTION('center_axis',(0.,1.,0.));
#1113=DIRECTION('ref_axis',(-1.,0.,0.));
#1114=DIRECTION('center_axis',(0.,1.,0.));
#1115=DIRECTION('ref_axis',(0.,0.,1.));
#1116=DIRECTION('center_axis',(0.,1.,0.));
#1117=DIRECTION('ref_axis',(0.,0.,1.));
#1118=DIRECTION('',(1.08905599947363E-15,-1.,-5.36612065684247E-15));
#1119=DIRECTION('',(1.,1.08905599947363E-15,-9.43472730496876E-16));
#1120=DIRECTION('',(1.5567408473416E-13,-5.65697165510597E-15,1.));
#1121=DIRECTION('',(1.,5.88588276655147E-16,-1.5567408473416E-13));
#1122=CARTESIAN_POINT('',(0.,0.,0.));
#1123=CARTESIAN_POINT('',(0.,0.,0.));
#1124=CARTESIAN_POINT('Origin',(-12.7201968916144,58.0194079915912,21.5895061237283));
#1125=CARTESIAN_POINT('',(2.55795384873636E-12,46.6660344383914,-29.9999999999955));
#1126=CARTESIAN_POINT('',(2.55795384873636E-12,46.6660344383914,4.47641923528863E-12));
#1127=CARTESIAN_POINT('',(2.55795384873636E-12,46.6660344383914,21.5895061237283));
#1128=CARTESIAN_POINT('',(-27.7665119044167,50.0000000000047,-29.9999999999956));
#1129=CARTESIAN_POINT('Origin',(-12.7201968916144,58.0194079915911,-29.9999999999955));
#1130=CARTESIAN_POINT('',(-27.7665119044167,50.0000000000048,4.40536496171262E-12));
#1131=CARTESIAN_POINT('',(-27.7665119044167,50.0000000000048,21.5895061237283));
#1132=CARTESIAN_POINT('Origin',(-12.7201968916144,58.0194079915912,4.40536496171262E-12));
#1133=CARTESIAN_POINT('',(-2.99999999999741,44.0115433296165,-26.9999999999956));
#1134=CARTESIAN_POINT('',(-26.9999999999975,48.7033077782071,-26.9999999999956));
#1135=CARTESIAN_POINT('Origin',(-12.7201968916144,58.0194079915912,-26.9999999999955));
#1136=CARTESIAN_POINT('',(-2.99999999999741,44.0115433296165,-2.99999999999557));
#1137=CARTESIAN_POINT('',(-2.99999999999741,44.0115433296165,21.5895061237283));
#1138=CARTESIAN_POINT('',(-26.9999999999975,48.7033077782072,-2.99999999999557));
#1139=CARTESIAN_POINT('Origin',(-12.7201968916144,58.0194079915912,-2.99999999999557));
#1140=CARTESIAN_POINT('',(-26.9999999999973,48.703307778207,21.5895061237283));
#1141=CARTESIAN_POINT('Origin',(-2.99999999999741,50.0000000000048,-2.99999999999564));
#1142=CARTESIAN_POINT('',(-2.99999999999727,-1.74999999999521,-2.9999999999955));
#1143=CARTESIAN_POINT('',(-2.99999999999727,4.76063632959267E-12,-2.99999999999557));
#1144=CARTESIAN_POINT('',(-26.9999999999973,-1.74999999999521,-2.9999999999955));
#1145=CARTESIAN_POINT('',(-9.51702340750103,-1.74999999999521,-2.9999999999955));
#1146=CARTESIAN_POINT('',(-26.9999999999973,4.83169060316868E-12,-2.99999999999557));
#1147=CARTESIAN_POINT('Origin',(-2.99999999999741,50.0000000000048,-26.9999999999956));
#1148=CARTESIAN_POINT('',(-2.99999999999727,-1.74999999999521,-26.9999999999956));
#1149=CARTESIAN_POINT('',(-2.99999999999727,4.76063632959267E-12,-26.9999999999956));
#1150=CARTESIAN_POINT('',(-2.99999999999727,-1.74999999999528,-21.5170234074993));
#1151=CARTESIAN_POINT('Origin',(-14.9999999999974,50.0000000000048,-14.9999999999956));
#1152=CARTESIAN_POINT('',(-29.9999999999974,50.0000000000048,-29.9999999999957));
#1153=CARTESIAN_POINT('',(2.55795384873636E-12,50.0000000000048,-29.9999999999956));
#1154=CARTESIAN_POINT('',(-29.9999999999974,50.0000000000048,4.33431068813661E-12));
#1155=CARTESIAN_POINT('',(-29.9999999999974,50.0000000000048,-29.9999999999957));
#1156=CARTESIAN_POINT('',(-29.9999999999974,50.0000000000048,4.33431068813661E-12));
#1157=CARTESIAN_POINT('Origin',(2.70006239588838E-12,4.76063632959267E-12,
-29.9999999999956));
#1158=CARTESIAN_POINT('',(2.70006239588838E-12,4.76063632959267E-12,-29.9999999999956));
#1159=CARTESIAN_POINT('',(2.70006239588838E-12,4.76063632959267E-12,-29.9999999999956));
#1160=CARTESIAN_POINT('',(-29.9999999999973,4.76063632959267E-12,-29.9999999999957));
#1161=CARTESIAN_POINT('',(2.70006239588838E-12,4.76063632959267E-12,-29.9999999999956));
#1162=CARTESIAN_POINT('',(-29.9999999999973,4.76063632959267E-12,-29.9999999999957));
#1163=CARTESIAN_POINT('Origin',(6.00000000000264,-10.7499999999953,-21.5170234074993));
#1164=CARTESIAN_POINT('',(15.0000000000026,-19.7499999999952,-44.9999999999956));
#1165=CARTESIAN_POINT('',(15.0000000000027,-19.7499999999952,15.0000000000044));
#1166=CARTESIAN_POINT('',(15.0000000000027,-19.7499999999952,-21.5170234074993));
#1167=CARTESIAN_POINT('',(15.0000000000027,-19.7499999999952,15.0000000000044));
#1168=CARTESIAN_POINT('',(-2.99999999999727,-1.74999999999521,-26.9999999999956));
#1169=CARTESIAN_POINT('Origin',(-21.5170234075011,-10.7499999999952,-35.9999999999955));
#1170=CARTESIAN_POINT('',(-26.9999999999973,-1.74999999999528,-26.9999999999955));
#1171=CARTESIAN_POINT('',(-21.5170234075011,-1.74999999999521,-26.9999999999955));
#1172=CARTESIAN_POINT('',(-44.9999999999974,-19.7499999999953,-44.9999999999956));
#1173=CARTESIAN_POINT('',(-26.9999999999973,-1.74999999999528,-26.9999999999955));
#1174=CARTESIAN_POINT('',(-21.5170234075011,-19.7499999999953,-44.9999999999955));
#1175=CARTESIAN_POINT('Origin',(-35.9999999999972,-10.7499999999952,-9.51702340749932));
#1176=CARTESIAN_POINT('',(-44.9999999999973,-19.7499999999952,15.0000000000044));
#1177=CARTESIAN_POINT('',(-44.9999999999973,-19.7499999999952,-9.51702340749932));
#1178=CARTESIAN_POINT('',(-26.9999999999973,-1.74999999999521,-9.51702340749925));
#1179=CARTESIAN_POINT('',(-26.9999999999973,-1.74999999999521,-2.9999999999955));
#1180=CARTESIAN_POINT('Origin',(-9.51702340750103,-10.7499999999952,6.00000000000442));
#1181=CARTESIAN_POINT('',(-9.51702340750103,-19.7499999999953,15.0000000000045));
#1182=CARTESIAN_POINT('Origin',(-26.9999999999975,50.0000000000047,-26.9999999999956));
#1183=CARTESIAN_POINT('',(-26.9999999999975,50.0000000000047,-26.9999999999956));
#1184=CARTESIAN_POINT('Origin',(-16.0340468150048,-19.7499999999952,-16.034046815003));
#1185=CARTESIAN_POINT('',(-47.7086668687343,-19.7499999999952,15.6405732387265));
#1186=CARTESIAN_POINT('',(15.6405732387248,-19.7499999999952,15.6405732387265));
#1187=CARTESIAN_POINT('',(15.6405732387248,-19.7499999999952,15.6405732387265));
#1188=CARTESIAN_POINT('',(-47.7086668687343,-19.7499999999953,-47.7086668687325));
#1189=CARTESIAN_POINT('',(-47.7086668687343,-19.7499999999952,15.6405732387265));
#1190=CARTESIAN_POINT('',(15.6405732387248,-19.7499999999953,-47.7086668687325));
#1191=CARTESIAN_POINT('',(-47.7086668687343,-19.7499999999953,-47.7086668687325));
#1192=CARTESIAN_POINT('',(15.6405732387248,-19.7499999999953,-47.7086668687325));
#1193=CARTESIAN_POINT('Origin',(-47.7086668687343,-59.9999999999953,-47.7086668687325));
#1194=CARTESIAN_POINT('',(-47.7086668687343,-59.9999999999953,-47.7086668687325));
#1195=CARTESIAN_POINT('',(-47.7086668687343,-59.9999999999952,15.6405732387265));
#1196=CARTESIAN_POINT('',(-47.7086668687343,-59.9999999999952,-31.354333434364));
#1197=CARTESIAN_POINT('',(-47.7086668687343,-59.9999999999953,-47.7086668687325));
#1198=CARTESIAN_POINT('',(-47.7086668687343,-59.9999999999952,15.6405732387265));
#1199=CARTESIAN_POINT('Origin',(15.6405732387246,-59.9999999999953,-47.7086668687325));
#1200=CARTESIAN_POINT('',(15.6405732387246,-59.9999999999953,-47.7086668687325));
#1201=CARTESIAN_POINT('',(0.320286619363657,-59.9999999999952,-47.7086668687325));
#1202=CARTESIAN_POINT('',(15.6405732387246,-59.9999999999953,-47.7086668687325));
#1203=CARTESIAN_POINT('Origin',(15.6405732387248,-59.9999999999952,15.6405732387265));
#1204=CARTESIAN_POINT('',(15.6405732387248,-59.9999999999952,15.6405732387266));
#1205=CARTESIAN_POINT('',(15.6405732387248,-59.9999999999952,0.320286619365504));
#1206=CARTESIAN_POINT('',(15.6405732387248,-59.9999999999952,15.6405732387266));
#1207=CARTESIAN_POINT('Origin',(-47.7086668687343,-59.9999999999952,15.6405732387265));
#1208=CARTESIAN_POINT('',(-31.3543334343659,-59.9999999999952,15.6405732387265));
#1209=CARTESIAN_POINT('Origin',(12.5000000000026,-12.4999999999952,-34.9999999999955));
#1210=CARTESIAN_POINT('',(2.70006239588838E-12,4.76063632959267E-12,4.40536496171262E-12));
#1211=CARTESIAN_POINT('',(25.0000000000027,-24.9999999999952,25.0000000000044));
#1212=CARTESIAN_POINT('',(3.33333333333599,-3.3333333333286,3.33333333333776));
#1213=CARTESIAN_POINT('',(25.0000000000026,-24.9999999999952,-54.9999999999955));
#1214=CARTESIAN_POINT('',(25.0000000000026,-24.9999999999953,-34.9999999999955));
#1215=CARTESIAN_POINT('',(3.33333333333599,-3.3333333333286,-33.3333333333289));
#1216=CARTESIAN_POINT('',(2.70006239588838E-12,4.76063632959267E-12,4.40536496171262E-12));
#1217=CARTESIAN_POINT('Origin',(-34.9999999999974,-12.4999999999952,-42.4999999999956));
#1218=CARTESIAN_POINT('',(-54.9999999999974,-24.9999999999952,-54.9999999999956));
#1219=CARTESIAN_POINT('',(-34.9999999999974,-24.9999999999952,-54.9999999999956));
#1220=CARTESIAN_POINT('',(-33.3333333333307,-3.3333333333286,-33.333333333329));
#1221=CARTESIAN_POINT('Origin',(-42.4999999999973,-12.4999999999952,5.00000000000441));
#1222=CARTESIAN_POINT('',(-54.9999999999973,-24.9999999999952,25.0000000000044));
#1223=CARTESIAN_POINT('',(-54.9999999999973,-24.9999999999952,5.00000000000441));
#1224=CARTESIAN_POINT('',(-29.9999999999973,4.76063632959267E-12,4.33431068813661E-12));
#1225=CARTESIAN_POINT('',(-33.3333333333307,-3.33333333332853,3.33333333333769));
#1226=CARTESIAN_POINT('',(-29.9999999999973,4.76063632959267E-12,-29.9999999999957));
#1227=CARTESIAN_POINT('Origin',(5.0000000000027,-12.4999999999952,12.5000000000044));
#1228=CARTESIAN_POINT('',(-29.9999999999973,4.76063632959267E-12,4.33431068813661E-12));
#1229=CARTESIAN_POINT('',(5.0000000000027,-24.9999999999952,25.0000000000045));
#1230=CARTESIAN_POINT('Origin',(25.0000000000026,4.76063632959267E-12,-54.9999999999957));
#1231=CARTESIAN_POINT('',(25.0000000000026,-59.9999999999952,25.0000000000045));
#1232=CARTESIAN_POINT('',(25.0000000000027,4.83169060316868E-12,25.0000000000043));
#1233=CARTESIAN_POINT('',(25.0000000000026,-59.9999999999952,-54.9999999999955));
#1234=CARTESIAN_POINT('',(25.0000000000026,-59.9999999999952,-54.9999999999955));
#1235=CARTESIAN_POINT('',(25.0000000000026,4.76063632959267E-12,-54.9999999999957));
#1236=CARTESIAN_POINT('Origin',(-54.9999999999974,4.76063632959267E-12,
-54.9999999999957));
#1237=CARTESIAN_POINT('',(-54.9999999999974,-59.9999999999952,-54.9999999999955));
#1238=CARTESIAN_POINT('',(-54.9999999999974,-59.9999999999952,-54.9999999999955));
#1239=CARTESIAN_POINT('',(-54.9999999999974,4.76063632959267E-12,-54.9999999999957));
#1240=CARTESIAN_POINT('Origin',(-54.9999999999973,4.83169060316868E-12,
25.0000000000043));
#1241=CARTESIAN_POINT('',(-54.9999999999974,-59.9999999999952,25.0000000000045));
#1242=CARTESIAN_POINT('',(-54.9999999999974,-59.9999999999952,25.0000000000045));
#1243=CARTESIAN_POINT('',(-54.9999999999973,4.83169060316868E-12,25.0000000000043));
#1244=CARTESIAN_POINT('Origin',(25.0000000000027,4.83169060316868E-12,25.0000000000043));
#1245=CARTESIAN_POINT('',(25.0000000000026,-59.9999999999952,25.0000000000045));
#1246=CARTESIAN_POINT('Origin',(-14.9999999999974,-59.9999999999952,-14.9999999999955));
#1247=CARTESIAN_POINT('Origin',(-26.9999999999973,50.0000000000048,-2.99999999999557));
#1248=CARTESIAN_POINT('Origin',(2.70006239588838E-12,4.76063632959267E-12,
4.40536496171262E-12));
#1249=CARTESIAN_POINT('',(2.70006239588838E-12,4.76063632959267E-12,4.40536496171262E-12));
#1250=CARTESIAN_POINT('Origin',(-29.9999999999973,4.76063632959267E-12,
4.33431068813661E-12));
#1251=CARTESIAN_POINT('',(-29.9999999999973,4.76063632959267E-12,4.33431068813661E-12));
#1252=CARTESIAN_POINT('Origin',(-29.9999999999973,4.76063632959267E-12,
-29.9999999999957));
#1253=CARTESIAN_POINT('',(0.,0.,0.));
#1254=CARTESIAN_POINT('',(0.,0.,0.));
#1255=CARTESIAN_POINT('Origin',(0.,813.6,23.75));
#1256=CARTESIAN_POINT('',(-2.75,813.6,23.75));
#1257=CARTESIAN_POINT('Origin',(0.,813.6,23.75));
#1258=CARTESIAN_POINT('',(-2.75,810.6,23.75));
#1259=CARTESIAN_POINT('',(-2.75,813.6,23.75));
#1260=CARTESIAN_POINT('Origin',(0.,810.6,23.75));
#1261=CARTESIAN_POINT('Origin',(23.75,813.6,0.));
#1262=CARTESIAN_POINT('',(21.,813.6,-3.36777869765522E-16));
#1263=CARTESIAN_POINT('Origin',(23.75,813.6,0.));
#1264=CARTESIAN_POINT('',(21.,810.6,3.36777869765522E-16));
#1265=CARTESIAN_POINT('',(21.,813.6,-3.36777869765522E-16));
#1266=CARTESIAN_POINT('Origin',(23.75,810.6,0.));
#1267=CARTESIAN_POINT('Origin',(-23.75,813.6,0.));
#1268=CARTESIAN_POINT('',(-26.5,813.6,-3.36777869765522E-16));
#1269=CARTESIAN_POINT('Origin',(-23.75,813.6,0.));
#1270=CARTESIAN_POINT('',(-26.5,810.6,3.36777869765522E-16));
#1271=CARTESIAN_POINT('',(-26.5,813.6,-3.36777869765522E-16));
#1272=CARTESIAN_POINT('Origin',(-23.75,810.6,0.));
#1273=CARTESIAN_POINT('Origin',(0.,813.6,-23.75));
#1274=CARTESIAN_POINT('',(-2.75,813.6,-23.75));
#1275=CARTESIAN_POINT('Origin',(0.,813.6,-23.75));
#1276=CARTESIAN_POINT('',(-2.75,810.6,-23.75));
#1277=CARTESIAN_POINT('',(-2.75,813.6,-23.75));
#1278=CARTESIAN_POINT('Origin',(0.,810.6,-23.75));
#1279=CARTESIAN_POINT('Origin',(0.,810.6,0.));
#1280=CARTESIAN_POINT('',(-27.5,810.6,-3.36777869765522E-15));
#1281=CARTESIAN_POINT('Origin',(0.,810.6,0.));
#1282=CARTESIAN_POINT('',(19.05,810.6,2.33295215237571E-15));
#1283=CARTESIAN_POINT('Origin',(0.,810.6,0.));
#1284=CARTESIAN_POINT('Origin',(0.,813.6,0.));
#1285=CARTESIAN_POINT('',(-27.5,813.6,-3.36777869765522E-15));
#1286=CARTESIAN_POINT('',(-27.5,813.6,-3.36777869765522E-15));
#1287=CARTESIAN_POINT('Origin',(0.,813.6,0.));
#1288=CARTESIAN_POINT('Origin',(-2.27980310838139,36.5895061237239,0.));
#1289=CARTESIAN_POINT('',(-17.05,21.5895061237239,0.));
#1290=CARTESIAN_POINT('',(-17.05,51.5895061237239,0.));
#1291=CARTESIAN_POINT('',(-17.05,0.,0.));
#1292=CARTESIAN_POINT('',(-17.2798031083814,21.5895061237239,0.));
#1293=CARTESIAN_POINT('',(-17.2798031083814,21.5895061237239,0.));
#1294=CARTESIAN_POINT('',(-17.2798031083814,51.5895061237239,0.));
#1295=CARTESIAN_POINT('',(-17.2798031083814,51.5895061237239,0.));
#1296=CARTESIAN_POINT('',(12.7201968916186,51.5895061237239,0.));
#1297=CARTESIAN_POINT('Origin',(-17.2798031083814,21.5895061237239,0.));
#1298=CARTESIAN_POINT('',(-17.2798031083814,51.5895061237239,-8.01940799158971));
#1299=CARTESIAN_POINT('',(-17.2798031083814,21.5895061237239,-8.01940799158973));
#1300=CARTESIAN_POINT('',(-17.2798031083814,0.,-8.01940799158973));
#1301=CARTESIAN_POINT('',(-17.2798031083814,51.5895061237239,0.));
#1302=CARTESIAN_POINT('',(-17.2798031083814,21.5895061237239,0.));
#1303=CARTESIAN_POINT('Origin',(-17.2798031083814,51.5895061237239,0.));
#1304=CARTESIAN_POINT('',(12.7201968916186,51.5895061237239,-11.353373553198));
#1305=CARTESIAN_POINT('Origin',(0.,51.5895061237239,0.));
#1306=CARTESIAN_POINT('',(12.7201968916186,51.5895061237239,-14.1809411196315));
#1307=CARTESIAN_POINT('Origin',(0.,51.5895061237239,0.));
#1308=CARTESIAN_POINT('',(12.7201968916186,51.5895061237239,0.));
#1309=CARTESIAN_POINT('Origin',(12.7201968916186,51.5895061237239,0.));
#1310=CARTESIAN_POINT('',(12.7201968916186,21.5895061237239,-11.353373553198));
#1311=CARTESIAN_POINT('',(12.7201968916186,0.,-11.353373553198));
#1312=CARTESIAN_POINT('',(12.7201968916186,21.5895061237239,-14.1809411196315));
#1313=CARTESIAN_POINT('',(12.7201968916186,0.,-14.1809411196315));
#1314=CARTESIAN_POINT('',(12.7201968916186,21.5895061237239,0.));
#1315=CARTESIAN_POINT('Origin',(12.7201968916186,21.5895061237239,0.));
#1316=CARTESIAN_POINT('Origin',(0.,21.5895061237239,0.));
#1317=CARTESIAN_POINT('Origin',(0.,21.5895061237239,0.));
#1318=CARTESIAN_POINT('Origin',(0.,0.,0.));
#1319=CARTESIAN_POINT('',(-17.05,813.6,2.08802279254624E-15));
#1320=CARTESIAN_POINT('Origin',(0.,813.6,0.));
#1321=CARTESIAN_POINT('',(-17.05,0.,2.08802279254624E-15));
#1322=CARTESIAN_POINT('',(-17.05,0.,2.08802279254624E-15));
#1323=CARTESIAN_POINT('',(-17.05,0.,2.08802279254624E-15));
#1324=CARTESIAN_POINT('Origin',(0.,0.,0.));
#1325=CARTESIAN_POINT('Origin',(0.,0.,0.));
#1326=CARTESIAN_POINT('',(19.05,0.,-2.33295215237571E-15));
#1327=CARTESIAN_POINT('',(19.05,0.,-2.33295215237571E-15));
#1328=CARTESIAN_POINT('Origin',(0.,0.,0.));
#1329=CARTESIAN_POINT('Origin',(0.,813.6,0.));
#1330=CARTESIAN_POINT('Origin',(0.,0.,0.));
#1331=CARTESIAN_POINT('',(-786.338880460461,524.669663635116,-560.392934271764));
#1332=CARTESIAN_POINT('',(-799.059077352078,503.080157511392,-502.373526280178));
#1333=UNCERTAINTY_MEASURE_WITH_UNIT(LENGTH_MEASURE(0.01),#1341,
'DISTANCE_ACCURACY_VALUE',
'Maximum model space distance between geometric entities at asserted c
onnectivities');
#1334=UNCERTAINTY_MEASURE_WITH_UNIT(LENGTH_MEASURE(0.01),#1341,
'DISTANCE_ACCURACY_VALUE',
'Maximum model space distance between geometric entities at asserted c
onnectivities');
#1335=UNCERTAINTY_MEASURE_WITH_UNIT(LENGTH_MEASURE(0.01),#1341,
'DISTANCE_ACCURACY_VALUE',
'Maximum model space distance between geometric entities at asserted c
onnectivities');
#1336=UNCERTAINTY_MEASURE_WITH_UNIT(LENGTH_MEASURE(0.01),#1341,
'DISTANCE_ACCURACY_VALUE',
'Maximum model space distance between geometric entities at asserted c
onnectivities');
#1337=(
GEOMETRIC_REPRESENTATION_CONTEXT(3)
GLOBAL_UNCERTAINTY_ASSIGNED_CONTEXT((#1333))
GLOBAL_UNIT_ASSIGNED_CONTEXT((#1341,#1343,#1344))
REPRESENTATION_CONTEXT('','3D')
);
#1338=(
GEOMETRIC_REPRESENTATION_CONTEXT(3)
GLOBAL_UNCERTAINTY_ASSIGNED_CONTEXT((#1334))
GLOBAL_UNIT_ASSIGNED_CONTEXT((#1341,#1343,#1344))
REPRESENTATION_CONTEXT('','3D')
);
#1339=(
GEOMETRIC_REPRESENTATION_CONTEXT(3)
GLOBAL_UNCERTAINTY_ASSIGNED_CONTEXT((#1335))
GLOBAL_UNIT_ASSIGNED_CONTEXT((#1341,#1343,#1344))
REPRESENTATION_CONTEXT('','3D')
);
#1340=(
GEOMETRIC_REPRESENTATION_CONTEXT(3)
GLOBAL_UNCERTAINTY_ASSIGNED_CONTEXT((#1336))
GLOBAL_UNIT_ASSIGNED_CONTEXT((#1341,#1343,#1344))
REPRESENTATION_CONTEXT('','3D')
);
#1341=(
LENGTH_UNIT()
NAMED_UNIT(*)
SI_UNIT(.MILLI.,.METRE.)
);
#1342=(
LENGTH_UNIT()
NAMED_UNIT(*)
SI_UNIT(.CENTI.,.METRE.)
);
#1343=(
NAMED_UNIT(*)
PLANE_ANGLE_UNIT()
SI_UNIT($,.RADIAN.)
);
#1344=(
NAMED_UNIT(*)
SI_UNIT($,.STERADIAN.)
SOLID_ANGLE_UNIT()
);
#1345=SHAPE_DEFINITION_REPRESENTATION(#1348,#1353);
#1346=SHAPE_DEFINITION_REPRESENTATION(#1349,#1354);
#1347=SHAPE_DEFINITION_REPRESENTATION(#1350,#1355);
#1348=PRODUCT_DEFINITION_SHAPE('',$,#1357);
#1349=PRODUCT_DEFINITION_SHAPE('',$,#1358);
#1350=PRODUCT_DEFINITION_SHAPE('',$,#1359);
#1351=PRODUCT_DEFINITION_SHAPE($,$,#17);
#1352=PRODUCT_DEFINITION_SHAPE($,$,#18);
#1353=SHAPE_REPRESENTATION('',(#834,#902,#903),#1337);
#1354=SHAPE_REPRESENTATION('',(#835),#1338);
#1355=SHAPE_REPRESENTATION('',(#868),#1339);
#1356=PRODUCT_DEFINITION_CONTEXT('part definition',#1367,'design');
#1357=PRODUCT_DEFINITION('tolva completa','tolva completa',#1360,#1356);
#1358=PRODUCT_DEFINITION('tolva','tolva',#1361,#1356);
#1359=PRODUCT_DEFINITION('tubo cubierta tornillo',
'tubo cubierta tornillo',#1362,#1356);
#1360=PRODUCT_DEFINITION_FORMATION('',$,#1369);
#1361=PRODUCT_DEFINITION_FORMATION('',$,#1370);
#1362=PRODUCT_DEFINITION_FORMATION('',$,#1371);
#1363=PRODUCT_RELATED_PRODUCT_CATEGORY('tolva completa',
'tolva completa',(#1369));
#1364=PRODUCT_RELATED_PRODUCT_CATEGORY('tolva','tolva',(#1370));
#1365=PRODUCT_RELATED_PRODUCT_CATEGORY('tubo cubierta tornillo',
'tubo cubierta tornillo',(#1371));
#1366=APPLICATION_PROTOCOL_DEFINITION('international standard',
'automotive_design',2009,#1367);
#1367=APPLICATION_CONTEXT(
'Core Data for Automotive Mechanical Design Process');
#1368=PRODUCT_CONTEXT('part definition',#1367,'mechanical');
#1369=PRODUCT('tolva completa','tolva completa',$,(#1368));
#1370=PRODUCT('tolva','tolva',$,(#1368));
#1371=PRODUCT('tubo cubierta tornillo','tubo cubierta tornillo',$,(#1368));
ENDSEC;
END-ISO-10303-21;
