ISO-10303-21;
HEADER;
/* Generated by software containing ST-Developer
 * from STEP Tools, Inc. (www.steptools.com) 
 */

FILE_DESCRIPTION(
/* description */ (''),
/* implementation_level */ '2;1');

FILE_NAME(
/* name */ 'tubo cubierta tornillo.stp',
/* time_stamp */ '2025-12-28T22:22:30-03:00',
/* author */ ('TUF GAMING F15'),
/* organization */ (''),
/* preprocessor_version */ 'ST-DEVELOPER v20.1',
/* originating_system */ 'Autodesk Inventor 2026',
/* authorisation */ '');

FILE_SCHEMA (('AUTOMOTIVE_DESIGN { 1 0 10303 214 3 1 1 }'));
ENDSEC;

DATA;
#10=MECHANICAL_DESIGN_GEOMETRIC_PRESENTATION_REPRESENTATION('',(#13),#513);
#11=SHAPE_REPRESENTATION_RELATIONSHIP('SRR','None',#520,#12);
#12=ADVANCED_BREP_SHAPE_REPRESENTATION('',(#14),#512);
#13=STYLED_ITEM('',(#529),#14);
#14=MANIFOLD_SOLID_BREP('S\X\F3lido1',#290);
#15=FACE_BOUND('',#55,.T.);
#16=FACE_BOUND('',#56,.T.);
#17=FACE_BOUND('',#57,.T.);
#18=FACE_BOUND('',#58,.T.);
#19=FACE_BOUND('',#59,.T.);
#20=FACE_BOUND('',#68,.T.);
#21=FACE_BOUND('',#70,.T.);
#22=FACE_BOUND('',#71,.T.);
#23=FACE_BOUND('',#72,.T.);
#24=FACE_BOUND('',#73,.T.);
#25=FACE_BOUND('',#74,.T.);
#26=FACE_BOUND('',#76,.T.);
#27=PLANE('',#325);
#28=PLANE('',#330);
#29=PLANE('',#331);
#30=PLANE('',#332);
#31=PLANE('',#335);
#32=PLANE('',#336);
#33=PLANE('',#344);
#34=PLANE('',#345);
#35=FACE_OUTER_BOUND('',#50,.T.);
#36=FACE_OUTER_BOUND('',#51,.T.);
#37=FACE_OUTER_BOUND('',#52,.T.);
#38=FACE_OUTER_BOUND('',#53,.T.);
#39=FACE_OUTER_BOUND('',#54,.T.);
#40=FACE_OUTER_BOUND('',#60,.T.);
#41=FACE_OUTER_BOUND('',#61,.T.);
#42=FACE_OUTER_BOUND('',#62,.T.);
#43=FACE_OUTER_BOUND('',#63,.T.);
#44=FACE_OUTER_BOUND('',#64,.T.);
#45=FACE_OUTER_BOUND('',#65,.T.);
#46=FACE_OUTER_BOUND('',#66,.T.);
#47=FACE_OUTER_BOUND('',#67,.T.);
#48=FACE_OUTER_BOUND('',#69,.T.);
#49=FACE_OUTER_BOUND('',#75,.T.);
#50=EDGE_LOOP('',(#194,#195,#196,#197));
#51=EDGE_LOOP('',(#198,#199,#200,#201));
#52=EDGE_LOOP('',(#202,#203,#204,#205));
#53=EDGE_LOOP('',(#206,#207,#208,#209));
#54=EDGE_LOOP('',(#210));
#55=EDGE_LOOP('',(#211));
#56=EDGE_LOOP('',(#212));
#57=EDGE_LOOP('',(#213));
#58=EDGE_LOOP('',(#214));
#59=EDGE_LOOP('',(#215));
#60=EDGE_LOOP('',(#216,#217,#218,#219));
#61=EDGE_LOOP('',(#220,#221,#222,#223));
#62=EDGE_LOOP('',(#224,#225,#226,#227));
#63=EDGE_LOOP('',(#228,#229,#230,#231,#232));
#64=EDGE_LOOP('',(#233,#234,#235,#236));
#65=EDGE_LOOP('',(#237,#238,#239,#240,#241));
#66=EDGE_LOOP('',(#242,#243,#244,#245,#246,#247,#248,#249,#250,#251));
#67=EDGE_LOOP('',(#252,#253,#254,#255));
#68=EDGE_LOOP('',(#256,#257,#258,#259));
#69=EDGE_LOOP('',(#260));
#70=EDGE_LOOP('',(#261));
#71=EDGE_LOOP('',(#262));
#72=EDGE_LOOP('',(#263));
#73=EDGE_LOOP('',(#264));
#74=EDGE_LOOP('',(#265));
#75=EDGE_LOOP('',(#266));
#76=EDGE_LOOP('',(#267));
#77=LINE('',#438,#96);
#78=LINE('',#444,#97);
#79=LINE('',#450,#98);
#80=LINE('',#456,#99);
#81=LINE('',#465,#100);
#82=LINE('',#470,#101);
#83=LINE('',#472,#102);
#84=LINE('',#474,#103);
#85=LINE('',#475,#104);
#86=LINE('',#479,#105);
#87=LINE('',#480,#106);
#88=LINE('',#481,#107);
#89=LINE('',#487,#108);
#90=LINE('',#490,#109);
#91=LINE('',#492,#110);
#92=LINE('',#493,#111);
#93=LINE('',#500,#112);
#94=LINE('',#502,#113);
#95=LINE('',#506,#114);
#96=VECTOR('',#352,2.75);
#97=VECTOR('',#359,2.75);
#98=VECTOR('',#366,2.75);
#99=VECTOR('',#373,2.75);
#100=VECTOR('',#384,27.5);
#101=VECTOR('',#389,10.);
#102=VECTOR('',#390,10.);
#103=VECTOR('',#391,10.);
#104=VECTOR('',#392,10.);
#105=VECTOR('',#395,10.);
#106=VECTOR('',#396,10.);
#107=VECTOR('',#397,10.);
#108=VECTOR('',#404,10.);
#109=VECTOR('',#407,10.);
#110=VECTOR('',#408,10.);
#111=VECTOR('',#409,10.);
#112=VECTOR('',#420,17.05);
#113=VECTOR('',#421,17.05);
#114=VECTOR('',#426,19.05);
#115=CIRCLE('',#314,2.75);
#116=CIRCLE('',#315,2.75);
#117=CIRCLE('',#317,2.75);
#118=CIRCLE('',#318,2.75);
#119=CIRCLE('',#320,2.75);
#120=CIRCLE('',#321,2.75);
#121=CIRCLE('',#323,2.75);
#122=CIRCLE('',#324,2.75);
#123=CIRCLE('',#326,27.5);
#124=CIRCLE('',#327,19.05);
#125=CIRCLE('',#329,27.5);
#126=CIRCLE('',#333,17.05);
#127=CIRCLE('',#334,19.05);
#128=CIRCLE('',#337,17.05);
#129=CIRCLE('',#338,19.05);
#130=CIRCLE('',#340,17.05);
#131=CIRCLE('',#341,17.05);
#132=CIRCLE('',#343,19.05);
#133=VERTEX_POINT('',#435);
#134=VERTEX_POINT('',#437);
#135=VERTEX_POINT('',#441);
#136=VERTEX_POINT('',#443);
#137=VERTEX_POINT('',#447);
#138=VERTEX_POINT('',#449);
#139=VERTEX_POINT('',#453);
#140=VERTEX_POINT('',#455);
#141=VERTEX_POINT('',#459);
#142=VERTEX_POINT('',#461);
#143=VERTEX_POINT('',#464);
#144=VERTEX_POINT('',#468);
#145=VERTEX_POINT('',#469);
#146=VERTEX_POINT('',#471);
#147=VERTEX_POINT('',#473);
#148=VERTEX_POINT('',#477);
#149=VERTEX_POINT('',#478);
#150=VERTEX_POINT('',#483);
#151=VERTEX_POINT('',#485);
#152=VERTEX_POINT('',#489);
#153=VERTEX_POINT('',#491);
#154=VERTEX_POINT('',#498);
#155=VERTEX_POINT('',#501);
#156=VERTEX_POINT('',#505);
#157=EDGE_CURVE('',#133,#133,#115,.T.);
#158=EDGE_CURVE('',#133,#134,#77,.T.);
#159=EDGE_CURVE('',#134,#134,#116,.T.);
#160=EDGE_CURVE('',#135,#135,#117,.T.);
#161=EDGE_CURVE('',#135,#136,#78,.T.);
#162=EDGE_CURVE('',#136,#136,#118,.T.);
#163=EDGE_CURVE('',#137,#137,#119,.T.);
#164=EDGE_CURVE('',#137,#138,#79,.T.);
#165=EDGE_CURVE('',#138,#138,#120,.T.);
#166=EDGE_CURVE('',#139,#139,#121,.T.);
#167=EDGE_CURVE('',#139,#140,#80,.T.);
#168=EDGE_CURVE('',#140,#140,#122,.T.);
#169=EDGE_CURVE('',#141,#141,#123,.T.);
#170=EDGE_CURVE('',#142,#142,#124,.T.);
#171=EDGE_CURVE('',#141,#143,#81,.T.);
#172=EDGE_CURVE('',#143,#143,#125,.T.);
#173=EDGE_CURVE('',#144,#145,#82,.T.);
#174=EDGE_CURVE('',#146,#144,#83,.T.);
#175=EDGE_CURVE('',#147,#146,#84,.T.);
#176=EDGE_CURVE('',#145,#147,#85,.T.);
#177=EDGE_CURVE('',#148,#149,#86,.T.);
#178=EDGE_CURVE('',#147,#148,#87,.T.);
#179=EDGE_CURVE('',#146,#149,#88,.T.);
#180=EDGE_CURVE('',#145,#150,#126,.T.);
#181=EDGE_CURVE('',#151,#148,#127,.T.);
#182=EDGE_CURVE('',#150,#151,#89,.T.);
#183=EDGE_CURVE('',#150,#152,#90,.T.);
#184=EDGE_CURVE('',#153,#151,#91,.T.);
#185=EDGE_CURVE('',#152,#153,#92,.T.);
#186=EDGE_CURVE('',#152,#144,#128,.T.);
#187=EDGE_CURVE('',#149,#153,#129,.T.);
#188=EDGE_CURVE('',#154,#154,#130,.T.);
#189=EDGE_CURVE('',#154,#145,#93,.T.);
#190=EDGE_CURVE('',#144,#155,#94,.T.);
#191=EDGE_CURVE('',#155,#155,#131,.T.);
#192=EDGE_CURVE('',#142,#156,#95,.T.);
#193=EDGE_CURVE('',#156,#156,#132,.T.);
#194=ORIENTED_EDGE('',*,*,#157,.F.);
#195=ORIENTED_EDGE('',*,*,#158,.T.);
#196=ORIENTED_EDGE('',*,*,#159,.F.);
#197=ORIENTED_EDGE('',*,*,#158,.F.);
#198=ORIENTED_EDGE('',*,*,#160,.F.);
#199=ORIENTED_EDGE('',*,*,#161,.T.);
#200=ORIENTED_EDGE('',*,*,#162,.F.);
#201=ORIENTED_EDGE('',*,*,#161,.F.);
#202=ORIENTED_EDGE('',*,*,#163,.F.);
#203=ORIENTED_EDGE('',*,*,#164,.T.);
#204=ORIENTED_EDGE('',*,*,#165,.F.);
#205=ORIENTED_EDGE('',*,*,#164,.F.);
#206=ORIENTED_EDGE('',*,*,#166,.F.);
#207=ORIENTED_EDGE('',*,*,#167,.T.);
#208=ORIENTED_EDGE('',*,*,#168,.F.);
#209=ORIENTED_EDGE('',*,*,#167,.F.);
#210=ORIENTED_EDGE('',*,*,#169,.T.);
#211=ORIENTED_EDGE('',*,*,#159,.T.);
#212=ORIENTED_EDGE('',*,*,#162,.T.);
#213=ORIENTED_EDGE('',*,*,#165,.T.);
#214=ORIENTED_EDGE('',*,*,#168,.T.);
#215=ORIENTED_EDGE('',*,*,#170,.F.);
#216=ORIENTED_EDGE('',*,*,#169,.F.);
#217=ORIENTED_EDGE('',*,*,#171,.T.);
#218=ORIENTED_EDGE('',*,*,#172,.F.);
#219=ORIENTED_EDGE('',*,*,#171,.F.);
#220=ORIENTED_EDGE('',*,*,#173,.F.);
#221=ORIENTED_EDGE('',*,*,#174,.F.);
#222=ORIENTED_EDGE('',*,*,#175,.F.);
#223=ORIENTED_EDGE('',*,*,#176,.F.);
#224=ORIENTED_EDGE('',*,*,#177,.F.);
#225=ORIENTED_EDGE('',*,*,#178,.F.);
#226=ORIENTED_EDGE('',*,*,#175,.T.);
#227=ORIENTED_EDGE('',*,*,#179,.T.);
#228=ORIENTED_EDGE('',*,*,#180,.F.);
#229=ORIENTED_EDGE('',*,*,#176,.T.);
#230=ORIENTED_EDGE('',*,*,#178,.T.);
#231=ORIENTED_EDGE('',*,*,#181,.F.);
#232=ORIENTED_EDGE('',*,*,#182,.F.);
#233=ORIENTED_EDGE('',*,*,#183,.F.);
#234=ORIENTED_EDGE('',*,*,#182,.T.);
#235=ORIENTED_EDGE('',*,*,#184,.F.);
#236=ORIENTED_EDGE('',*,*,#185,.F.);
#237=ORIENTED_EDGE('',*,*,#186,.F.);
#238=ORIENTED_EDGE('',*,*,#185,.T.);
#239=ORIENTED_EDGE('',*,*,#187,.F.);
#240=ORIENTED_EDGE('',*,*,#179,.F.);
#241=ORIENTED_EDGE('',*,*,#174,.T.);
#242=ORIENTED_EDGE('',*,*,#188,.F.);
#243=ORIENTED_EDGE('',*,*,#189,.T.);
#244=ORIENTED_EDGE('',*,*,#180,.T.);
#245=ORIENTED_EDGE('',*,*,#183,.T.);
#246=ORIENTED_EDGE('',*,*,#186,.T.);
#247=ORIENTED_EDGE('',*,*,#190,.T.);
#248=ORIENTED_EDGE('',*,*,#191,.T.);
#249=ORIENTED_EDGE('',*,*,#190,.F.);
#250=ORIENTED_EDGE('',*,*,#173,.T.);
#251=ORIENTED_EDGE('',*,*,#189,.F.);
#252=ORIENTED_EDGE('',*,*,#170,.T.);
#253=ORIENTED_EDGE('',*,*,#192,.T.);
#254=ORIENTED_EDGE('',*,*,#193,.T.);
#255=ORIENTED_EDGE('',*,*,#192,.F.);
#256=ORIENTED_EDGE('',*,*,#184,.T.);
#257=ORIENTED_EDGE('',*,*,#181,.T.);
#258=ORIENTED_EDGE('',*,*,#177,.T.);
#259=ORIENTED_EDGE('',*,*,#187,.T.);
#260=ORIENTED_EDGE('',*,*,#172,.T.);
#261=ORIENTED_EDGE('',*,*,#188,.T.);
#262=ORIENTED_EDGE('',*,*,#157,.T.);
#263=ORIENTED_EDGE('',*,*,#160,.T.);
#264=ORIENTED_EDGE('',*,*,#163,.T.);
#265=ORIENTED_EDGE('',*,*,#166,.T.);
#266=ORIENTED_EDGE('',*,*,#193,.F.);
#267=ORIENTED_EDGE('',*,*,#191,.F.);
#268=CYLINDRICAL_SURFACE('',#313,2.75);
#269=CYLINDRICAL_SURFACE('',#316,2.75);
#270=CYLINDRICAL_SURFACE('',#319,2.75);
#271=CYLINDRICAL_SURFACE('',#322,2.75);
#272=CYLINDRICAL_SURFACE('',#328,27.5);
#273=CYLINDRICAL_SURFACE('',#339,17.05);
#274=CYLINDRICAL_SURFACE('',#342,19.05);
#275=ADVANCED_FACE('',(#35),#268,.F.);
#276=ADVANCED_FACE('',(#36),#269,.F.);
#277=ADVANCED_FACE('',(#37),#270,.F.);
#278=ADVANCED_FACE('',(#38),#271,.F.);
#279=ADVANCED_FACE('',(#39,#15,#16,#17,#18,#19),#27,.F.);
#280=ADVANCED_FACE('',(#40),#272,.T.);
#281=ADVANCED_FACE('',(#41),#28,.F.);
#282=ADVANCED_FACE('',(#42),#29,.F.);
#283=ADVANCED_FACE('',(#43),#30,.F.);
#284=ADVANCED_FACE('',(#44),#31,.F.);
#285=ADVANCED_FACE('',(#45),#32,.F.);
#286=ADVANCED_FACE('',(#46),#273,.F.);
#287=ADVANCED_FACE('',(#47,#20),#274,.T.);
#288=ADVANCED_FACE('',(#48,#21,#22,#23,#24,#25),#33,.T.);
#289=ADVANCED_FACE('',(#49,#26),#34,.F.);
#290=CLOSED_SHELL('',(#275,#276,#277,#278,#279,#280,#281,#282,#283,#284,
#285,#286,#287,#288,#289));
#291=DERIVED_UNIT_ELEMENT(#294,1.);
#292=DERIVED_UNIT_ELEMENT(#515,-3.);
#293=DIMENSIONAL_EXPONENTS(0.,1.,0.,0.,0.,0.,0.);
#294=(
CONVERSION_BASED_UNIT('gram',#296)
MASS_UNIT()
NAMED_UNIT(#293)
);
#295=(
MASS_UNIT()
NAMED_UNIT(*)
SI_UNIT(.KILO.,.GRAM.)
);
#296=MASS_MEASURE_WITH_UNIT(MASS_MEASURE(0.001),#295);
#297=DERIVED_UNIT((#291,#292));
#298=MEASURE_REPRESENTATION_ITEM('density measure',
POSITIVE_RATIO_MEASURE(1.),#297);
#299=PROPERTY_DEFINITION_REPRESENTATION(#304,#301);
#300=PROPERTY_DEFINITION_REPRESENTATION(#305,#302);
#301=REPRESENTATION('material name',(#303),#512);
#302=REPRESENTATION('density',(#298),#512);
#303=DESCRIPTIVE_REPRESENTATION_ITEM('Gen\X\E9rico','Gen\X\E9rico');
#304=PROPERTY_DEFINITION('material property','material name',#522);
#305=PROPERTY_DEFINITION('material property','density of part',#522);
#306=DATE_TIME_ROLE('creation_date');
#307=APPLIED_DATE_AND_TIME_ASSIGNMENT(#308,#306,(#522));
#308=DATE_AND_TIME(#309,#310);
#309=CALENDAR_DATE(2025,3,12);
#310=LOCAL_TIME(0,0,0.,#311);
#311=COORDINATED_UNIVERSAL_TIME_OFFSET(0,0,.BEHIND.);
#312=AXIS2_PLACEMENT_3D('',#433,#346,#347);
#313=AXIS2_PLACEMENT_3D('',#434,#348,#349);
#314=AXIS2_PLACEMENT_3D('',#436,#350,#351);
#315=AXIS2_PLACEMENT_3D('',#439,#353,#354);
#316=AXIS2_PLACEMENT_3D('',#440,#355,#356);
#317=AXIS2_PLACEMENT_3D('',#442,#357,#358);
#318=AXIS2_PLACEMENT_3D('',#445,#360,#361);
#319=AXIS2_PLACEMENT_3D('',#446,#362,#363);
#320=AXIS2_PLACEMENT_3D('',#448,#364,#365);
#321=AXIS2_PLACEMENT_3D('',#451,#367,#368);
#322=AXIS2_PLACEMENT_3D('',#452,#369,#370);
#323=AXIS2_PLACEMENT_3D('',#454,#371,#372);
#324=AXIS2_PLACEMENT_3D('',#457,#374,#375);
#325=AXIS2_PLACEMENT_3D('',#458,#376,#377);
#326=AXIS2_PLACEMENT_3D('',#460,#378,#379);
#327=AXIS2_PLACEMENT_3D('',#462,#380,#381);
#328=AXIS2_PLACEMENT_3D('',#463,#382,#383);
#329=AXIS2_PLACEMENT_3D('',#466,#385,#386);
#330=AXIS2_PLACEMENT_3D('',#467,#387,#388);
#331=AXIS2_PLACEMENT_3D('',#476,#393,#394);
#332=AXIS2_PLACEMENT_3D('',#482,#398,#399);
#333=AXIS2_PLACEMENT_3D('',#484,#400,#401);
#334=AXIS2_PLACEMENT_3D('',#486,#402,#403);
#335=AXIS2_PLACEMENT_3D('',#488,#405,#406);
#336=AXIS2_PLACEMENT_3D('',#494,#410,#411);
#337=AXIS2_PLACEMENT_3D('',#495,#412,#413);
#338=AXIS2_PLACEMENT_3D('',#496,#414,#415);
#339=AXIS2_PLACEMENT_3D('',#497,#416,#417);
#340=AXIS2_PLACEMENT_3D('',#499,#418,#419);
#341=AXIS2_PLACEMENT_3D('',#503,#422,#423);
#342=AXIS2_PLACEMENT_3D('',#504,#424,#425);
#343=AXIS2_PLACEMENT_3D('',#507,#427,#428);
#344=AXIS2_PLACEMENT_3D('',#508,#429,#430);
#345=AXIS2_PLACEMENT_3D('',#509,#431,#432);
#346=DIRECTION('axis',(0.,0.,1.));
#347=DIRECTION('refdir',(1.,0.,0.));
#348=DIRECTION('center_axis',(0.,-1.,0.));
#349=DIRECTION('ref_axis',(1.,0.,0.));
#350=DIRECTION('center_axis',(0.,-1.,0.));
#351=DIRECTION('ref_axis',(1.,0.,0.));
#352=DIRECTION('',(0.,-1.,0.));
#353=DIRECTION('center_axis',(0.,1.,0.));
#354=DIRECTION('ref_axis',(1.,0.,0.));
#355=DIRECTION('center_axis',(0.,-1.,0.));
#356=DIRECTION('ref_axis',(1.,0.,0.));
#357=DIRECTION('center_axis',(0.,-1.,0.));
#358=DIRECTION('ref_axis',(1.,0.,0.));
#359=DIRECTION('',(0.,-1.,0.));
#360=DIRECTION('center_axis',(0.,1.,0.));
#361=DIRECTION('ref_axis',(1.,0.,0.));
#362=DIRECTION('center_axis',(0.,-1.,0.));
#363=DIRECTION('ref_axis',(1.,0.,0.));
#364=DIRECTION('center_axis',(0.,-1.,0.));
#365=DIRECTION('ref_axis',(1.,0.,0.));
#366=DIRECTION('',(0.,-1.,0.));
#367=DIRECTION('center_axis',(0.,1.,0.));
#368=DIRECTION('ref_axis',(1.,0.,0.));
#369=DIRECTION('center_axis',(0.,-1.,0.));
#370=DIRECTION('ref_axis',(1.,0.,0.));
#371=DIRECTION('center_axis',(0.,-1.,0.));
#372=DIRECTION('ref_axis',(1.,0.,0.));
#373=DIRECTION('',(0.,-1.,0.));
#374=DIRECTION('center_axis',(0.,1.,0.));
#375=DIRECTION('ref_axis',(1.,0.,0.));
#376=DIRECTION('center_axis',(0.,1.,0.));
#377=DIRECTION('ref_axis',(0.,0.,1.));
#378=DIRECTION('center_axis',(0.,-1.,0.));
#379=DIRECTION('ref_axis',(1.,0.,0.));
#380=DIRECTION('center_axis',(0.,-1.,0.));
#381=DIRECTION('ref_axis',(-1.,0.,0.));
#382=DIRECTION('center_axis',(0.,-1.,0.));
#383=DIRECTION('ref_axis',(1.,0.,0.));
#384=DIRECTION('',(0.,1.,0.));
#385=DIRECTION('center_axis',(0.,1.,0.));
#386=DIRECTION('ref_axis',(1.,0.,0.));
#387=DIRECTION('center_axis',(0.,0.,1.));
#388=DIRECTION('ref_axis',(1.,0.,0.));
#389=DIRECTION('',(0.,1.,0.));
#390=DIRECTION('',(1.,1.48029736616688E-16,0.));
#391=DIRECTION('',(1.48029736616688E-16,-1.,0.));
#392=DIRECTION('',(-1.,0.,0.));
#393=DIRECTION('center_axis',(-1.,-1.48029736616688E-16,0.));
#394=DIRECTION('ref_axis',(-1.48029736616688E-16,1.,0.));
#395=DIRECTION('',(0.,-1.,0.));
#396=DIRECTION('',(0.,0.,-1.));
#397=DIRECTION('',(0.,0.,-1.));
#398=DIRECTION('center_axis',(0.,1.,0.));
#399=DIRECTION('ref_axis',(1.,0.,0.));
#400=DIRECTION('center_axis',(0.,-1.,0.));
#401=DIRECTION('ref_axis',(1.,0.,0.));
#402=DIRECTION('center_axis',(0.,1.,0.));
#403=DIRECTION('ref_axis',(-1.,0.,0.));
#404=DIRECTION('',(0.,0.,-1.));
#405=DIRECTION('center_axis',(1.,7.40148683083438E-17,0.));
#406=DIRECTION('ref_axis',(7.40148683083438E-17,-1.,0.));
#407=DIRECTION('',(0.,-1.,0.));
#408=DIRECTION('',(0.,1.,0.));
#409=DIRECTION('',(0.,0.,-1.));
#410=DIRECTION('center_axis',(1.48029736616688E-16,-1.,0.));
#411=DIRECTION('ref_axis',(-1.,-1.48029736616688E-16,0.));
#412=DIRECTION('center_axis',(-1.48029736616688E-16,1.,0.));
#413=DIRECTION('ref_axis',(1.,0.,0.));
#414=DIRECTION('center_axis',(1.48029736616688E-16,-1.,0.));
#415=DIRECTION('ref_axis',(-1.,0.,0.));
#416=DIRECTION('center_axis',(0.,1.,0.));
#417=DIRECTION('ref_axis',(1.,0.,0.));
#418=DIRECTION('center_axis',(0.,-1.,0.));
#419=DIRECTION('ref_axis',(1.,0.,0.));
#420=DIRECTION('',(0.,-1.,0.));
#421=DIRECTION('',(0.,-1.,0.));
#422=DIRECTION('center_axis',(0.,-1.,0.));
#423=DIRECTION('ref_axis',(1.,0.,0.));
#424=DIRECTION('center_axis',(0.,1.,0.));
#425=DIRECTION('ref_axis',(-1.,0.,0.));
#426=DIRECTION('',(0.,-1.,0.));
#427=DIRECTION('center_axis',(0.,1.,0.));
#428=DIRECTION('ref_axis',(-1.,0.,0.));
#429=DIRECTION('center_axis',(0.,1.,0.));
#430=DIRECTION('ref_axis',(0.,0.,1.));
#431=DIRECTION('center_axis',(0.,1.,0.));
#432=DIRECTION('ref_axis',(0.,0.,1.));
#433=CARTESIAN_POINT('',(0.,0.,0.));
#434=CARTESIAN_POINT('Origin',(0.,813.6,23.75));
#435=CARTESIAN_POINT('',(-2.75,813.6,23.75));
#436=CARTESIAN_POINT('Origin',(0.,813.6,23.75));
#437=CARTESIAN_POINT('',(-2.75,810.6,23.75));
#438=CARTESIAN_POINT('',(-2.75,813.6,23.75));
#439=CARTESIAN_POINT('Origin',(0.,810.6,23.75));
#440=CARTESIAN_POINT('Origin',(23.75,813.6,0.));
#441=CARTESIAN_POINT('',(21.,813.6,-3.36777869765522E-16));
#442=CARTESIAN_POINT('Origin',(23.75,813.6,0.));
#443=CARTESIAN_POINT('',(21.,810.6,3.36777869765522E-16));
#444=CARTESIAN_POINT('',(21.,813.6,-3.36777869765522E-16));
#445=CARTESIAN_POINT('Origin',(23.75,810.6,0.));
#446=CARTESIAN_POINT('Origin',(-23.75,813.6,0.));
#447=CARTESIAN_POINT('',(-26.5,813.6,-3.36777869765522E-16));
#448=CARTESIAN_POINT('Origin',(-23.75,813.6,0.));
#449=CARTESIAN_POINT('',(-26.5,810.6,3.36777869765522E-16));
#450=CARTESIAN_POINT('',(-26.5,813.6,-3.36777869765522E-16));
#451=CARTESIAN_POINT('Origin',(-23.75,810.6,0.));
#452=CARTESIAN_POINT('Origin',(0.,813.6,-23.75));
#453=CARTESIAN_POINT('',(-2.75,813.6,-23.75));
#454=CARTESIAN_POINT('Origin',(0.,813.6,-23.75));
#455=CARTESIAN_POINT('',(-2.75,810.6,-23.75));
#456=CARTESIAN_POINT('',(-2.75,813.6,-23.75));
#457=CARTESIAN_POINT('Origin',(0.,810.6,-23.75));
#458=CARTESIAN_POINT('Origin',(0.,810.6,0.));
#459=CARTESIAN_POINT('',(-27.5,810.6,-3.36777869765522E-15));
#460=CARTESIAN_POINT('Origin',(0.,810.6,0.));
#461=CARTESIAN_POINT('',(19.05,810.6,2.33295215237571E-15));
#462=CARTESIAN_POINT('Origin',(0.,810.6,0.));
#463=CARTESIAN_POINT('Origin',(0.,813.6,0.));
#464=CARTESIAN_POINT('',(-27.5,813.6,-3.36777869765522E-15));
#465=CARTESIAN_POINT('',(-27.5,813.6,-3.36777869765522E-15));
#466=CARTESIAN_POINT('Origin',(0.,813.6,0.));
#467=CARTESIAN_POINT('Origin',(-2.27980310838139,36.5895061237239,0.));
#468=CARTESIAN_POINT('',(-17.05,21.5895061237239,0.));
#469=CARTESIAN_POINT('',(-17.05,51.5895061237239,0.));
#470=CARTESIAN_POINT('',(-17.05,0.,0.));
#471=CARTESIAN_POINT('',(-17.2798031083814,21.5895061237239,0.));
#472=CARTESIAN_POINT('',(-17.2798031083814,21.5895061237239,0.));
#473=CARTESIAN_POINT('',(-17.2798031083814,51.5895061237239,0.));
#474=CARTESIAN_POINT('',(-17.2798031083814,51.5895061237239,0.));
#475=CARTESIAN_POINT('',(12.7201968916186,51.5895061237239,0.));
#476=CARTESIAN_POINT('Origin',(-17.2798031083814,21.5895061237239,0.));
#477=CARTESIAN_POINT('',(-17.2798031083814,51.5895061237239,-8.01940799158971));
#478=CARTESIAN_POINT('',(-17.2798031083814,21.5895061237239,-8.01940799158973));
#479=CARTESIAN_POINT('',(-17.2798031083814,0.,-8.01940799158973));
#480=CARTESIAN_POINT('',(-17.2798031083814,51.5895061237239,0.));
#481=CARTESIAN_POINT('',(-17.2798031083814,21.5895061237239,0.));
#482=CARTESIAN_POINT('Origin',(-17.2798031083814,51.5895061237239,0.));
#483=CARTESIAN_POINT('',(12.7201968916186,51.5895061237239,-11.353373553198));
#484=CARTESIAN_POINT('Origin',(0.,51.5895061237239,0.));
#485=CARTESIAN_POINT('',(12.7201968916186,51.5895061237239,-14.1809411196315));
#486=CARTESIAN_POINT('Origin',(0.,51.5895061237239,0.));
#487=CARTESIAN_POINT('',(12.7201968916186,51.5895061237239,0.));
#488=CARTESIAN_POINT('Origin',(12.7201968916186,51.5895061237239,0.));
#489=CARTESIAN_POINT('',(12.7201968916186,21.5895061237239,-11.353373553198));
#490=CARTESIAN_POINT('',(12.7201968916186,0.,-11.353373553198));
#491=CARTESIAN_POINT('',(12.7201968916186,21.5895061237239,-14.1809411196315));
#492=CARTESIAN_POINT('',(12.7201968916186,0.,-14.1809411196315));
#493=CARTESIAN_POINT('',(12.7201968916186,21.5895061237239,0.));
#494=CARTESIAN_POINT('Origin',(12.7201968916186,21.5895061237239,0.));
#495=CARTESIAN_POINT('Origin',(0.,21.5895061237239,0.));
#496=CARTESIAN_POINT('Origin',(0.,21.5895061237239,0.));
#497=CARTESIAN_POINT('Origin',(0.,0.,0.));
#498=CARTESIAN_POINT('',(-17.05,813.6,2.08802279254624E-15));
#499=CARTESIAN_POINT('Origin',(0.,813.6,0.));
#500=CARTESIAN_POINT('',(-17.05,0.,2.08802279254624E-15));
#501=CARTESIAN_POINT('',(-17.05,0.,2.08802279254624E-15));
#502=CARTESIAN_POINT('',(-17.05,0.,2.08802279254624E-15));
#503=CARTESIAN_POINT('Origin',(0.,0.,0.));
#504=CARTESIAN_POINT('Origin',(0.,0.,0.));
#505=CARTESIAN_POINT('',(19.05,0.,-2.33295215237571E-15));
#506=CARTESIAN_POINT('',(19.05,0.,-2.33295215237571E-15));
#507=CARTESIAN_POINT('Origin',(0.,0.,0.));
#508=CARTESIAN_POINT('Origin',(0.,813.6,0.));
#509=CARTESIAN_POINT('Origin',(0.,0.,0.));
#510=UNCERTAINTY_MEASURE_WITH_UNIT(LENGTH_MEASURE(0.01),#514,
'DISTANCE_ACCURACY_VALUE',
'Maximum model space distance between geometric entities at asserted c
onnectivities');
#511=UNCERTAINTY_MEASURE_WITH_UNIT(LENGTH_MEASURE(0.01),#514,
'DISTANCE_ACCURACY_VALUE',
'Maximum model space distance between geometric entities at asserted c
onnectivities');
#512=(
GEOMETRIC_REPRESENTATION_CONTEXT(3)
GLOBAL_UNCERTAINTY_ASSIGNED_CONTEXT((#510))
GLOBAL_UNIT_ASSIGNED_CONTEXT((#514,#516,#517))
REPRESENTATION_CONTEXT('','3D')
);
#513=(
GEOMETRIC_REPRESENTATION_CONTEXT(3)
GLOBAL_UNCERTAINTY_ASSIGNED_CONTEXT((#511))
GLOBAL_UNIT_ASSIGNED_CONTEXT((#514,#516,#517))
REPRESENTATION_CONTEXT('','3D')
);
#514=(
LENGTH_UNIT()
NAMED_UNIT(*)
SI_UNIT(.MILLI.,.METRE.)
);
#515=(
LENGTH_UNIT()
NAMED_UNIT(*)
SI_UNIT(.CENTI.,.METRE.)
);
#516=(
NAMED_UNIT(*)
PLANE_ANGLE_UNIT()
SI_UNIT($,.RADIAN.)
);
#517=(
NAMED_UNIT(*)
SI_UNIT($,.STERADIAN.)
SOLID_ANGLE_UNIT()
);
#518=SHAPE_DEFINITION_REPRESENTATION(#519,#520);
#519=PRODUCT_DEFINITION_SHAPE('',$,#522);
#520=SHAPE_REPRESENTATION('',(#312),#512);
#521=PRODUCT_DEFINITION_CONTEXT('part definition',#526,'design');
#522=PRODUCT_DEFINITION('tubo cubierta tornillo',
'tubo cubierta tornillo',#523,#521);
#523=PRODUCT_DEFINITION_FORMATION('',$,#528);
#524=PRODUCT_RELATED_PRODUCT_CATEGORY('tubo cubierta tornillo',
'tubo cubierta tornillo',(#528));
#525=APPLICATION_PROTOCOL_DEFINITION('international standard',
'automotive_design',2009,#526);
#526=APPLICATION_CONTEXT(
'Core Data for Automotive Mechanical Design Process');
#527=PRODUCT_CONTEXT('part definition',#526,'mechanical');
#528=PRODUCT('tubo cubierta tornillo','tubo cubierta tornillo',$,(#527));
#529=PRESENTATION_STYLE_ASSIGNMENT((#530));
#530=SURFACE_STYLE_USAGE(.BOTH.,#533);
#531=SURFACE_STYLE_RENDERING_WITH_PROPERTIES($,#537,(#532));
#532=SURFACE_STYLE_TRANSPARENT(0.);
#533=SURFACE_SIDE_STYLE('',(#534,#531));
#534=SURFACE_STYLE_FILL_AREA(#535);
#535=FILL_AREA_STYLE('',(#536));
#536=FILL_AREA_STYLE_COLOUR('',#537);
#537=COLOUR_RGB('',0.749019607843137,0.749019607843137,0.749019607843137);
ENDSEC;
END-ISO-10303-21;
